<svg xmlns="http://www.w3.org/2000/svg" xmlns:xlink="http://www.w3.org/1999/xlink" viewBox="0 0 327.31 387.64"><defs><style>.cls-1{fill:url(#linear-gradient);}</style><linearGradient id="linear-gradient" x1="326.38" y1="-78.41" x2="67.67" y2="354.44" gradientUnits="userSpaceOnUse"><stop offset="0" stop-color="#1d4ed8"/><stop offset="1" stop-color="#3b82f6"/></linearGradient></defs><title>Asset 3</title><g id="Layer_2" data-name="Layer 2"><g id="Layer_1-2" data-name="Layer 1"><path class="cls-1" d="M298.82,193.82a97.55,97.55,0,0,0,17.77-26.89q10.71-23.94,10.71-52.8,0-32.58-10.39-57.17T286.31,18.58q-20.22-13.77-50-13.77a65.7,65.7,0,0,0-29.74,7.11,80.36,80.36,0,0,0-25.36,20.22,93.81,93.81,0,0,0-13.31,21.09A89.6,89.6,0,0,0,153.6,26.89a69.78,69.78,0,0,0-26-20.12A82.1,82.1,0,0,0,93.8,0Q64.06,0,43.07,15.09T11,56Q0,81.77,0,114.13a143.77,143.77,0,0,0,5.58,39.79A113.86,113.86,0,0,0,22.3,189c1.2,1.68,2.55,3.23,3.86,4.8-1.31,1.58-2.66,3.12-3.86,4.8A113.86,113.86,0,0,0,5.58,233.71,143.77,143.77,0,0,0,0,273.51q0,32.35,11,58.16t32,40.89q21,15.09,50.72,15.09a82.1,82.1,0,0,0,33.78-6.78,69.78,69.78,0,0,0,26-20.12,89.6,89.6,0,0,0,14.35-26.34,93.81,93.81,0,0,0,13.31,21.09,80.36,80.36,0,0,0,25.36,20.22,65.7,65.7,0,0,0,29.74,7.11q29.73,0,50-13.77t30.61-38.37q10.38-24.6,10.39-57.17,0-28.86-10.71-52.8A97.55,97.55,0,0,0,298.82,193.82ZM269,298.43a33,33,0,0,1-13.88,13.67,43,43,0,0,1-19.9,4.48q-12.91,0-22.52-4.92a34,34,0,0,1-14.87-15q-5.25-10.06-5.25-25.36V237.21H141v34.11q0,15.74-4.59,26.89a35.32,35.32,0,0,1-14.76,17.27q-10.17,6.12-26.78,6.12-18.37,0-30.06-12.35t-11.7-34a49.73,49.73,0,0,1,5.14-23,40.82,40.82,0,0,1,13.88-15.85,34.82,34.82,0,0,1,19.68-5.79V157a34.82,34.82,0,0,1-19.68-5.79,40.82,40.82,0,0,1-13.88-15.85,49.73,49.73,0,0,1-5.14-23q0-21.65,11.7-34T94.89,66q16.61,0,26.78,6.12a35.32,35.32,0,0,1,14.76,17.27Q141,100.58,141,116.32v34.11h51.6V116.32q0-15.3,5.25-25.36a34,34,0,0,1,14.87-15q9.62-4.92,22.52-4.92a43,43,0,0,1,19.9,4.48A33,33,0,0,1,269,89.21q5.13,9.18,5.14,23.18A49.26,49.26,0,0,1,270,132.5a37.37,37.37,0,0,1-11.7,15.09,28.75,28.75,0,0,1-17.82,5.68v81.1a28.75,28.75,0,0,1,17.82,5.68A37.37,37.37,0,0,1,270,255.14a49.26,49.26,0,0,1,4.15,20.12Q274.18,289.24,269,298.43Z"/></g></g></svg>