<svg xmlns="http://www.w3.org/2000/svg" xmlns:xlink="http://www.w3.org/1999/xlink" viewBox="0 0 1007.74 163.93"><defs><style>.cls-1{fill:url(#linear-gradient);}.cls-2{fill:url(#linear-gradient-2);}.cls-3{fill:url(#linear-gradient-3);}.cls-4{fill:url(#linear-gradient-4);}.cls-5{fill:url(#linear-gradient-5);}.cls-6{fill:url(#linear-gradient-6);}.cls-7{fill:url(#linear-gradient-7);}.cls-8{opacity:0.6;fill:url(#linear-gradient-8);}.cls-9{fill:url(#linear-gradient-9);}.cls-10{fill:url(#linear-gradient-10);}</style><linearGradient id="linear-gradient" x1="138.03" y1="-33.16" x2="28.62" y2="149.89" gradientUnits="userSpaceOnUse"><stop offset="0" stop-color="#1d4ed8"/><stop offset="1" stop-color="#3b82f6"/></linearGradient><linearGradient id="linear-gradient-2" x1="1044.28" y1="-54.76" x2="241.27" y2="87.79" xlink:href="#linear-gradient"/><linearGradient id="linear-gradient-3" x1="1049.42" y1="-25.84" x2="246.4" y2="116.72" xlink:href="#linear-gradient"/><linearGradient id="linear-gradient-4" x1="1051.88" y1="-11.98" x2="248.86" y2="130.58" xlink:href="#linear-gradient"/><linearGradient id="linear-gradient-5" x1="1054.81" y1="4.55" x2="251.8" y2="147.11" xlink:href="#linear-gradient"/><linearGradient id="linear-gradient-6" x1="1053.57" y1="-2.41" x2="250.56" y2="140.14" xlink:href="#linear-gradient"/><linearGradient id="linear-gradient-7" x1="1058.38" y1="24.68" x2="255.37" y2="167.24" xlink:href="#linear-gradient"/><linearGradient id="linear-gradient-8" x1="1063.18" y1="51.67" x2="260.16" y2="194.23" xlink:href="#linear-gradient"/><linearGradient id="linear-gradient-9" x1="1065.43" y1="64.38" x2="262.42" y2="206.94" xlink:href="#linear-gradient"/><linearGradient id="linear-gradient-10" x1="1064.65" y1="60" x2="261.64" y2="202.56" xlink:href="#linear-gradient"/></defs><title>Asset 1</title><g id="Layer_2" data-name="Layer 2"><g id="Layer_1-2" data-name="Layer 1"><path class="cls-1" d="M126.37,82a41.25,41.25,0,0,0,7.52-11.37,54.08,54.08,0,0,0,4.53-22.33q0-13.78-4.39-24.18A36,36,0,0,0,121.08,7.86Q112.53,2,100,2A27.78,27.78,0,0,0,87.38,5a34,34,0,0,0-10.73,8.55A39.67,39.67,0,0,0,71,22.51,37.89,37.89,0,0,0,65,11.37,29.51,29.51,0,0,0,54,2.87,34.72,34.72,0,0,0,39.67,0Q27.09,0,18.22,6.38A40.25,40.25,0,0,0,4.67,23.67,62,62,0,0,0,0,48.27,60.8,60.8,0,0,0,2.36,65.09,48.15,48.15,0,0,0,9.43,79.93c.51.71,1.08,1.36,1.63,2-.55.67-1.12,1.32-1.63,2A48.15,48.15,0,0,0,2.36,98.84,60.8,60.8,0,0,0,0,115.66a62,62,0,0,0,4.67,24.59,40.25,40.25,0,0,0,13.55,17.29q8.88,6.38,21.45,6.38A34.72,34.72,0,0,0,54,161.06a29.51,29.51,0,0,0,11-8.51A37.89,37.89,0,0,0,71,141.42a39.67,39.67,0,0,0,5.63,8.92,34,34,0,0,0,10.73,8.55,27.78,27.78,0,0,0,12.57,3q12.57,0,21.13-5.83A36,36,0,0,0,134,139.84q4.39-10.4,4.39-24.18a54.08,54.08,0,0,0-4.53-22.33A41.25,41.25,0,0,0,126.37,82Zm-12.6,44.24A14,14,0,0,1,107.9,132a18.2,18.2,0,0,1-8.41,1.9A20.65,20.65,0,0,1,90,131.8a14.36,14.36,0,0,1-6.29-6.33,23.07,23.07,0,0,1-2.22-10.73V100.32H59.64v14.42a29.84,29.84,0,0,1-1.94,11.37,14.94,14.94,0,0,1-6.24,7.3Q47.16,136,40.13,136a16.73,16.73,0,0,1-12.71-5.22q-4.95-5.22-4.95-14.38a21,21,0,0,1,2.17-9.71,17.26,17.26,0,0,1,5.87-6.7,14.72,14.72,0,0,1,8.32-2.45V66.39a14.72,14.72,0,0,1-8.32-2.45,17.26,17.26,0,0,1-5.87-6.7,21,21,0,0,1-2.17-9.71q0-9.15,4.95-14.38a16.73,16.73,0,0,1,12.71-5.22q7,0,11.33,2.59a14.94,14.94,0,0,1,6.24,7.3,29.84,29.84,0,0,1,1.94,11.37V63.61H81.46V49.19a23.07,23.07,0,0,1,2.22-10.73A14.36,14.36,0,0,1,90,32.13a20.65,20.65,0,0,1,9.52-2.08,18.2,18.2,0,0,1,8.41,1.9,14,14,0,0,1,5.87,5.78,19.9,19.9,0,0,1,2.17,9.8A20.83,20.83,0,0,1,114.19,56a15.8,15.8,0,0,1-4.95,6.38,12.16,12.16,0,0,1-7.54,2.4v34.3a12.16,12.16,0,0,1,7.54,2.4,15.8,15.8,0,0,1,4.95,6.38,20.83,20.83,0,0,1,1.76,8.51A19.9,19.9,0,0,1,113.77,126.2Z"/><path class="cls-2" d="M225.7,96.23a61.87,61.87,0,0,1,3.93-23A34.23,34.23,0,0,1,241,57.88q7.49-5.51,18.28-5.51,10.07,0,16.85,5.75a38.71,38.71,0,0,1,10.71,15.7,90.76,90.76,0,0,1,5.43,22.56v2a87.19,87.19,0,0,1-5.43,21.73,38.88,38.88,0,0,1-10.71,15.5q-6.78,5.75-17,5.75-10.63,0-18.12-5.67a35.33,35.33,0,0,1-11.42-15.5,59.69,59.69,0,0,1-3.93-22.28Zm23.95,1.67A45.65,45.65,0,0,0,251.16,110a18.28,18.28,0,0,0,4.92,8.68q3.41,3.21,9.2,3.21a15.85,15.85,0,0,0,9.36-2.58,16,16,0,0,0,5.55-7.18,32.1,32.1,0,0,0,2.22-10.63V93.29a37.45,37.45,0,0,0-1.31-9.16,21,21,0,0,0-3.17-6.74,13,13,0,0,0-5.15-4.16,17.54,17.54,0,0,0-7.34-1.43,13,13,0,0,0-9.2,3.21,18.22,18.22,0,0,0-5,8.72,46.28,46.28,0,0,0-1.55,12.49ZM279.55,18h24.11V139.76H282l-2.46-19.11Z"/><path class="cls-3" d="M359.28,141.35q-13.56,0-23.2-5.63a38.45,38.45,0,0,1-14.75-15.07,43.05,43.05,0,0,1-5.11-20.86V96.7a51.68,51.68,0,0,1,4.88-22.88A37.64,37.64,0,0,1,335,58.08q9-5.71,21.57-5.71t20.94,5.23a33.08,33.08,0,0,1,12.85,14.71q4.36,9.48,4.36,22.24v10.15H326.3V88.61h44.88v-1.9a18.42,18.42,0,0,0-1.59-7.85,11.84,11.84,0,0,0-4.8-5.31,16.26,16.26,0,0,0-8.36-1.9A13.27,13.27,0,0,0,347,75a19.24,19.24,0,0,0-5.2,9,46.05,46.05,0,0,0-1.62,12.77v3.09a25.91,25.91,0,0,0,2.46,11.58,18.54,18.54,0,0,0,7.06,7.81,20.87,20.87,0,0,0,11.1,2.82,28.87,28.87,0,0,0,11.42-2.26,22.34,22.34,0,0,0,9-7.1l11.58,13.24q-4,5.79-12.49,10.63T359.28,141.35Z"/><path class="cls-4" d="M451.63,115.81a6.42,6.42,0,0,0-1.39-4.12,12.51,12.51,0,0,0-5.11-3.25,68.63,68.63,0,0,0-10.78-3,74.33,74.33,0,0,1-15.58-5.15,28.7,28.7,0,0,1-10.9-8.45,20.11,20.11,0,0,1-4-12.57A23.32,23.32,0,0,1,408,65.93a29.16,29.16,0,0,1,11.86-9.83q7.73-3.73,18.52-3.73,11.26,0,19.43,3.57a28.88,28.88,0,0,1,12.53,9.83,24.51,24.51,0,0,1,4.36,14.35H450.76a10.83,10.83,0,0,0-3-7.89q-3-3.05-9.48-3.05a14.63,14.63,0,0,0-6.11,1.19,9.72,9.72,0,0,0-4,3.13,7.64,7.64,0,0,0-1.39,4.56,6.41,6.41,0,0,0,1.51,4.2,12,12,0,0,0,4.92,3.17,49.51,49.51,0,0,0,9.12,2.38,84.71,84.71,0,0,1,16.49,4.8,29.53,29.53,0,0,1,11.74,8.33q4.36,5.27,4.36,14a22.11,22.11,0,0,1-4.48,13.6,29.54,29.54,0,0,1-12.69,9.4,50.11,50.11,0,0,1-19.31,3.41q-12.13,0-20.46-4.36a32.28,32.28,0,0,1-12.61-11.06,25.13,25.13,0,0,1-4.28-13.68H423.8a11.57,11.57,0,0,0,7.81,10.94,20.89,20.89,0,0,0,7.41,1.27,19.63,19.63,0,0,0,6.94-1.07,9.1,9.1,0,0,0,4.24-3A7.49,7.49,0,0,0,451.63,115.81Z"/><path class="cls-5" d="M536.76,101.06H524.55q-8.72,0-12.61,3.77a12.19,12.19,0,0,0-3.89,9.08,8.64,8.64,0,0,0,2.85,6.66,10.94,10.94,0,0,0,7.69,2.62,17.9,17.9,0,0,0,8.6-1.94,15.86,15.86,0,0,0,5.55-4.68,8.39,8.39,0,0,0,1.86-5l6.19,10.31a43.22,43.22,0,0,1-3.37,6.58,29.19,29.19,0,0,1-5.35,6.34,25.64,25.64,0,0,1-7.89,4.76,29.72,29.72,0,0,1-10.9,1.82,32.84,32.84,0,0,1-14.75-3.29A26.49,26.49,0,0,1,488,128.94a23.53,23.53,0,0,1-3.89-13.36q0-13.48,10-20.9t29.74-7.41H536.6Zm-3.25-18.48q0-5.79-2.85-9.2T521.54,70a14.84,14.84,0,0,0-6.19,1.19,8.77,8.77,0,0,0-4,3.37A10,10,0,0,0,510,79.89H486.09a23,23,0,0,1,4.52-13.84,31.22,31.22,0,0,1,12.77-10,46.83,46.83,0,0,1,19.43-3.73,44.84,44.84,0,0,1,17.84,3.37A27.64,27.64,0,0,1,553,65.85q4.52,6.74,4.52,16.89v35.84a62.71,62.71,0,0,0,.91,12.05,31.54,31.54,0,0,0,2.58,7.77v1.35H536.92a32.66,32.66,0,0,1-2.58-9.12,73.69,73.69,0,0,1-.83-11.1Z"/><path class="cls-6" d="M572.72,31.83A11.63,11.63,0,0,1,576.37,23q3.65-3.45,9.75-3.45T595.84,23a11.69,11.69,0,0,1,3.61,8.84,11.73,11.73,0,0,1-3.61,8.8q-3.61,3.49-9.71,3.49t-9.75-3.49A11.66,11.66,0,0,1,572.72,31.83Zm25.46,107.93h-24V54h24Z"/><path class="cls-7" d="M638.27,139.76H614.32V54h22.52l1.43,18.32Zm-9.83-45.44q0-13,4.2-22.4a33.11,33.11,0,0,1,11.82-14.47,31.13,31.13,0,0,1,17.68-5.08,30.13,30.13,0,0,1,14.16,3.17,21.86,21.86,0,0,1,9.52,10.35q3.45,7.18,3.45,19.47v54.4h-24V85.2q0-5.31-1.55-8.21a8.46,8.46,0,0,0-4.48-4A19.86,19.86,0,0,0,652,71.8a16.57,16.57,0,0,0-7.57,1.63,14.23,14.23,0,0,0-5.31,4.64,21.47,21.47,0,0,0-3.13,7.1,36.06,36.06,0,0,0-1,8.84Z"/><path class="cls-8" d="M769.34,91.41v16.26a58.87,58.87,0,0,1-2.1,16.57,34,34,0,0,1-6,12,25.3,25.3,0,0,1-9.44,7.3A29.75,29.75,0,0,1,739.52,146q-10.78,0-18.4-5.47a34.52,34.52,0,0,1-11.62-14.83,53.12,53.12,0,0,1-4-21.09,52.14,52.14,0,0,1,2-14.43,41.33,41.33,0,0,1,6.07-12.73,30.11,30.11,0,0,1,10.35-9.08,30.8,30.8,0,0,1,14.87-3.41V89a12.63,12.63,0,0,0-7.14,2.1,14.82,14.82,0,0,0-5,5.75,18,18,0,0,0-1.86,8.33q0,7.85,4.24,12.33a14.35,14.35,0,0,0,10.9,4.48,18.68,18.68,0,0,0,9.71-2.22,12.81,12.81,0,0,0,5.35-6.26,25.6,25.6,0,0,0,1.67-9.75V91.41Zm6,12.37a19.78,19.78,0,0,0,1.9,9.2,12.32,12.32,0,0,0,5.39,5.43,17.71,17.71,0,0,0,8.17,1.78,15.6,15.6,0,0,0,7.22-1.63,12,12,0,0,0,5-5,17.05,17.05,0,0,0,1.86-8.41,17.85,17.85,0,0,0-1.51-7.3,13.55,13.55,0,0,0-4.24-5.47,10.43,10.43,0,0,0-6.46-2.06V66.43a27.47,27.47,0,0,1,16.65,5.15,33.84,33.84,0,0,1,10.94,13.84,46.36,46.36,0,0,1,3.89,19.15,53,53,0,0,1-3.77,20.74,30.9,30.9,0,0,1-11.1,13.92q-7.34,5-18.12,5a23.82,23.82,0,0,1-10.78-2.58,29.16,29.16,0,0,1-9.2-7.34,36.09,36.09,0,0,1-6.42-11.5,45.31,45.31,0,0,1-2.38-15.15V91.41h12.93Z"/><path class="cls-9" d="M883.51,141.35q-13.56,0-23.2-5.63a38.45,38.45,0,0,1-14.75-15.07,43.05,43.05,0,0,1-5.11-20.86V96.7a51.68,51.68,0,0,1,4.88-22.88,37.64,37.64,0,0,1,13.92-15.74q9-5.71,21.57-5.71t20.94,5.23A33.08,33.08,0,0,1,914.6,72.32Q919,81.79,919,94.56v10.15H850.52V88.61h44.88v-1.9a18.42,18.42,0,0,0-1.59-7.85,11.84,11.84,0,0,0-4.8-5.31,16.27,16.27,0,0,0-8.37-1.9A13.27,13.27,0,0,0,871.22,75a19.24,19.24,0,0,0-5.19,9A46,46,0,0,0,864.4,96.7v3.09a25.91,25.91,0,0,0,2.46,11.58,18.54,18.54,0,0,0,7.06,7.81A20.87,20.87,0,0,0,885,122a28.87,28.87,0,0,0,11.42-2.26,22.34,22.34,0,0,0,9-7.1l11.58,13.24q-4,5.79-12.49,10.63T883.51,141.35Z"/><path class="cls-10" d="M953.81,18v101.5l-2.46,20.3H929.87V18Zm53.92,79.62a65.68,65.68,0,0,1-3.65,22.76,33,33,0,0,1-11,15.46q-7.37,5.55-18.64,5.55-10.63,0-17.33-5.75A37.55,37.55,0,0,1,946.68,120a98.36,98.36,0,0,1-5.31-22.24v-1.9a99.1,99.1,0,0,1,5.27-22.12A37.26,37.26,0,0,1,957,58.12q6.7-5.75,17.25-5.75,11.34,0,18.75,5.63a33.47,33.47,0,0,1,11.06,15.46,64.25,64.25,0,0,1,3.65,22.44Zm-23.95-1.67a53.53,53.53,0,0,0-1.27-12,17.42,17.42,0,0,0-4.64-8.8q-3.37-3.29-9.71-3.29a18.46,18.46,0,0,0-7.61,1.43,13,13,0,0,0-5.19,4.16,18.85,18.85,0,0,0-3,6.62,37.53,37.53,0,0,0-1.07,8.64V101a34.37,34.37,0,0,0,1.9,11.06,15.15,15.15,0,0,0,5.43,7.34q3.69,2.62,9.71,2.62,6.34,0,9.67-3.13a16.41,16.41,0,0,0,4.56-8.64,58.46,58.46,0,0,0,1.23-12.65Z"/></g></g></svg>