<svg xmlns="http://www.w3.org/2000/svg" xmlns:xlink="http://www.w3.org/1999/xlink" viewBox="0 0 1120.84 776.05"><defs><style>.cls-1{fill:none;}.cls-2{isolation:isolate;}.cls-3{fill:#fff;}.cls-4{clip-path:url(#clip-path);}.cls-5{fill:#e9e2e7;}.cls-6{fill:#6ba8f5;}.cls-7{fill:#ffa19f;}.cls-8{fill:#fe767b;}.cls-9{fill:#92c5ff;}.cls-10{opacity:0.38;mix-blend-mode:multiply;}</style><clipPath id="clip-path" transform="translate(198.49 160.04)"><rect class="cls-1" width="750" height="500"/></clipPath></defs><title>contact</title><g class="cls-2"><g id="BACKGROUND"><rect class="cls-3" x="198.49" y="160.04" width="750" height="500"/></g><g id="OBJECTS"><g class="cls-4"><path class="cls-5" d="M-35.71-40.3C-26,14.82,17,59.65,66.85,85s106.39,34.11,162,40.7,112,11.5,164.8,30.14c56.92,20.11,112.79,63.91,118,124.05,2.48,28.58-6.86,57.68-1.24,85.81,9.43,47.18,58.3,76.86,105.71,85.1s96.14,1,144.09,5S859.74,479,881.31,522a86.87,86.87,0,0,0-58.37-127.84c-48.48-9.84-99.69,22.17-146.8,7.08-35.56-11.39-59-49.6-57.79-86.92,1-32.1,17.43-61.89,20.79-93.83,4.82-45.84-19-92.05-55.62-120.08s-84.24-39.17-130.3-37.19c-36.94,1.58-73.05,11-109.69,16S268.1,84.52,234.66,68.75C182.8,44.28,150.13-15.49,94-27.43c-24.38-5.19-49.64-.29-74.56-.4S-33.11-35-46.17-56.23" transform="translate(198.49 160.04)"/><path class="cls-6" d="M-107,7c1.11,50.13,33.32,95.5,74,124.77s89.37,45,137.32,59.68,96.82,29,139,56.12c23,14.76,45.65,37.71,42.91,64.91-1.93,19.11-16.17,34.73-31.66,46.08s-33,20.07-46.78,33.48c-26.72,26.08-34.83,69.36-19.35,103.34,15.71,34.48,51.69,56.08,88.55,64.86s75.29,6.78,113.18,6.47,76.9,1.35,111.54,16.7L380.53,511c-29.28-17.47-62.11-40.71-62.9-74.8-.45-19.54,10.37-37.64,23.21-52.37s28.09-27.41,39.49-43.29c27-37.55,27.92-91.89,2.28-130.36-27.86-41.81-80-60.8-130-66.36s-100.65-.36-150.5-6.62c-103.64-13-199.31-78.5-248.95-170.41" transform="translate(198.49 160.04)"/><path class="cls-5" d="M-19.35,181.11C31.59,194.65,85,199.54,134,219.05c22.57,9,44.51,21.54,59.36,40.76s21.4,46.17,11.76,68.47c-10.13,23.45-34.64,36.58-56.83,49.25S102.63,406.9,97.95,432c-3.67,19.66,5.41,39.51,16.85,55.91s25.57,31.12,34.25,49.13,10.83,41.14-1.5,56.89c-9.72,12.41-26.07,17.48-41.65,19.93-33.17,5.21-68.53,1.22-97.5-15.76s-50.5-48-51.63-81.56c-1.24-36.7,21-70.46,48-95.38s59.14-43.61,86.71-67.87C106,340.52,120.23,323,116.68,304c-2.64-14.14-15-24.92-28.48-29.82s-28.25-5-42.64-5c-47.51,0-96.09,0-141-15.62s-86.11-50.25-96.14-96.69c-3.21-14.86-2.94-31.13,4.54-44.36,6.28-11.13,19.84-20.9,33.18-19.32,5.25.62,7.15,5.08,9.66,9.12A128.36,128.36,0,0,0-132,118.66a159.91,159.91,0,0,0,30.88,27.06,223.42,223.42,0,0,0,36.87,20,313,313,0,0,0,39.87,14Q-21.85,180.44-19.35,181.11Z" transform="translate(198.49 160.04)"/><path class="cls-7" d="M173.74-37.7a197.15,197.15,0,0,0,82.76,85.53,197.15,197.15,0,0,0,117,21.75c62.85-7.91,117.44-45.32,176-69.34,19.49-8,39.75-14.63,57.53-25.94S640.3-54,644-74.76c4.41-24.77-9.33-50.39-29.75-65.1S567.89-159.75,542.73-160c-37.12-.42-77.8,11.67-97.22,43.31C433.39-97,431.36-72.63,421.72-51.54A98.32,98.32,0,0,1,368.41-1.33a98.32,98.32,0,0,1-73.22-1.26c-13.82-5.9-26-14.9-38.79-22.87S229.86-40.55,214.9-42s-31.35,3.81-39.7,16.3" transform="translate(198.49 160.04)"/><path class="cls-8" d="M812.93-75.9c-32.6.64-65.64,3.1-96.37,14s-59.24,31.16-74.2,60.12-14,67.12,7.25,91.89c16.9,19.74,44.43,29.73,56.88,52.55,11.32,20.75,6.83,46.81-3.17,68.22s-25,40.17-35.37,61.39-15.85,46.91-5.69,68.25c7.4,15.55,22.37,26.69,38.74,32s34.08,5.38,51.14,3c62.8-8.71,119.44-50.85,148-107.45s29.22-126,3.95-184.11S828.67-20.48,769.57-43.44" transform="translate(198.49 160.04)"/><path class="cls-9" d="M451.88,535.21c-27.7-13.95-56.14-28.54-76.28-52.12s-30.09-58.68-15.82-86.22c14.82-28.6,50.39-41.1,67-68.71a65,65,0,0,0,3.77-58.54c-4-9.08-10.05-17.21-13.15-26.62s-2.36-21.21,5.4-27.38c5.65-4.5,13.83-4.85,20.6-2.32s12.33,7.54,17.07,13a94.62,94.62,0,0,1,21.78,45.91c6.48,37.86-10.22,78.67,4.2,114.27,13.41,33.12,49.6,50.77,84.17,59.81s71.43,12.85,102,31.35c11.7,7.08,22.74,17.11,25.8,30.44,3.26,14.22-3.6,29.37-14.42,39.15s-25,15-39.19,18.4c-61.38,14.83-129.42-1.24-177.68-42" transform="translate(198.49 160.04)"/><path class="cls-9" d="M609.61-15.56a214.6,214.6,0,0,0-68.11,45.9c-6.33,6.34-12.72,15-9.87,23.48,1.79,5.34,6.92,9,12.27,10.71s11.06,2,16.62,2.86c24.33,3.71,46,19.08,60.35,39.07s21.9,44.26,24.93,68.68c1,8.08,1.79,16.83,7.2,22.9,6.89,7.73,19.9,8.06,28.27,2s12.17-17.2,11.16-27.51-6.25-19.82-13-27.71-14.87-14.38-22.85-21c-12-9.92-23.78-20.36-32.62-33.17S609.45,62.29,611,46.8c1.16-12,6.53-23.19,13-33.33,2.93-4.58,6.15-9.11,7.56-14.36s.57-11.52-3.6-15c-4-3.31-9.91-3.26-14.65-1.22S604.74-11.4,601-7.79" transform="translate(198.49 160.04)"/><path class="cls-9" d="M-25.22,336.27c11.46-17.66,29.39-30.13,48-40,10.61-5.66,22-10.73,34-11.15s24.9,4.73,30.66,15.29c4.75,8.72,3.9,19.69-.19,28.74s-11,16.48-18.34,23.21c-10.74,9.9-22.71,18.78-36.37,24S3.3,382.76-10.36,377.6s-25-17.38-27-31.85" transform="translate(198.49 160.04)"/><path class="cls-9" d="M122.13,439.65c.92-11.62,4.2-23.82,12.91-31.57s24-8.73,31.19.46c4.24,5.43,4.77,13,3.54,19.75s-4,13.19-5.72,19.86c-6,23.17,1.48,49.35,18.86,65.82,5.89,5.58,13.31,11,14.09,19.1a13.47,13.47,0,0,1-23.06,10.77c-2.75-2.66-3.13-6.38-6.29-8.69a113.3,113.3,0,0,1-19.74-18,110.52,110.52,0,0,1-23.65-47.65,102.78,102.78,0,0,1-2.33-26.59Q122,441.3,122.13,439.65Z" transform="translate(198.49 160.04)"/><path class="cls-9" d="M238.82,263.79a50.31,50.31,0,0,1-7.88,89.08c-5.32,2.17-13.06,2.45-15.13-2.9-1.49-3.87,1.15-8,3.34-11.48,15.38-24.85,9.75-60.59-12.52-79.51-3.91-3.32-8.73-7.37-7.7-12.39.76-3.68,4.7-6,8.46-6.12S214.7,242,218,243.84A92.5,92.5,0,0,1,250,273.32" transform="translate(198.49 160.04)"/><path class="cls-9" d="M-2,88.64a159.85,159.85,0,0,0,86.15,28.73c1.65.05,3.58-.06,4.5-1.42,1.14-1.69-.09-3.93-1.38-5.5C75,95.56,56.17,88.26,39.35,78.9a190.91,190.91,0,0,1-35-25A190.94,190.94,0,0,1-10.8,38.55c-4.78-5.4-8.9-11.44-14-16.56-3.45-3.47-8.29-7.66-13.58-6.22-4.07,1.11-6.75,5-8.17,8.73a22.64,22.64,0,0,0-.57,14.38c1.81,6,6.55,11.44,10.29,16.32A159.56,159.56,0,0,0-6.38,85.47Q-4.23,87.09-2,88.64Z" transform="translate(198.49 160.04)"/><path class="cls-9" d="M402.51,196.39c-6.22,1-12.61-1.36-17.74-5-3.8-2.72-7.28-6.55-7.65-11.2-.48-6,4.56-11.32,10.25-13.28A20.79,20.79,0,0,1,414.1,180.7c1.4,4.68-.61,9.24-4.3,12.31A15.56,15.56,0,0,1,402.51,196.39Z" transform="translate(198.49 160.04)"/><path class="cls-9" d="M512.23,47c-3,5.84-11.62,7.84-16.93,4s-6-12.64-1.45-17.36,13.34-4.26,17.43.89,2.59,13.75-3,17.23" transform="translate(198.49 160.04)"/><path class="cls-9" d="M715.18,491.26c-6.38-.79-11.48-6.87-11.74-13.29a15,15,0,0,1,26.63-10,16.26,16.26,0,0,1,2.7,14c-1,3.65-4.87,5.58-8,7.17A16.8,16.8,0,0,1,715.18,491.26Z" transform="translate(198.49 160.04)"/><path class="cls-7" d="M125.07,124.83a10.28,10.28,0,0,1-13,5.51A10.14,10.14,0,0,1,107,117.21a10,10,0,0,1,13.35-4.33,9.88,9.88,0,0,1,3.25,13.61" transform="translate(198.49 160.04)"/><path class="cls-7" d="M659.46,231.32c-18.73,31.57-34.75,70.22-23.45,107.26,10.46,34.29,42.62,55.47,77,60.31a147.28,147.28,0,0,0,34.44.27c12.08-1.15,24.35-2.76,35.67-7.3,6.82-2.74,6.64-13.89-1.86-13.72-18.64.37-36.78,5-55.56,4.3-15.67-.55-31.57-3.35-45.74-10.33s-25.68-18-31.64-32.68c-6.19-15.26-7.36-32.69-4.9-48.87C646.47,270.33,654,251.07,661,232c.34-.92-1.07-1.45-1.54-.65Z" transform="translate(198.49 160.04)"/><path class="cls-8" d="M222.48-5.26c1,7.33,5.65,13.6,10.73,19,26.61,28.18,66.28,40.41,104.87,44.12C360.24,60,384.66,59,401.7,44.63c3.93-3.3,7.55-7.88,7-13-.5-4.88-4.82-8.68-9.51-10.09s-9.73-.91-14.6-.32c-15.89,1.9-31.78,4.5-47.79,4.28S304.43,22,291.13,13.12c-9.52-6.37-17-15.29-25.79-22.66C258.86-15,251.27-19.7,242.85-21.26a49,49,0,0,0-9.91-1.23c-3.14.11-5.93,2.76-7.61,5.21A17.63,17.63,0,0,0,222.48-5.26Z" transform="translate(198.49 160.04)"/><path class="cls-8" d="M26.8,249.09c14.64.29,29.43-.25,43.79,2.65,8,1.61,17.65,3.78,23.17-2.22,3.08-3.35,3.67-8.48,2.29-12.81s-4.47-7.94-8-10.83c-20.64-17.07-51.83-10.56-76.81-20.22-10.11-3.91-19.62-10.71-30.88-10.51-7.79.14-16.22,4.34-19.25,11.85-2.81,7-.28,14.68,4.16,20.36,6.31,8.07,15.63,13.55,25.23,16.74,10.36,3.45,21.34,4.5,32.19,4.87Q24.76,249,26.8,249.09Z" transform="translate(198.49 160.04)"/><path class="cls-8" d="M39.44,580.73A84,84,0,0,1,4.82,458.81C11.21,449,20,440.35,30.89,436.1S55,432.59,64.3,439.76C75,448,78.4,462.54,79.11,476s-.57,27.27,3.54,40.1c3.85,12,12.36,23,11.7,35.64-.7,13.39-12.32,24.41-25.27,27.88s-26.81.71-39.42-3.84" transform="translate(198.49 160.04)"/><path class="cls-9" d="M257.81,215.53c31.55,10.05,55.94,39.64,59.77,72.53,1.05,9,1.24,19.35,8.21,25.16,5.19,4.32,13,4.56,19.13,1.81s10.87-8.06,14.33-13.86c10-16.78,10.51-38.19,4-56.62S343.84,210.47,328.81,198a158.19,158.19,0,0,0-42.51-25.17,163.12,163.12,0,0,0-48.15-11.15,156.91,156.91,0,0,0-24.77.1c-6.71.56-15.06.7-20.21,5.69-9.14,8.86-2.08,23.19,6.26,29.62,15,11.57,34.48,12.26,52.17,16.7C253.68,214.3,255.76,214.87,257.81,215.53Z" transform="translate(198.49 160.04)"/><path class="cls-9" d="M143.32,177.07c-4,5.11-12.53,5.79-17.39,1.45s-5.17-12.77-.72-17.52,12.81-5,17.61-.59a13.29,13.29,0,0,1,1.09,17.67" transform="translate(198.49 160.04)"/><path class="cls-9" d="M255.33,531.1a85.46,85.46,0,0,1-11.2-141.48c8.49-6.72,19.44-12,29.92-9.22,12,3.16,19.25,16,20.63,28.37s-1.67,24.73-3.05,37.09-.81,25.85,6.68,35.79c5.52,7.33,14,11.67,21.59,16.83s15,12.18,16.05,21.29c1.51,12.7-10.5,23.78-23.09,26s-25.33-2-37.41-6.2" transform="translate(198.49 160.04)"/><path class="cls-5" d="M439.2,489.39c-21.63-11.86-39.82-31.52-45.8-55.45-3-11.86-2.81-24.72,1.85-36s14.11-20.85,25.84-24.31,25.53-.13,33.45,9.18c13.61,16,6.6,41.81,17.69,59.65,6.64,10.68,18.77,16.7,30.87,20.11s24.76,4.72,36.65,8.8c8.8,3,17.94,8.57,20.07,17.63,2.6,11.13-7.29,22.06-18.37,24.87-7.53,1.91-15.47,1.11-23-.55-5-1.1-9-3.92-13.79-5.4-6.68-2.05-14.16-2.09-21-3.36a172.08,172.08,0,0,1-21.6-5.39A131.7,131.7,0,0,1,439.2,489.39Z" transform="translate(198.49 160.04)"/><path class="cls-5" d="M435.9,342.6a17.2,17.2,0,0,1,8.17-7.11c3.56-1.66,7.91-2.52,11.32-.57,3.07,1.76,4.63,5.46,4.7,9,.12,5.87-3.72,11.74-9.3,13.57-5,1.64-9.67-.41-13.48-3.58C434,351.15,434,346.28,435.9,342.6Z" transform="translate(198.49 160.04)"/><path class="cls-5" d="M447.2,249.16a8.77,8.77,0,1,0-.4.13" transform="translate(198.49 160.04)"/><path class="cls-7" d="M99.47,75c9.58,3.65,19.66,6.75,29.89,6.12s20.71-5.66,25.42-14.77,2.71-20.69-2.78-29.41-14-15.12-22.57-20.78A233.79,233.79,0,0,0,103.91,1.59,214.19,214.19,0,0,0,76.59-9.56a191.93,191.93,0,0,0-28.4-7c-9.72-1.61-19.86-2.77-29.73-2.31-6.14.29-11.78,3-13.9,9.07C2.53-4,4,2.71,6.69,8.11c3.64,7.41,10.2,13.33,16.08,19A214.61,214.61,0,0,0,44.34,45.14,228.52,228.52,0,0,0,68,60.3,238.34,238.34,0,0,0,93.37,72.58Q96.4,73.83,99.47,75Z" transform="translate(198.49 160.04)"/><path class="cls-7" d="M420.84,134.8c2.4,8.21,8.79,14.77,16.08,19.25,19.76,12.14,45.68,10.65,65.34,23,15.53,9.71,25.07,26.93,29.78,44.63,3.33,12.54,5.49,27.06,16.22,34.34,12.21,8.28,29.75,2.11,39.45-9s14-26.3,13.55-41-5.34-29.08-12.22-42.13a139.6,139.6,0,0,0-26.89-35.46,149.12,149.12,0,0,0-36.67-25.78C511.7,95.7,497.09,91.39,482,88.68c-5.58-1-11.27-1.77-16.93-1-6,.86-11.78,3.21-17.41,5.41-7.65,3-14.62,6.27-20,12.77a34,34,0,0,0-7.84,22.86A26.48,26.48,0,0,0,420.84,134.8Z" transform="translate(198.49 160.04)"/><path class="cls-7" d="M539.05,320.18a53.22,53.22,0,0,0,19.19,50.88c7.14,5.55,15.63,9.17,22.71,14.78,10.39,8.22,17.08,20.11,25.41,30.41s19.85,19.68,33.09,19.36c8.89-.21,18.42-6.73,18.2-15.62-.24-9.68-10.73-15.27-19.54-19.3a267.75,267.75,0,0,1-33-18c-9.45-6.06-19.47-14.43-19.53-25.66-.07-12.18,11.5-20.95,16.27-32.16a30.2,30.2,0,0,0-15-39.26,26.11,26.11,0,0,0-15.15-1.71c-5.43,1-9.94,2.23-14.15,5.68a54.51,54.51,0,0,0-11.35,12.75A51,51,0,0,0,539.05,320.18Z" transform="translate(198.49 160.04)"/><path class="cls-7" d="M687.87,304.63c-.59,13.09,1.86,27.31,11.29,36.41,11.06,10.67,29.33,11.12,43,4s23.19-20.23,29.74-34.13c6.28-13.34,10.29-28.11,8.89-42.79-1.08-11.29-5.64-22.51-13.58-30.72C759,229,747.56,225,735.88,225.39c-7.82.24-13.75,3.86-18.66,9.79a153.34,153.34,0,0,0-18,27.28,103.69,103.69,0,0,0-11,37.26Q688,302.17,687.87,304.63Z" transform="translate(198.49 160.04)"/><path class="cls-7" d="M677.41,12.82c-7.3,24,1.12,51.95,20.43,67.91,8.72,7.21,19.56,12.32,25.85,21.72,7.15,10.68,6.88,24.43,8.14,37.22.83,8.43,3.44,18.1,11.24,21.4,6,2.54,13,.25,18.54-3.1C783.9,144.6,793,116.33,792.86,90.33a136,136,0,0,0-6.91-41.94,145.06,145.06,0,0,0-19.28-38.25c-8.34-11.82-18.54-22-29.63-31.27-4.1-3.42-8.73-6.87-14.21-7.43-6.18-.63-12.17,2.42-17.27,5.57A65.75,65.75,0,0,0,679.12,8Q678.16,10.36,677.41,12.82Z" transform="translate(198.49 160.04)"/><path class="cls-8" d="M467.27,117.66c-4.88,4.07-7.94,10.6-6.87,16.87,1.1,6.43,6.19,11.53,11.87,14.74,7.89,4.46,17.75,6,26.15,2.6s14.7-12.3,13.65-21.3c-.76-6.55-5.19-12.33-10.82-15.76a31.5,31.5,0,0,0-14.67-4.53c-3.88-.14-7.8,1.73-11.38,3A25.46,25.46,0,0,0,467.27,117.66Z" transform="translate(198.49 160.04)"/><path class="cls-8" d="M567,209.15a9.09,9.09,0,0,0-8.76,7.44,10.08,10.08,0,0,0,5.45,10.35,11.35,11.35,0,0,0,11.79-1.39c3.91-3.1,5.43-9.13,2.84-13.38s-9.35-5.45-12.83-1.88" transform="translate(198.49 160.04)"/><path class="cls-8" d="M65.27,40.48A63.73,63.73,0,0,0,88.56,51.66c4.6,1.14,9.79,1.67,13.8-.87,3.55-2.25,5.41-6.6,5.46-10.81s-1.48-8.29-3.49-12C97.88,16.15,86.14,7.71,73.13,4.55c-4.51-1.09-9.87-2-13.93.89C54.43,8.8,51.85,16.2,52.57,21.79,53.57,29.57,59.27,35.89,65.27,40.48Z" transform="translate(198.49 160.04)"/><path class="cls-5" d="M353.23,273c0,5.56-4.26,11.54-9.8,11.13-4.51-.33-7.72-4.46-9.86-8.45-2.25-4.2-4-8.93-3.32-13.64.84-5.49,6.07-10.5,11.83-8.56,4.65,1.57,6.4,4.55,8.07,8.8C351.54,265.83,353.2,269.13,353.23,273Z" transform="translate(198.49 160.04)"/><path class="cls-5" d="M233,434.4c-1.89,7.75-1.82,16.25,1.82,23.34s11.36,12.36,19.3,11.62c9.68-.91,16.53-9.77,21-18.38,5-9.49,8.72-20.3,6.67-30.82A25.46,25.46,0,0,0,274.74,407c-3.14-3.09-8.06-6.16-12.63-6.18-4.27,0-8.72,3.88-11.83,6.43a52,52,0,0,0-10.36,11.48A49.81,49.81,0,0,0,233,434.4Z" transform="translate(198.49 160.04)"/><g class="cls-10"><path class="cls-5" d="M-40.71-40.3C-31,14.82,12,59.65,61.85,85s106.39,34.11,162,40.7,112,11.5,164.8,30.14c56.92,20.11,112.79,63.91,118,124.05,2.48,28.58-6.86,57.68-1.24,85.81,9.43,47.18,58.3,76.86,105.71,85.1s96.14,1,144.09,5S854.74,479,876.31,522a86.87,86.87,0,0,0-58.37-127.84c-48.48-9.84-99.69,22.17-146.8,7.08-35.56-11.39-59-49.6-57.79-86.92,1-32.1,17.43-61.89,20.79-93.83,4.82-45.84-19-92.05-55.62-120.08s-84.24-39.17-130.3-37.19c-36.94,1.58-73.05,11-109.69,16S263.1,84.52,229.66,68.75C177.8,44.28,145.13-15.49,89-27.43c-24.38-5.19-49.64-.29-74.56-.4S-38.11-35-51.17-56.23" transform="translate(198.49 160.04)"/><path class="cls-6" d="M-112,7c1.11,50.13,33.32,95.5,74,124.77s89.37,45,137.32,59.68,96.82,29,139,56.12c23,14.76,45.65,37.71,42.91,64.91-1.93,19.11-16.17,34.73-31.66,46.08s-33,20.07-46.78,33.48c-26.72,26.08-34.83,69.36-19.35,103.34,15.71,34.48,51.69,56.08,88.55,64.86s75.29,6.78,113.18,6.47,76.9,1.35,111.54,16.7L375.53,511c-29.28-17.47-62.11-40.71-62.9-74.8-.45-19.54,10.37-37.64,23.21-52.37s28.09-27.41,39.49-43.29c27-37.55,27.92-91.89,2.28-130.36-27.86-41.81-80-60.8-130-66.36S147,143.5,97.17,137.24c-103.64-13-199.31-78.5-248.95-170.41" transform="translate(198.49 160.04)"/><path class="cls-5" d="M-24.35,181.11C26.59,194.65,80,199.54,129,219.05c22.57,9,44.51,21.54,59.36,40.76s21.4,46.17,11.76,68.47c-10.13,23.45-34.64,36.58-56.83,49.25S97.63,406.9,92.95,432c-3.67,19.66,5.41,39.51,16.85,55.91s25.57,31.12,34.25,49.13,10.83,41.14-1.5,56.89c-9.72,12.41-26.07,17.48-41.65,19.93-33.17,5.21-68.53,1.22-97.5-15.76s-50.5-48-51.63-81.56c-1.24-36.7,21-70.46,48-95.38s59.14-43.61,86.71-67.87C101,340.52,115.23,323,111.68,304,109,289.82,96.72,279,83.2,274.13s-28.25-5-42.64-5c-47.51,0-96.09,0-141-15.62s-86.11-50.25-96.14-96.69c-3.21-14.86-2.94-31.13,4.54-44.36,6.28-11.13,19.84-20.9,33.18-19.32,5.25.62,7.15,5.08,9.66,9.12A128.36,128.36,0,0,0-137,118.66a159.91,159.91,0,0,0,30.88,27.06,223.42,223.42,0,0,0,36.87,20,313,313,0,0,0,39.87,14Q-26.85,180.44-24.35,181.11Z" transform="translate(198.49 160.04)"/><path class="cls-7" d="M168.74-37.7a197.15,197.15,0,0,0,82.76,85.53,197.15,197.15,0,0,0,117,21.75c62.85-7.91,117.44-45.32,176-69.34,19.49-8,39.75-14.63,57.53-25.94S635.3-54,639-74.76c4.41-24.77-9.33-50.39-29.75-65.1S562.89-159.75,537.73-160c-37.12-.42-77.8,11.67-97.22,43.31C428.39-97,426.36-72.63,416.72-51.54A98.32,98.32,0,0,1,363.41-1.33a98.32,98.32,0,0,1-73.22-1.26c-13.82-5.9-26-14.9-38.79-22.87S224.86-40.55,209.9-42s-31.35,3.81-39.7,16.3" transform="translate(198.49 160.04)"/><path class="cls-8" d="M807.93-75.9c-32.6.64-65.64,3.1-96.37,14s-59.24,31.16-74.2,60.12-14,67.12,7.25,91.89c16.9,19.74,44.43,29.73,56.88,52.55,11.32,20.75,6.83,46.81-3.17,68.22s-25,40.17-35.37,61.39-15.85,46.91-5.69,68.25c7.4,15.55,22.37,26.69,38.74,32s34.08,5.38,51.14,3c62.8-8.71,119.44-50.85,148-107.45s29.22-126,3.95-184.11S823.67-20.48,764.57-43.44" transform="translate(198.49 160.04)"/><path class="cls-9" d="M446.88,535.21c-27.7-13.95-56.14-28.54-76.28-52.12s-30.09-58.68-15.82-86.22c14.82-28.6,50.39-41.1,67-68.71a65,65,0,0,0,3.77-58.54c-4-9.08-10.05-17.21-13.15-26.62s-2.36-21.21,5.4-27.38c5.65-4.5,13.83-4.85,20.6-2.32s12.33,7.54,17.07,13a94.62,94.62,0,0,1,21.78,45.91c6.48,37.86-10.22,78.67,4.2,114.27,13.41,33.12,49.6,50.77,84.17,59.81s71.43,12.85,102,31.35c11.7,7.08,22.74,17.11,25.8,30.44,3.26,14.22-3.6,29.37-14.42,39.15s-25,15-39.19,18.4c-61.38,14.83-129.42-1.24-177.68-42" transform="translate(198.49 160.04)"/><path class="cls-9" d="M604.61-15.56a214.6,214.6,0,0,0-68.11,45.9c-6.33,6.34-12.72,15-9.87,23.48,1.79,5.34,6.92,9,12.27,10.71s11.06,2,16.62,2.86c24.33,3.71,46,19.08,60.35,39.07s21.9,44.26,24.93,68.68c1,8.08,1.79,16.83,7.2,22.9,6.89,7.73,19.9,8.06,28.27,2s12.17-17.2,11.16-27.51-6.25-19.82-13-27.71-14.87-14.38-22.85-21c-12-9.92-23.78-20.36-32.62-33.17S604.45,62.29,606,46.8c1.16-12,6.53-23.19,13-33.33,2.93-4.58,6.15-9.11,7.56-14.36s.57-11.52-3.6-15c-4-3.31-9.91-3.26-14.65-1.22S599.74-11.4,596-7.79" transform="translate(198.49 160.04)"/><path class="cls-9" d="M-30.22,336.27c11.46-17.66,29.39-30.13,48-40,10.61-5.66,22-10.73,34-11.15s24.9,4.73,30.66,15.29c4.75,8.72,3.9,19.69-.19,28.74s-11,16.48-18.34,23.21c-10.74,9.9-22.71,18.78-36.37,24s-29.19,6.46-42.85,1.29-25-17.38-27-31.85" transform="translate(198.49 160.04)"/><path class="cls-9" d="M117.13,439.65c.92-11.62,4.2-23.82,12.91-31.57s24-8.73,31.19.46c4.24,5.43,4.77,13,3.54,19.75s-4,13.19-5.72,19.86c-6,23.17,1.48,49.35,18.86,65.82,5.89,5.58,13.31,11,14.09,19.1a13.47,13.47,0,0,1-23.06,10.77c-2.75-2.66-3.13-6.38-6.29-8.69a113.3,113.3,0,0,1-19.74-18,110.52,110.52,0,0,1-23.65-47.65,102.78,102.78,0,0,1-2.33-26.59Q117,441.3,117.13,439.65Z" transform="translate(198.49 160.04)"/><path class="cls-9" d="M233.82,263.79a50.31,50.31,0,0,1-7.88,89.08c-5.32,2.17-13.06,2.45-15.13-2.9-1.49-3.87,1.15-8,3.34-11.48,15.38-24.85,9.75-60.59-12.52-79.51-3.91-3.32-8.73-7.37-7.7-12.39.76-3.68,4.7-6,8.46-6.12S209.7,242,213,243.84A92.5,92.5,0,0,1,245,273.32" transform="translate(198.49 160.04)"/><path class="cls-9" d="M-7,88.64a159.85,159.85,0,0,0,86.15,28.73c1.65.05,3.58-.06,4.5-1.42,1.14-1.69-.09-3.93-1.38-5.5C70,95.56,51.17,88.26,34.35,78.9a190.91,190.91,0,0,1-35-25A190.94,190.94,0,0,1-15.8,38.55c-4.78-5.4-8.9-11.44-14-16.56-3.45-3.47-8.29-7.66-13.58-6.22-4.07,1.11-6.75,5-8.17,8.73a22.64,22.64,0,0,0-.57,14.38c1.81,6,6.55,11.44,10.29,16.32A159.56,159.56,0,0,0-11.38,85.47Q-9.23,87.09-7,88.64Z" transform="translate(198.49 160.04)"/><path class="cls-9" d="M397.51,196.39c-6.22,1-12.61-1.36-17.74-5-3.8-2.72-7.28-6.55-7.65-11.2-.48-6,4.56-11.32,10.25-13.28A20.79,20.79,0,0,1,409.1,180.7c1.4,4.68-.61,9.24-4.3,12.31A15.56,15.56,0,0,1,397.51,196.39Z" transform="translate(198.49 160.04)"/><path class="cls-9" d="M507.23,47c-3,5.84-11.62,7.84-16.93,4s-6-12.64-1.45-17.36,13.34-4.26,17.43.89,2.59,13.75-3,17.23" transform="translate(198.49 160.04)"/><path class="cls-9" d="M710.18,491.26c-6.38-.79-11.48-6.87-11.74-13.29a15,15,0,0,1,26.63-10,16.26,16.26,0,0,1,2.7,14c-1,3.65-4.87,5.58-8,7.17A16.8,16.8,0,0,1,710.18,491.26Z" transform="translate(198.49 160.04)"/><path class="cls-7" d="M120.07,124.83a10.28,10.28,0,0,1-13,5.51A10.14,10.14,0,0,1,102,117.21a10,10,0,0,1,13.35-4.33,9.88,9.88,0,0,1,3.25,13.61" transform="translate(198.49 160.04)"/><path class="cls-7" d="M659.77,231.41c-20.65,29-40.06,70.13-28.76,107.17,10.46,34.29,42.62,55.47,77,60.31a147.28,147.28,0,0,0,34.44.27c12.08-1.15,24.35-2.76,35.67-7.3,6.82-2.74,6.64-13.89-1.86-13.72-18.64.37-36.78,5-55.56,4.3-15.67-.55-31.57-3.35-45.74-10.33s-25.68-18-31.64-32.68c-6.19-15.26-7.36-32.69-4.9-48.87,3.08-20.23,14.18-40,21.21-59.15C659.93,230.49,659.77,231.41,659.77,231.41Z" transform="translate(198.49 160.04)"/><path class="cls-8" d="M217.48-5.26c1,7.33,5.65,13.6,10.73,19,26.61,28.18,66.28,40.41,104.87,44.12C355.24,60,379.66,59,396.7,44.63c3.93-3.3,7.55-7.88,7-13-.5-4.88-4.82-8.68-9.51-10.09s-9.73-.91-14.6-.32c-15.89,1.9-31.78,4.5-47.79,4.28S299.43,22,286.13,13.12c-9.52-6.37-17-15.29-25.79-22.66C253.86-15,246.27-19.7,237.85-21.26a49,49,0,0,0-9.91-1.23c-3.14.11-5.93,2.76-7.61,5.21A17.63,17.63,0,0,0,217.48-5.26Z" transform="translate(198.49 160.04)"/><path class="cls-8" d="M21.8,249.09c14.64.29,29.43-.25,43.79,2.65,8,1.61,17.65,3.78,23.17-2.22,3.08-3.35,3.67-8.48,2.29-12.81s-4.47-7.94-8-10.83C62.44,208.8,31.26,215.31,6.27,205.65c-10.11-3.91-19.62-10.71-30.88-10.51-7.79.14-16.22,4.34-19.25,11.85-2.81,7-.28,14.68,4.16,20.36,6.31,8.07,15.63,13.55,25.23,16.74,10.36,3.45,21.34,4.5,32.19,4.87Q19.76,249,21.8,249.09Z" transform="translate(198.49 160.04)"/><path class="cls-8" d="M34.44,580.73A84,84,0,0,1-.18,458.81C6.21,449,15,440.35,25.89,436.1S50,432.59,59.3,439.76C70,448,73.4,462.54,74.11,476s-.57,27.27,3.54,40.1c3.85,12,12.36,23,11.7,35.64-.7,13.39-12.32,24.41-25.27,27.88s-26.81.71-39.42-3.84" transform="translate(198.49 160.04)"/><path class="cls-9" d="M252.81,215.53c31.55,10.05,55.94,39.64,59.77,72.53,1.05,9,1.24,19.35,8.21,25.16,5.19,4.32,13,4.56,19.13,1.81s10.87-8.06,14.33-13.86c10-16.78,10.51-38.19,4-56.62S338.84,210.47,323.81,198a158.19,158.19,0,0,0-42.51-25.17,163.12,163.12,0,0,0-48.15-11.15,156.91,156.91,0,0,0-24.77.1c-6.71.56-15.06.7-20.21,5.69-9.14,8.86-2.08,23.19,6.26,29.62,15,11.57,34.48,12.26,52.17,16.7C248.68,214.3,250.76,214.87,252.81,215.53Z" transform="translate(198.49 160.04)"/><path class="cls-9" d="M138.32,177.07c-4,5.11-12.53,5.79-17.39,1.45s-5.17-12.77-.72-17.52,12.81-5,17.61-.59a13.29,13.29,0,0,1,1.09,17.67" transform="translate(198.49 160.04)"/><path class="cls-9" d="M250.33,531.1a85.46,85.46,0,0,1-11.2-141.48c8.49-6.72,19.44-12,29.92-9.22,12,3.16,19.25,16,20.63,28.37s-1.67,24.73-3.05,37.09-.81,25.85,6.68,35.79c5.52,7.33,14,11.67,21.59,16.83s15,12.18,16.05,21.29c1.51,12.7-10.5,23.78-23.09,26s-25.33-2-37.41-6.2" transform="translate(198.49 160.04)"/><path class="cls-5" d="M434.2,489.39c-21.63-11.86-39.82-31.52-45.8-55.45-3-11.86-2.81-24.72,1.85-36s14.11-20.85,25.84-24.31,25.53-.13,33.45,9.18c13.61,16,6.6,41.81,17.69,59.65,6.64,10.68,18.77,16.7,30.87,20.11s24.76,4.72,36.65,8.8c8.8,3,17.94,8.57,20.07,17.63,2.6,11.13-7.29,22.06-18.37,24.87-7.53,1.91-15.47,1.11-23-.55-5-1.1-9-3.92-13.79-5.4-6.68-2.05-14.16-2.09-21-3.36a172.08,172.08,0,0,1-21.6-5.39A131.7,131.7,0,0,1,434.2,489.39Z" transform="translate(198.49 160.04)"/><path class="cls-5" d="M430.9,342.6a17.2,17.2,0,0,1,8.17-7.11c3.56-1.66,7.91-2.52,11.32-.57,3.07,1.76,4.63,5.46,4.7,9,.12,5.87-3.72,11.74-9.3,13.57-5,1.64-9.67-.41-13.48-3.58C429,351.15,429,346.28,430.9,342.6Z" transform="translate(198.49 160.04)"/><path class="cls-5" d="M442.2,249.16a8.77,8.77,0,1,0-.4.13" transform="translate(198.49 160.04)"/><path class="cls-7" d="M94.47,75c9.58,3.65,19.66,6.75,29.89,6.12s20.71-5.66,25.42-14.77,2.71-20.69-2.78-29.41-14-15.12-22.57-20.78A233.79,233.79,0,0,0,98.91,1.59,214.19,214.19,0,0,0,71.59-9.56a191.93,191.93,0,0,0-28.4-7c-9.72-1.61-19.86-2.77-29.73-2.31-6.14.29-11.78,3-13.9,9.07C-2.47-4-1,2.71,1.69,8.11c3.64,7.41,10.2,13.33,16.08,19A214.61,214.61,0,0,0,39.34,45.14,228.52,228.52,0,0,0,63,60.3,238.34,238.34,0,0,0,88.37,72.58Q91.4,73.83,94.47,75Z" transform="translate(198.49 160.04)"/><path class="cls-7" d="M415.84,134.8c2.4,8.21,8.79,14.77,16.08,19.25,19.76,12.14,45.68,10.65,65.34,23,15.53,9.71,25.07,26.93,29.78,44.63,3.33,12.54,5.49,27.06,16.22,34.34,12.21,8.28,29.75,2.11,39.45-9s14-26.3,13.55-41-5.34-29.08-12.22-42.13a139.6,139.6,0,0,0-26.89-35.46,149.12,149.12,0,0,0-36.67-25.78C506.7,95.7,492.09,91.39,477,88.68c-5.58-1-21.07-1.63-34.34,4.45-7.47,3.42-14.62,6.27-20,12.77a34,34,0,0,0-7.84,22.86A26.48,26.48,0,0,0,415.84,134.8Z" transform="translate(198.49 160.04)"/><path class="cls-7" d="M534.05,320.18a53.22,53.22,0,0,0,19.19,50.88c7.14,5.55,15.63,9.17,22.71,14.78,10.39,8.22,17.08,20.11,25.41,30.41s19.85,19.68,33.09,19.36c8.89-.21,18.42-6.73,18.2-15.62-.24-9.68-10.73-15.27-19.54-19.3a267.75,267.75,0,0,1-33-18c-9.45-6.06-19.47-14.43-19.53-25.66-.07-12.18,11.5-20.95,16.27-32.16a30.2,30.2,0,0,0-15-39.26,26.11,26.11,0,0,0-15.15-1.71c-5.43,1-9.94,2.23-14.15,5.68a54.51,54.51,0,0,0-11.35,12.75A51,51,0,0,0,534.05,320.18Z" transform="translate(198.49 160.04)"/><path class="cls-7" d="M682.87,304.63c-.59,13.09,1.86,27.31,11.29,36.41,11.06,10.67,29.33,11.12,43,4s23.19-20.23,29.74-34.13c6.28-13.34,10.29-28.11,8.89-42.79-1.08-11.29-5.64-22.51-13.58-30.72C754,229,742.56,225,730.88,225.39c-7.82.24-13.75,3.86-18.66,9.79a153.34,153.34,0,0,0-18,27.28,103.69,103.69,0,0,0-11,37.26Q683,302.17,682.87,304.63Z" transform="translate(198.49 160.04)"/><path class="cls-7" d="M672.41,12.82c-7.3,24,1.12,51.95,20.43,67.91,8.72,7.21,19.56,12.32,25.85,21.72,7.15,10.68,6.88,24.43,8.14,37.22.83,8.43,3.44,18.1,11.24,21.4,6,2.54,13,.25,18.54-3.1C778.9,144.6,788,116.33,787.86,90.33a136,136,0,0,0-6.91-41.94,145.06,145.06,0,0,0-19.28-38.25c-8.34-11.82-18.54-22-29.63-31.27-4.1-3.42-8.73-6.87-14.21-7.43-6.18-.63-12.17,2.42-17.27,5.57A65.75,65.75,0,0,0,674.12,8Q673.16,10.36,672.41,12.82Z" transform="translate(198.49 160.04)"/><path class="cls-8" d="M462.27,117.66c-4.88,4.07-7.94,10.6-6.87,16.87,1.1,6.43,6.19,11.53,11.87,14.74,7.89,4.46,17.75,6,26.15,2.6s14.7-12.3,13.65-21.3c-.76-6.55-5.19-12.33-10.82-15.76a31.5,31.5,0,0,0-14.67-4.53c-3.88-.14-7.8,1.73-11.38,3A25.46,25.46,0,0,0,462.27,117.66Z" transform="translate(198.49 160.04)"/><path class="cls-8" d="M562,209.15a9.09,9.09,0,0,0-8.76,7.44,10.08,10.08,0,0,0,5.45,10.35,11.35,11.35,0,0,0,11.79-1.39c3.91-3.1,5.43-9.13,2.84-13.38s-9.35-5.45-12.83-1.88" transform="translate(198.49 160.04)"/><path class="cls-8" d="M60.27,40.48A63.73,63.73,0,0,0,83.56,51.66c4.6,1.14,9.79,1.67,13.8-.87,3.55-2.25,5.41-6.6,5.46-10.81s-1.48-8.29-3.49-12C92.88,16.15,81.14,7.71,68.13,4.55c-4.51-1.09-9.87-2-13.93.89C49.43,8.8,46.85,16.2,47.57,21.79,48.57,29.57,54.27,35.89,60.27,40.48Z" transform="translate(198.49 160.04)"/><path class="cls-5" d="M348.23,273c0,5.56-4.26,11.54-9.8,11.13-4.51-.33-7.72-4.46-9.86-8.45-2.25-4.2-4-8.93-3.32-13.64.84-5.49,6.07-10.5,11.83-8.56,4.65,1.57,6.4,4.55,8.07,8.8C346.54,265.83,348.2,269.13,348.23,273Z" transform="translate(198.49 160.04)"/><path class="cls-5" d="M228,434.4c-1.89,7.75-1.82,16.25,1.82,23.34s11.36,12.36,19.3,11.62c9.68-.91,16.53-9.77,21-18.38,5-9.49,8.72-20.3,6.67-30.82A25.46,25.46,0,0,0,269.74,407c-3.14-3.09-8.06-6.16-12.63-6.18-4.27,0-8.72,3.88-11.83,6.43a52,52,0,0,0-10.36,11.48A49.81,49.81,0,0,0,228,434.4Z" transform="translate(198.49 160.04)"/></g></g></g></g></svg>