<svg width="1121" height="777" viewBox="0 0 1121 777" fill="none" xmlns="http://www.w3.org/2000/svg">
<rect width="1116" height="776" fill="white"/>
<path d="M162.817 119.74C172.527 174.86 215.527 219.69 265.377 245.04C315.227 270.39 371.767 279.15 427.377 285.74C482.987 292.33 539.377 297.24 592.177 315.88C649.097 335.99 704.967 379.79 710.177 439.93C712.657 468.51 703.317 497.61 708.937 525.74C718.367 572.92 767.237 602.6 814.647 610.84C862.057 619.08 910.787 611.84 958.737 615.84C1006.69 619.84 1058.27 639.04 1079.84 682.04C1086.58 670.105 1090.39 656.745 1090.98 643.052C1091.57 629.359 1088.9 615.721 1083.21 603.254C1077.52 590.786 1068.96 579.842 1058.23 571.317C1047.5 562.791 1034.9 556.926 1021.47 554.2C972.987 544.36 921.777 576.37 874.667 561.28C839.107 549.89 815.667 511.68 816.877 474.36C817.877 442.26 834.307 412.47 837.667 380.53C842.487 334.69 818.667 288.48 782.047 260.45C745.427 232.42 697.807 221.28 651.747 223.26C614.807 224.84 578.697 234.26 542.057 239.26C505.417 244.26 466.627 244.56 433.187 228.79C381.327 204.32 348.657 144.55 292.527 132.61C268.147 127.42 242.887 132.32 217.967 132.21C193.047 132.1 165.417 125.04 152.357 103.81" fill="#E9E2E7"/>
<path d="M91.5273 167.04C92.6373 217.17 124.847 262.54 165.527 291.81C206.207 321.08 254.897 336.81 302.847 351.49C350.797 366.17 399.667 380.49 441.847 407.61C464.847 422.37 487.497 445.32 484.757 472.52C482.827 491.63 468.587 507.25 453.097 518.6C437.607 529.95 420.097 538.67 406.317 552.08C379.597 578.16 371.487 621.44 386.967 655.42C402.677 689.9 438.657 711.5 475.517 720.28C512.377 729.06 550.807 727.06 588.697 726.75C626.587 726.44 665.597 728.1 700.237 743.45L579.057 671.04C549.777 653.57 516.947 630.33 516.157 596.24C515.707 576.7 526.527 558.6 539.367 543.87C552.207 529.14 567.457 516.46 578.857 500.58C605.857 463.03 606.777 408.69 581.137 370.22C553.277 328.41 501.137 309.42 451.137 303.86C401.137 298.3 350.487 303.5 300.637 297.24C196.997 284.24 101.327 218.74 51.6873 126.83" fill="#6BA8F5"/>
<path d="M179.177 341.15C230.117 354.69 283.527 359.58 332.527 379.09C355.097 388.09 377.037 400.63 391.887 419.85C406.737 439.07 413.287 466.02 403.647 488.32C393.517 511.77 369.007 524.9 346.817 537.57C324.627 550.24 301.157 566.94 296.477 592.04C292.807 611.7 301.887 631.55 313.327 647.95C324.767 664.35 338.897 679.07 347.577 697.08C356.257 715.09 358.407 738.22 346.077 753.97C336.357 766.38 320.007 771.45 304.427 773.9C271.257 779.11 235.897 775.12 206.927 758.14C177.957 741.16 156.427 710.14 155.297 676.58C154.057 639.88 176.297 606.12 203.297 581.2C230.297 556.28 262.437 537.59 290.007 513.33C304.527 500.56 318.757 483.04 315.207 464.04C312.567 449.9 300.207 439.12 286.727 434.22C273.247 429.32 258.477 429.22 244.087 429.22C196.577 429.22 147.997 429.22 103.087 413.6C58.1773 397.98 16.9773 363.35 6.9473 316.91C3.7373 302.05 4.00731 285.78 11.4873 272.55C17.7673 261.42 31.3273 251.65 44.6673 253.23C49.9173 253.85 51.8173 258.31 54.3273 262.35C57.9538 268.115 62.0333 273.582 66.5273 278.7C75.6151 289.009 85.9939 298.104 97.4073 305.76C109.043 313.568 121.387 320.264 134.277 325.76C147.237 331.319 160.557 335.997 174.147 339.76C175.834 340.24 177.511 340.703 179.177 341.15Z" fill="#E9E2E7"/>
<path d="M372.267 122.34C390.384 158.695 419.288 188.566 455.027 207.87C490.856 226.999 531.718 234.595 572.027 229.62C634.877 221.71 689.467 184.3 748.027 160.28C767.517 152.28 787.777 145.65 805.557 134.34C823.337 123.03 838.827 106.04 842.527 85.28C846.937 60.51 833.197 34.89 812.777 20.18C792.357 5.46996 766.417 0.289961 741.257 0.0399614C704.137 -0.380039 663.457 11.71 644.037 43.35C631.917 63.04 629.887 87.41 620.247 108.5C609.606 131.477 590.51 149.463 566.937 158.71C543.279 167.734 517.051 167.283 493.717 157.45C479.897 151.55 467.717 142.55 454.927 134.58C442.137 126.61 428.387 119.49 413.427 118.04C398.467 116.59 382.077 121.85 373.727 134.34" fill="#FFA19F"/>
<path d="M1011.46 84.14C978.857 84.78 945.817 87.24 915.087 98.14C884.357 109.04 855.847 129.3 840.887 158.26C825.927 187.22 826.887 225.38 848.137 250.15C865.037 269.89 892.567 279.88 905.017 302.7C916.337 323.45 911.847 349.51 901.847 370.92C891.847 392.33 876.847 411.09 866.477 432.31C856.107 453.53 850.627 479.22 860.787 500.56C868.187 516.11 883.157 527.25 899.527 532.56C915.897 537.87 933.607 537.94 950.667 535.56C1013.47 526.85 1070.11 484.71 1098.67 428.11C1127.23 371.51 1127.89 302.11 1102.62 244C1077.35 185.89 1027.2 139.56 968.097 116.6" fill="#FE767B"/>
<path d="M650.407 695.25C622.707 681.3 594.267 666.71 574.127 643.13C553.987 619.55 544.037 584.45 558.307 556.91C573.127 528.31 608.697 515.81 625.307 488.2C630.48 479.421 633.517 469.548 634.172 459.379C634.827 449.211 633.081 439.03 629.077 429.66C625.077 420.58 619.027 412.45 615.927 403.04C612.827 393.63 613.567 381.83 621.327 375.66C626.977 371.16 635.157 370.81 641.927 373.34C648.697 375.87 654.257 380.88 658.997 386.34C670.308 399.371 677.839 415.247 680.777 432.25C687.257 470.11 670.557 510.92 684.977 546.52C698.387 579.64 734.577 597.29 769.147 606.33C803.717 615.37 840.577 619.18 871.147 637.68C882.847 644.76 893.887 654.79 896.947 668.12C900.207 682.34 893.347 697.49 882.527 707.27C871.707 717.05 857.527 722.27 843.337 725.67C781.957 740.5 713.917 724.43 665.657 683.67" fill="#92C5FF"/>
<path d="M808.137 144.48C782.691 155.252 759.564 170.838 740.027 190.38C733.697 196.72 727.307 205.38 730.157 213.86C731.947 219.2 737.077 222.86 742.427 224.57C747.777 226.28 753.487 226.57 759.047 227.43C783.377 231.14 805.047 246.51 819.397 266.5C833.747 286.49 841.297 310.76 844.327 335.18C845.327 343.26 846.117 352.01 851.527 358.08C858.417 365.81 871.427 366.14 879.797 360.08C888.167 354.02 891.967 342.88 890.957 332.57C889.947 322.26 884.707 312.75 877.957 304.86C871.207 296.97 863.087 290.48 855.107 283.86C843.107 273.94 831.327 263.5 822.487 250.69C813.647 237.88 807.977 222.33 809.527 206.84C810.687 194.84 816.057 183.65 822.527 173.51C825.457 168.93 828.677 164.4 830.087 159.15C831.497 153.9 830.657 147.63 826.487 144.15C822.487 140.84 816.577 140.89 811.837 142.93C807.097 144.97 803.267 148.64 799.527 152.25" fill="#92C5FF"/>
<path d="M173.307 496.31C184.767 478.65 202.697 466.18 221.307 456.31C231.917 450.65 243.307 445.58 255.307 445.16C267.307 444.74 280.207 449.89 285.967 460.45C290.717 469.17 289.867 480.14 285.777 489.19C281.687 498.24 274.777 505.67 267.437 512.4C256.697 522.3 244.727 531.18 231.067 536.4C217.407 541.62 201.827 542.8 188.167 537.64C174.507 532.48 163.167 520.26 161.167 505.79" fill="#92C5FF"/>
<path d="M320.657 599.69C321.577 588.07 324.857 575.87 333.567 568.12C342.277 560.37 357.567 559.39 364.757 568.58C368.997 574.01 369.527 581.58 368.297 588.33C367.067 595.08 364.297 601.52 362.577 608.19C356.577 631.36 364.057 657.54 381.437 674.01C387.327 679.59 394.747 685.01 395.527 693.11C395.815 695.894 395.228 698.698 393.848 701.134C392.468 703.569 390.364 705.514 387.829 706.698C385.293 707.883 382.451 708.248 379.698 707.742C376.945 707.237 374.418 705.887 372.467 703.88C369.717 701.22 369.337 697.5 366.177 695.19C358.91 689.989 352.284 683.947 346.437 677.19C334.792 663.469 326.673 647.112 322.787 629.54C320.858 620.815 320.075 611.877 320.457 602.95C320.504 601.877 320.571 600.79 320.657 599.69Z" fill="#92C5FF"/>
<path d="M437.347 423.83C445.151 428.771 451.445 435.764 455.538 444.044C459.631 452.324 461.365 461.571 460.551 470.771C459.737 479.972 456.407 488.77 450.924 496.203C445.441 503.636 438.017 509.416 429.467 512.91C424.147 515.08 416.407 515.36 414.337 510.01C412.847 506.14 415.487 502.01 417.677 498.53C433.057 473.68 427.427 437.94 405.157 419.02C401.247 415.7 396.427 411.65 397.457 406.63C398.217 402.95 402.157 400.63 405.917 400.51C409.677 400.39 413.227 402.04 416.527 403.88C429.386 411.023 440.356 421.129 448.527 433.36" fill="#92C5FF"/>
<path d="M196.527 248.68C221.862 266.384 251.787 276.364 282.677 277.41C284.327 277.46 286.257 277.35 287.177 275.99C288.317 274.3 287.087 272.06 285.797 270.49C273.527 255.6 254.697 248.3 237.877 238.94C225.306 231.952 213.565 223.565 202.877 213.94C197.542 209.113 192.484 203.988 187.727 198.59C182.947 193.19 178.827 187.15 173.727 182.03C170.277 178.56 165.437 174.37 160.147 175.81C156.077 176.92 153.397 180.81 151.977 184.54C150.228 189.144 150.028 194.192 151.407 198.92C153.217 204.92 157.957 210.36 161.697 215.24C170.437 226.656 180.68 236.838 192.147 245.51C193.581 246.59 195.041 247.647 196.527 248.68Z" fill="#92C5FF"/>
<path d="M601.037 356.43C594.817 357.43 588.427 355.07 583.297 351.43C579.497 348.71 576.017 344.88 575.647 340.23C575.167 334.23 580.207 328.91 585.897 326.95C588.555 326.033 591.371 325.664 594.176 325.866C596.98 326.068 599.714 326.837 602.213 328.126C604.711 329.415 606.923 331.198 608.713 333.366C610.503 335.534 611.835 338.042 612.627 340.74C614.027 345.42 612.017 349.98 608.327 353.05C606.235 354.795 603.721 355.961 601.037 356.43V356.43Z" fill="#92C5FF"/>
<path d="M710.757 207.04C707.757 212.88 699.137 214.88 693.827 211.04C688.517 207.2 687.827 198.4 692.377 193.68C696.927 188.96 705.717 189.42 709.807 194.57C713.897 199.72 712.397 208.32 706.807 211.8" fill="#92C5FF"/>
<path d="M913.707 651.3C907.327 650.51 902.227 644.43 901.967 638.01C901.854 634.868 902.732 631.769 904.475 629.153C906.219 626.536 908.741 624.534 911.684 623.429C914.628 622.323 917.844 622.171 920.879 622.993C923.914 623.815 926.614 625.57 928.597 628.01C930.081 629.985 931.096 632.272 931.564 634.698C932.031 637.124 931.94 639.624 931.297 642.01C930.297 645.66 926.427 647.59 923.297 649.18C920.383 650.826 917.044 651.564 913.707 651.3V651.3Z" fill="#92C5FF"/>
<path d="M323.597 284.87C322.544 287.275 320.61 289.185 318.193 290.21C315.776 291.234 313.058 291.295 310.597 290.38C308.217 289.273 306.359 287.287 305.413 284.838C304.468 282.389 304.509 279.669 305.527 277.25C306.738 274.92 308.817 273.16 311.315 272.35C313.813 271.539 316.529 271.744 318.877 272.92C319.986 273.599 320.949 274.49 321.713 275.542C322.476 276.594 323.025 277.786 323.327 279.05C323.629 280.315 323.678 281.626 323.472 282.91C323.267 284.193 322.809 285.423 322.127 286.53" fill="#FFA19F"/>
<path d="M857.987 391.36C839.257 422.93 823.237 461.58 834.537 498.62C844.997 532.91 877.157 554.09 911.537 558.93C922.967 560.367 934.526 560.457 945.977 559.2C958.057 558.05 970.327 556.44 981.647 551.9C988.467 549.16 988.287 538.01 979.787 538.18C961.147 538.55 943.007 543.18 924.227 542.48C908.557 541.93 892.657 539.13 878.487 532.15C864.317 525.17 852.807 514.15 846.847 499.47C840.657 484.21 839.487 466.78 841.947 450.6C844.997 430.37 852.527 411.11 859.527 392.04C859.867 391.12 858.457 390.59 857.987 391.39V391.36Z" fill="#FFA19F"/>
<path d="M421.007 154.78C422.007 162.11 426.657 168.38 431.737 173.78C458.347 201.96 498.017 214.19 536.607 217.9C558.767 220.04 583.187 219.04 600.227 204.67C604.157 201.37 607.777 196.79 607.227 191.67C606.727 186.79 602.407 182.99 597.717 181.58C593.027 180.17 587.987 180.67 583.117 181.26C567.227 183.16 551.337 185.76 535.327 185.54C519.317 185.32 502.957 182.04 489.657 173.16C480.137 166.79 472.657 157.87 463.867 150.5C457.387 145.04 449.797 140.34 441.377 138.78C438.124 138.034 434.804 137.621 431.467 137.55C428.327 137.66 425.537 140.31 423.857 142.76C421.489 146.292 420.477 150.561 421.007 154.78V154.78Z" fill="#FE767B"/>
<path d="M225.327 409.13C239.967 409.42 254.757 408.88 269.117 411.78C277.117 413.39 286.767 415.56 292.287 409.56C295.367 406.21 295.957 401.08 294.577 396.75C293.197 392.42 290.107 388.81 286.577 385.92C265.937 368.85 234.747 375.36 209.767 365.7C199.657 361.79 190.147 354.99 178.887 355.19C171.097 355.33 162.667 359.53 159.637 367.04C156.827 374.04 159.357 381.72 163.797 387.4C170.107 395.47 179.427 400.95 189.027 404.14C199.387 407.59 210.367 408.64 221.217 409.01C222.597 409.03 223.967 409.07 225.327 409.13Z" fill="#FE767B"/>
<path d="M237.967 740.77C227.096 735.66 217.447 728.279 209.672 719.122C201.896 709.966 196.175 699.249 192.893 687.694C189.612 676.138 188.847 664.014 190.651 652.138C192.454 640.262 196.784 628.911 203.347 618.85C209.737 609.04 218.527 600.39 229.417 596.14C240.307 591.89 253.527 592.63 262.827 599.8C273.527 608.04 276.927 622.58 277.637 636.04C278.347 649.5 277.067 663.31 281.177 676.14C285.027 688.14 293.537 699.14 292.877 711.78C292.177 725.17 280.557 736.19 267.607 739.66C254.657 743.13 240.797 740.37 228.187 735.82" fill="#FE767B"/>
<path d="M456.337 375.57C487.887 385.62 512.277 415.21 516.107 448.1C517.157 457.1 517.347 467.45 524.317 473.26C529.507 477.58 537.317 477.82 543.447 475.07C549.577 472.32 554.317 467.01 557.777 461.21C567.777 444.43 568.287 423.02 561.777 404.59C555.267 386.16 542.367 370.51 527.337 358.04C514.573 347.475 500.228 338.982 484.827 332.87C469.437 326.729 453.2 322.969 436.677 321.72C428.431 321.101 420.148 321.134 411.907 321.82C405.197 322.38 396.847 322.52 391.697 327.51C382.557 336.37 389.617 350.7 397.957 357.13C412.957 368.7 432.437 369.39 450.127 373.83C452.207 374.34 454.287 374.91 456.337 375.57Z" fill="#92C5FF"/>
<path d="M341.847 337.11C337.847 342.22 329.317 342.9 324.457 338.56C319.597 334.22 319.287 325.79 323.737 321.04C328.187 316.29 336.547 316.04 341.347 320.45C343.668 322.747 345.062 325.818 345.263 329.077C345.464 332.336 344.458 335.555 342.437 338.12" fill="#92C5FF"/>
<path d="M453.857 691.14C441.631 684.268 431.285 674.493 423.73 662.677C416.175 650.861 411.645 637.367 410.538 623.386C409.431 609.405 411.782 595.366 417.384 582.509C422.985 569.651 431.665 558.37 442.657 549.66C451.147 542.94 462.097 537.66 472.577 540.44C484.577 543.6 491.827 556.44 493.207 568.81C494.587 581.18 491.537 593.54 490.157 605.9C488.777 618.26 489.347 631.75 496.837 641.69C502.357 649.02 510.837 653.36 518.427 658.52C526.017 663.68 533.427 670.7 534.477 679.81C535.987 692.51 523.977 703.59 511.387 705.81C498.797 708.03 486.057 703.81 473.977 699.61" fill="#92C5FF"/>
<path d="M637.727 649.43C616.097 637.57 597.907 617.91 591.927 593.98C588.927 582.12 589.117 569.26 593.777 557.98C598.437 546.7 607.887 537.13 619.617 533.67C631.347 530.21 645.147 533.54 653.067 542.85C666.677 558.85 659.667 584.66 670.757 602.5C677.397 613.18 689.527 619.2 701.627 622.61C713.727 626.02 726.387 627.33 738.277 631.41C747.077 634.41 756.217 639.98 758.347 649.04C760.947 660.17 751.057 671.1 739.977 673.91C732.447 675.82 724.507 675.02 716.977 673.36C711.977 672.26 707.977 669.44 703.187 667.96C696.507 665.91 689.027 665.87 682.187 664.6C674.879 663.271 667.663 661.471 660.587 659.21C652.676 656.678 645.022 653.404 637.727 649.43V649.43Z" fill="#E9E2E7"/>
<path d="M634.427 502.64C636.314 499.452 639.179 496.958 642.597 495.53C646.157 493.87 650.507 493.01 653.917 494.96C656.987 496.72 658.547 500.42 658.617 503.96C658.737 509.83 654.897 515.7 649.317 517.53C644.317 519.17 639.647 517.12 635.837 513.95C632.527 511.19 632.527 506.32 634.427 502.64Z" fill="#E9E2E7"/>
<path d="M645.727 409.2C647.904 408.434 649.692 406.841 650.702 404.766C651.712 402.692 651.864 400.302 651.125 398.116C650.385 395.93 648.814 394.124 646.751 393.089C644.689 392.053 642.301 391.873 640.107 392.586C637.912 393.299 636.087 394.849 635.027 396.899C633.967 398.949 633.758 401.334 634.445 403.537C635.132 405.74 636.659 407.584 638.697 408.668C640.734 409.753 643.116 409.99 645.327 409.33" fill="#E9E2E7"/>
<path d="M297.997 235.04C307.577 238.69 317.657 241.79 327.887 241.16C338.117 240.53 348.597 235.5 353.307 226.39C358.017 217.28 356.017 205.7 350.527 196.98C345.037 188.26 336.527 181.86 327.957 176.2C319.765 170.813 311.241 165.947 302.437 161.63C293.598 157.29 284.469 153.564 275.117 150.48C265.842 147.428 256.348 145.087 246.717 143.48C236.997 141.87 226.857 140.71 216.987 141.17C210.847 141.46 205.207 144.17 203.087 150.24C201.057 156.04 202.527 162.75 205.217 168.15C208.857 175.56 215.417 181.48 221.297 187.15C228.085 193.625 235.291 199.648 242.867 205.18C250.435 210.714 258.337 215.777 266.527 220.34C274.734 224.93 283.206 229.031 291.897 232.62C293.917 233.453 295.951 234.26 297.997 235.04Z" fill="#FFA19F"/>
<path d="M619.367 294.84C621.767 303.05 628.157 309.61 635.447 314.09C655.207 326.23 681.127 324.74 700.787 337.09C716.317 346.8 725.857 364.02 730.567 381.72C733.897 394.26 736.057 408.78 746.787 416.06C758.997 424.34 776.537 418.17 786.237 407.06C795.937 395.95 800.237 380.76 799.787 366.06C799.337 351.36 794.447 336.98 787.567 323.93C780.558 310.748 771.479 298.776 760.677 288.47C749.823 278.078 737.46 269.387 724.007 262.69C710.227 255.74 695.617 251.43 680.527 248.72C674.947 247.72 669.257 246.95 663.597 247.72C657.597 248.58 651.817 250.93 646.187 253.13C638.537 256.13 631.567 259.4 626.187 265.9C620.863 272.303 618.073 280.437 618.347 288.76C618.449 290.819 618.792 292.86 619.367 294.84V294.84Z" fill="#FFA19F"/>
<path d="M737.577 480.22C735.906 489.643 736.806 499.342 740.183 508.296C743.56 517.25 749.29 525.128 756.767 531.1C763.907 536.65 772.397 540.27 779.477 545.88C789.867 554.1 796.557 565.99 804.887 576.29C813.217 586.59 824.737 595.97 837.977 595.65C846.867 595.44 856.397 588.92 856.177 580.03C855.937 570.35 845.447 564.76 836.637 560.73C825.229 555.51 814.202 549.496 803.637 542.73C794.187 536.67 784.167 528.3 784.107 517.07C784.037 504.89 795.607 496.12 800.377 484.91C803.465 477.699 803.626 469.57 800.827 462.243C798.027 454.915 792.487 448.965 785.377 445.65C780.61 443.585 775.335 442.99 770.227 443.94C764.797 444.94 760.287 446.17 756.077 449.62C751.648 453.248 747.818 457.55 744.727 462.37C741.234 467.813 738.807 473.87 737.577 480.22Z" fill="#FFA19F"/>
<path d="M886.397 464.67C885.807 477.76 888.257 491.98 897.687 501.08C908.747 511.75 927.017 512.2 940.687 505.08C954.357 497.96 963.877 484.85 970.427 470.95C976.707 457.61 980.717 442.84 979.317 428.16C978.237 416.87 973.677 405.65 965.737 397.44C957.527 389.04 946.087 385.04 934.407 385.43C926.587 385.67 920.657 389.29 915.747 395.22C908.793 403.646 902.758 412.791 897.747 422.5C891.766 434.116 888.034 446.758 886.747 459.76C886.601 461.393 886.484 463.03 886.397 464.67Z" fill="#FFA19F"/>
<path d="M875.937 172.86C868.637 196.86 877.057 224.81 896.367 240.77C905.087 247.98 915.927 253.09 922.217 262.49C929.367 273.17 929.097 286.92 930.357 299.71C931.187 308.14 933.797 317.81 941.597 321.11C947.597 323.65 954.597 321.36 960.137 318.01C982.427 304.64 991.527 276.37 991.387 250.37C991.296 236.114 988.965 221.961 984.477 208.43C979.979 194.796 973.481 181.906 965.197 170.18C956.857 158.36 946.657 148.18 935.567 138.91C931.467 135.49 926.837 132.04 921.357 131.48C915.177 130.85 909.187 133.9 904.087 137.05C892.215 144.32 882.958 155.171 877.647 168.04C877.007 169.613 876.437 171.22 875.937 172.86Z" fill="#FFA19F"/>
<path d="M665.797 277.7C660.917 281.77 657.857 288.3 658.927 294.57C660.027 301 665.117 306.1 670.797 309.31C678.687 313.77 688.547 315.31 696.947 311.91C705.347 308.51 711.647 299.61 710.597 290.61C709.837 284.06 705.407 278.28 699.777 274.85C695.336 272.153 690.296 270.597 685.107 270.32C681.227 270.18 677.307 272.05 673.727 273.32C670.843 274.294 668.158 275.778 665.797 277.7V277.7Z" fill="#FE767B"/>
<path d="M765.527 369.19C763.434 369.231 761.418 369.994 759.822 371.35C758.226 372.705 757.147 374.571 756.767 376.63C756.487 378.708 756.861 380.821 757.838 382.676C758.814 384.531 760.345 386.036 762.217 386.98C764.119 387.859 766.228 388.195 768.309 387.949C770.39 387.704 772.362 386.887 774.007 385.59C777.917 382.49 779.437 376.46 776.847 372.21C774.257 367.96 767.497 366.76 764.017 370.33" fill="#FE767B"/>
<path d="M263.797 200.52C270.716 205.798 278.642 209.602 287.087 211.7C291.687 212.84 296.877 213.37 300.887 210.83C304.437 208.58 306.297 204.23 306.347 200.02C306.397 195.81 304.867 191.73 302.857 188.02C296.407 176.19 284.667 167.75 271.657 164.59C267.147 163.5 261.787 162.59 257.727 165.48C252.957 168.84 250.377 176.24 251.097 181.83C252.097 189.61 257.797 195.93 263.797 200.52Z" fill="#FE767B"/>
<path d="M551.757 433.04C551.757 438.6 547.497 444.58 541.957 444.17C537.447 443.84 534.237 439.71 532.097 435.72C529.847 431.52 528.097 426.79 528.777 422.08C529.617 416.59 534.847 411.58 540.607 413.52C545.257 415.09 547.007 418.07 548.677 422.32C550.067 425.87 551.727 429.17 551.757 433.04Z" fill="#E9E2E7"/>
<path d="M431.527 594.44C429.637 602.19 429.707 610.69 433.347 617.78C436.987 624.87 444.707 630.14 452.647 629.4C462.327 628.49 469.177 619.63 473.647 611.02C478.647 601.53 482.367 590.72 480.317 580.2C479.335 575.207 476.88 570.623 473.267 567.04C470.127 563.95 465.207 560.88 460.637 560.86C456.367 560.86 451.917 564.74 448.807 567.29C444.801 570.579 441.309 574.448 438.447 578.77C435.253 583.554 432.912 588.856 431.527 594.44Z" fill="#E9E2E7"/>
<g style="mix-blend-mode:multiply" opacity="0.38">
<g style="mix-blend-mode:multiply" opacity="0.38">
<path d="M157.817 119.74C167.527 174.86 210.527 219.69 260.377 245.04C310.227 270.39 366.767 279.15 422.377 285.74C477.987 292.33 534.377 297.24 587.177 315.88C644.097 335.99 699.967 379.79 705.177 439.93C707.657 468.51 698.317 497.61 703.937 525.74C713.367 572.92 762.237 602.6 809.647 610.84C857.057 619.08 905.787 611.84 953.737 615.84C1001.69 619.84 1053.27 639.04 1074.84 682.04C1081.58 670.105 1085.39 656.745 1085.98 643.052C1086.57 629.359 1083.9 615.721 1078.21 603.254C1072.52 590.786 1063.96 579.842 1053.23 571.317C1042.5 562.791 1029.9 556.926 1016.47 554.2C967.987 544.36 916.777 576.37 869.667 561.28C834.107 549.89 810.667 511.68 811.877 474.36C812.877 442.26 829.307 412.47 832.667 380.53C837.487 334.69 813.667 288.48 777.047 260.45C740.427 232.42 692.807 221.28 646.747 223.26C609.807 224.84 573.697 234.26 537.057 239.26C500.417 244.26 461.627 244.56 428.187 228.79C376.327 204.32 343.657 144.55 287.527 132.61C263.147 127.42 237.887 132.32 212.967 132.21C188.047 132.1 160.417 125.04 147.357 103.81" fill="#E9E2E7"/>
</g>
<g style="mix-blend-mode:multiply" opacity="0.38">
<path d="M86.5273 167.04C87.6373 217.17 119.847 262.54 160.527 291.81C201.207 321.08 249.897 336.81 297.847 351.49C345.797 366.17 394.667 380.49 436.847 407.61C459.847 422.37 482.497 445.32 479.757 472.52C477.827 491.63 463.587 507.25 448.097 518.6C432.607 529.95 415.097 538.67 401.317 552.08C374.597 578.16 366.487 621.44 381.967 655.42C397.677 689.9 433.657 711.5 470.517 720.28C507.377 729.06 545.807 727.06 583.697 726.75C621.587 726.44 660.597 728.1 695.237 743.45L574.057 671.04C544.777 653.57 511.947 630.33 511.157 596.24C510.707 576.7 521.527 558.6 534.367 543.87C547.207 529.14 562.457 516.46 573.857 500.58C600.857 463.03 601.777 408.69 576.137 370.22C548.277 328.41 496.137 309.42 446.137 303.86C396.137 298.3 345.527 303.54 295.697 297.28C192.057 284.28 96.3873 218.78 46.7473 126.87" fill="#6BA8F5"/>
</g>
<g style="mix-blend-mode:multiply" opacity="0.38">
<path d="M174.177 341.15C225.117 354.69 278.527 359.58 327.527 379.09C350.097 388.09 372.037 400.63 386.887 419.85C401.737 439.07 408.287 466.02 398.647 488.32C388.517 511.77 364.007 524.9 341.817 537.57C319.627 550.24 296.157 566.94 291.477 592.04C287.807 611.7 296.887 631.55 308.327 647.95C319.767 664.35 333.897 679.07 342.577 697.08C351.257 715.09 353.407 738.22 341.077 753.97C331.357 766.38 315.007 771.45 299.427 773.9C266.257 779.11 230.897 775.12 201.927 758.14C172.957 741.16 151.427 710.14 150.297 676.58C149.057 639.88 171.297 606.12 198.297 581.2C225.297 556.28 257.437 537.59 285.007 513.33C299.527 500.56 313.757 483.04 310.207 464.04C307.527 449.86 295.247 439.04 281.727 434.17C268.207 429.3 253.477 429.17 239.087 429.17C191.577 429.17 142.997 429.17 98.0873 413.55C53.1773 397.93 11.9773 363.3 1.9473 316.86C-1.2627 302 -0.992695 285.73 6.48731 272.5C12.7673 261.37 26.3273 251.6 39.6673 253.18C44.9173 253.8 46.8173 258.26 49.3273 262.3C52.9516 268.082 57.0311 273.566 61.5273 278.7C70.6151 289.009 80.9939 298.104 92.4073 305.76C104.043 313.568 116.387 320.264 129.277 325.76C142.237 331.319 155.557 335.997 169.147 339.76C170.834 340.24 172.511 340.703 174.177 341.15Z" fill="#E9E2E7"/>
</g>
<g style="mix-blend-mode:multiply" opacity="0.38">
<path d="M367.267 122.34C385.384 158.695 414.288 188.566 450.027 207.87C485.856 226.999 526.718 234.595 567.027 229.62C629.877 221.71 684.467 184.3 743.027 160.28C762.517 152.28 782.777 145.65 800.557 134.34C818.337 123.03 833.827 106.04 837.527 85.28C841.937 60.51 828.197 34.89 807.777 20.18C787.357 5.46996 761.417 0.289961 736.257 0.0399614C699.137 -0.380039 658.457 11.71 639.037 43.35C626.917 63.04 624.887 87.41 615.247 108.5C604.606 131.477 585.51 149.463 561.937 158.71C538.279 167.734 512.051 167.283 488.717 157.45C474.897 151.55 462.717 142.55 449.927 134.58C437.137 126.61 423.387 119.49 408.427 118.04C393.467 116.59 377.077 121.85 368.727 134.34" fill="#FFA19F"/>
</g>
<g style="mix-blend-mode:multiply" opacity="0.38">
<path d="M1006.46 84.14C973.857 84.78 940.817 87.24 910.087 98.14C879.357 109.04 850.847 129.3 835.887 158.26C820.927 187.22 821.887 225.38 843.137 250.15C860.037 269.89 887.567 279.88 900.017 302.7C911.337 323.45 906.847 349.51 896.847 370.92C886.847 392.33 871.847 411.09 861.477 432.31C851.107 453.53 845.627 479.22 855.787 500.56C863.187 516.11 878.157 527.25 894.527 532.56C910.897 537.87 928.607 537.94 945.667 535.56C1008.47 526.85 1065.11 484.71 1093.67 428.11C1122.23 371.51 1122.89 302.11 1097.62 244C1072.35 185.89 1022.2 139.56 963.097 116.6" fill="#FE767B"/>
</g>
<g style="mix-blend-mode:multiply" opacity="0.38">
<path d="M645.407 695.25C617.707 681.3 589.267 666.71 569.127 643.13C548.987 619.55 539.037 584.45 553.307 556.91C568.127 528.31 603.697 515.81 620.307 488.2C625.48 479.421 628.517 469.548 629.172 459.379C629.827 449.211 628.081 439.03 624.077 429.66C620.077 420.58 614.027 412.45 610.927 403.04C607.827 393.63 608.567 381.83 616.327 375.66C621.977 371.16 630.157 370.81 636.927 373.34C643.697 375.87 649.257 380.88 653.997 386.34C665.308 399.371 672.839 415.247 675.777 432.25C682.257 470.11 665.557 510.92 679.977 546.52C693.387 579.64 729.577 597.29 764.147 606.33C798.717 615.37 835.577 619.18 866.147 637.68C877.847 644.76 888.887 654.79 891.947 668.12C895.207 682.34 888.347 697.49 877.527 707.27C866.707 717.05 852.527 722.27 838.337 725.67C776.957 740.5 708.917 724.43 660.657 683.67" fill="#92C5FF"/>
</g>
<g style="mix-blend-mode:multiply" opacity="0.38">
<path d="M803.137 144.48C777.691 155.252 754.564 170.838 735.027 190.38C728.697 196.72 722.307 205.38 725.157 213.86C726.947 219.2 732.077 222.86 737.427 224.57C742.777 226.28 748.487 226.57 754.047 227.43C778.377 231.14 800.047 246.51 814.397 266.5C828.747 286.49 836.297 310.76 839.327 335.18C840.327 343.26 841.117 352.01 846.527 358.08C853.417 365.81 866.427 366.14 874.797 360.08C883.167 354.02 886.967 342.88 885.957 332.57C884.947 322.26 879.707 312.75 872.957 304.86C866.207 296.97 858.087 290.48 850.107 283.86C838.107 273.94 826.327 263.5 817.487 250.69C808.647 237.88 802.977 222.33 804.527 206.84C805.687 194.84 811.057 183.65 817.527 173.51C820.457 168.93 823.677 164.4 825.087 159.15C826.497 153.9 825.657 147.63 821.487 144.15C817.487 140.84 811.577 140.89 806.837 142.93C802.097 144.97 798.267 148.64 794.527 152.25" fill="#92C5FF"/>
</g>
<g style="mix-blend-mode:multiply" opacity="0.38">
<path d="M168.307 496.31C179.767 478.65 197.697 466.18 216.307 456.31C226.917 450.65 238.307 445.58 250.307 445.16C262.307 444.74 275.207 449.89 280.967 460.45C285.717 469.17 284.867 480.14 280.777 489.19C276.687 498.24 269.777 505.67 262.437 512.4C251.697 522.3 239.727 531.18 226.067 536.4C212.407 541.62 196.877 542.86 183.217 537.69C169.557 532.52 158.217 520.31 156.217 505.84" fill="#92C5FF"/>
</g>
<g style="mix-blend-mode:multiply" opacity="0.38">
<path d="M315.657 599.69C316.577 588.07 319.857 575.87 328.567 568.12C337.277 560.37 352.567 559.39 359.757 568.58C363.997 574.01 364.527 581.58 363.297 588.33C362.067 595.08 359.297 601.52 357.577 608.19C351.577 631.36 359.057 657.54 376.437 674.01C382.327 679.59 389.747 685.01 390.527 693.11C390.815 695.894 390.228 698.698 388.848 701.134C387.468 703.569 385.364 705.514 382.829 706.698C380.293 707.883 377.451 708.248 374.698 707.742C371.945 707.237 369.418 705.887 367.467 703.88C364.717 701.22 364.337 697.5 361.177 695.19C353.91 689.989 347.284 683.947 341.437 677.19C329.792 663.469 321.673 647.112 317.787 629.54C315.858 620.815 315.075 611.877 315.457 602.95C315.504 601.877 315.571 600.79 315.657 599.69Z" fill="#92C5FF"/>
</g>
<g style="mix-blend-mode:multiply" opacity="0.38">
<path d="M432.347 423.83C440.151 428.771 446.445 435.764 450.538 444.044C454.631 452.324 456.365 461.571 455.551 470.771C454.737 479.972 451.407 488.77 445.924 496.203C440.441 503.636 433.017 509.416 424.467 512.91C419.147 515.08 411.407 515.36 409.337 510.01C407.847 506.14 410.487 502.01 412.677 498.53C428.057 473.68 422.427 437.94 400.157 419.02C396.247 415.7 391.427 411.65 392.457 406.63C393.217 402.95 397.157 400.63 400.917 400.51C404.677 400.39 408.227 402.04 411.527 403.88C424.386 411.023 435.356 421.129 443.527 433.36" fill="#92C5FF"/>
</g>
<g style="mix-blend-mode:multiply" opacity="0.38">
<path d="M191.527 248.68C216.862 266.384 246.787 276.364 277.677 277.41C279.327 277.46 281.257 277.35 282.177 275.99C283.317 274.3 282.087 272.06 280.797 270.49C268.527 255.6 249.697 248.3 232.877 238.94C220.306 231.952 208.565 223.565 197.877 213.94C192.542 209.113 187.484 203.988 182.727 198.59C177.947 193.19 173.827 187.15 168.727 182.03C165.277 178.56 160.437 174.37 155.147 175.81C151.077 176.92 148.397 180.81 146.977 184.54C145.228 189.144 145.028 194.192 146.407 198.92C148.217 204.92 152.957 210.36 156.697 215.24C165.437 226.656 175.68 236.838 187.147 245.51C188.581 246.59 190.041 247.647 191.527 248.68Z" fill="#92C5FF"/>
</g>
<g style="mix-blend-mode:multiply" opacity="0.38">
<path d="M596.037 356.43C589.817 357.43 583.427 355.07 578.297 351.43C574.497 348.71 571.017 344.88 570.647 340.23C570.167 334.23 575.207 328.91 580.897 326.95C583.555 326.033 586.371 325.664 589.176 325.866C591.98 326.068 594.714 326.837 597.213 328.126C599.711 329.415 601.923 331.198 603.713 333.366C605.503 335.534 606.835 338.042 607.627 340.74C609.027 345.42 607.017 349.98 603.327 353.05C601.235 354.795 598.721 355.961 596.037 356.43V356.43Z" fill="#92C5FF"/>
</g>
<g style="mix-blend-mode:multiply" opacity="0.38">
<path d="M705.757 207.04C702.757 212.88 694.137 214.88 688.827 211.04C683.517 207.2 682.827 198.4 687.377 193.68C691.927 188.96 700.717 189.42 704.807 194.57C708.897 199.72 707.397 208.32 701.807 211.8" fill="#92C5FF"/>
</g>
<g style="mix-blend-mode:multiply" opacity="0.38">
<path d="M908.707 651.3C902.327 650.51 897.227 644.43 896.967 638.01C896.854 634.868 897.732 631.769 899.475 629.153C901.219 626.536 903.741 624.534 906.684 623.429C909.628 622.323 912.844 622.171 915.879 622.993C918.914 623.815 921.614 625.57 923.597 628.01C925.081 629.985 926.096 632.272 926.564 634.698C927.031 637.124 926.94 639.624 926.297 642.01C925.297 645.66 921.427 647.59 918.297 649.18C915.383 650.826 912.044 651.564 908.707 651.3V651.3Z" fill="#92C5FF"/>
</g>
<g style="mix-blend-mode:multiply" opacity="0.38">
<path d="M318.597 284.87C317.544 287.275 315.61 289.185 313.193 290.21C310.776 291.234 308.058 291.295 305.597 290.38C303.217 289.273 301.359 287.287 300.413 284.838C299.468 282.389 299.509 279.669 300.527 277.25C301.738 274.92 303.817 273.16 306.315 272.35C308.813 271.539 311.529 271.744 313.877 272.92C314.986 273.599 315.949 274.49 316.713 275.542C317.476 276.594 318.025 277.786 318.327 279.05C318.629 280.315 318.678 281.626 318.472 282.91C318.267 284.193 317.809 285.423 317.127 286.53" fill="#FFA19F"/>
</g>
<g style="mix-blend-mode:multiply" opacity="0.38">
<path d="M858.297 391.45C837.647 420.45 818.237 461.58 829.537 498.62C839.997 532.91 872.157 554.09 906.537 558.93C917.967 560.367 929.526 560.457 940.977 559.2C953.057 558.05 965.327 556.44 976.647 551.9C983.467 549.16 983.287 538.01 974.787 538.18C956.147 538.55 938.007 543.18 919.227 542.48C903.557 541.93 887.657 539.13 873.487 532.15C859.317 525.17 847.807 514.15 841.847 499.47C835.657 484.21 834.487 466.78 836.947 450.6C840.027 430.37 851.127 410.6 858.157 391.45C858.457 390.53 858.297 391.45 858.297 391.45Z" fill="#FFA19F"/>
</g>
<g style="mix-blend-mode:multiply" opacity="0.38">
<path d="M416.007 154.78C417.007 162.11 421.657 168.38 426.737 173.78C453.347 201.96 493.017 214.19 531.607 217.9C553.767 220.04 578.187 219.04 595.227 204.67C599.157 201.37 602.777 196.79 602.227 191.67C601.727 186.79 597.407 182.99 592.717 181.58C588.027 180.17 582.987 180.67 578.117 181.26C562.227 183.16 546.337 185.76 530.327 185.54C514.317 185.32 497.957 182.04 484.657 173.16C475.137 166.79 467.657 157.87 458.867 150.5C452.387 145.04 444.797 140.34 436.377 138.78C433.124 138.034 429.804 137.621 426.467 137.55C423.327 137.66 420.537 140.31 418.857 142.76C416.489 146.292 415.477 150.561 416.007 154.78V154.78Z" fill="#FE767B"/>
</g>
<g style="mix-blend-mode:multiply" opacity="0.38">
<path d="M220.327 409.13C234.967 409.42 249.757 408.88 264.117 411.78C272.117 413.39 281.767 415.56 287.287 409.56C290.367 406.21 290.957 401.08 289.577 396.75C288.197 392.42 285.107 388.81 281.577 385.92C260.967 368.84 229.787 375.35 204.797 365.69C194.687 361.78 185.177 354.98 173.917 355.18C166.127 355.32 157.697 359.52 154.667 367.03C151.857 374.03 154.387 381.71 158.827 387.39C165.137 395.46 174.457 400.94 184.057 404.13C194.417 407.58 205.397 408.63 216.247 409C217.607 409.027 218.967 409.07 220.327 409.13Z" fill="#FE767B"/>
</g>
<g style="mix-blend-mode:multiply" opacity="0.38">
<path d="M232.967 740.77C222.096 735.66 212.447 728.279 204.672 719.122C196.896 709.966 191.175 699.249 187.893 687.694C184.612 676.138 183.847 664.014 185.651 652.138C187.454 640.262 191.784 628.911 198.347 618.85C204.737 609.04 213.527 600.39 224.417 596.14C235.307 591.89 248.527 592.63 257.827 599.8C268.527 608.04 271.927 622.58 272.637 636.04C273.347 649.5 272.067 663.31 276.177 676.14C280.027 688.14 288.537 699.14 287.877 711.78C287.177 725.17 275.557 736.19 262.607 739.66C249.657 743.13 235.797 740.37 223.187 735.82" fill="#FE767B"/>
</g>
<g style="mix-blend-mode:multiply" opacity="0.38">
<path d="M451.337 375.57C482.887 385.62 507.277 415.21 511.107 448.1C512.157 457.1 512.347 467.45 519.317 473.26C524.507 477.58 532.317 477.82 538.447 475.07C544.577 472.32 549.317 467.01 552.777 461.21C562.777 444.43 563.287 423.02 556.777 404.59C550.267 386.16 537.367 370.51 522.337 358.04C509.573 347.475 495.228 338.982 479.827 332.87C464.437 326.729 448.2 322.969 431.677 321.72C423.431 321.101 415.148 321.134 406.907 321.82C400.197 322.38 391.847 322.52 386.697 327.51C377.557 336.37 384.617 350.7 392.957 357.13C407.957 368.7 427.437 369.39 445.127 373.83C447.207 374.34 449.287 374.91 451.337 375.57Z" fill="#92C5FF"/>
</g>
<g style="mix-blend-mode:multiply" opacity="0.38">
<path d="M336.847 337.11C332.847 342.22 324.317 342.9 319.457 338.56C314.597 334.22 314.287 325.79 318.737 321.04C323.187 316.29 331.547 316.04 336.347 320.45C338.668 322.747 340.062 325.818 340.263 329.077C340.464 332.336 339.458 335.555 337.437 338.12" fill="#92C5FF"/>
</g>
<g style="mix-blend-mode:multiply" opacity="0.38">
<path d="M448.857 691.14C436.631 684.268 426.285 674.493 418.73 662.677C411.175 650.861 406.645 637.367 405.538 623.386C404.431 609.405 406.782 595.366 412.384 582.509C417.985 569.651 426.665 558.37 437.657 549.66C446.147 542.94 457.097 537.66 467.577 540.44C479.577 543.6 486.827 556.44 488.207 568.81C489.587 581.18 486.537 593.54 485.157 605.9C483.777 618.26 484.347 631.75 491.837 641.69C497.357 649.02 505.837 653.36 513.427 658.52C521.017 663.68 528.427 670.7 529.477 679.81C530.987 692.51 518.977 703.59 506.387 705.81C493.797 708.03 481.057 703.81 468.977 699.61" fill="#92C5FF"/>
</g>
<g style="mix-blend-mode:multiply" opacity="0.38">
<path d="M632.727 649.43C611.097 637.57 592.907 617.91 586.927 593.98C583.927 582.12 584.117 569.26 588.777 557.98C593.437 546.7 602.887 537.13 614.617 533.67C626.347 530.21 640.147 533.54 648.067 542.85C661.677 558.85 654.667 584.66 665.757 602.5C672.397 613.18 684.527 619.2 696.627 622.61C708.727 626.02 721.387 627.33 733.277 631.41C742.077 634.41 751.217 639.98 753.347 649.04C755.947 660.17 746.057 671.1 734.977 673.91C727.447 675.82 719.507 675.02 711.977 673.36C706.977 672.26 702.977 669.44 698.187 667.96C691.507 665.91 684.027 665.87 677.187 664.6C669.879 663.271 662.663 661.471 655.587 659.21C647.676 656.678 640.022 653.404 632.727 649.43V649.43Z" fill="#E9E2E7"/>
</g>
<g style="mix-blend-mode:multiply" opacity="0.38">
<path d="M629.427 502.64C631.314 499.452 634.179 496.958 637.597 495.53C641.157 493.87 645.507 493.01 648.917 494.96C651.987 496.72 653.547 500.42 653.617 503.96C653.737 509.83 649.897 515.7 644.317 517.53C639.317 519.17 634.647 517.12 630.837 513.95C627.527 511.19 627.527 506.32 629.427 502.64Z" fill="#E9E2E7"/>
</g>
<g style="mix-blend-mode:multiply" opacity="0.38">
<path d="M640.727 409.2C642.904 408.434 644.692 406.841 645.702 404.766C646.712 402.692 646.864 400.302 646.125 398.116C645.385 395.93 643.814 394.124 641.751 393.089C639.689 392.053 637.301 391.873 635.107 392.586C632.912 393.299 631.087 394.849 630.027 396.899C628.967 398.949 628.758 401.334 629.445 403.537C630.132 405.74 631.659 407.584 633.697 408.668C635.734 409.753 638.116 409.99 640.327 409.33" fill="#E9E2E7"/>
</g>
<g style="mix-blend-mode:multiply" opacity="0.38">
<path d="M292.997 235.04C302.577 238.69 312.657 241.79 322.887 241.16C333.117 240.53 343.597 235.5 348.307 226.39C353.017 217.28 351.017 205.7 345.527 196.98C340.037 188.26 331.527 181.86 322.957 176.2C314.765 170.813 306.241 165.947 297.437 161.63C288.598 157.29 279.469 153.564 270.117 150.48C260.842 147.428 251.348 145.087 241.717 143.48C231.997 141.87 221.857 140.71 211.987 141.17C205.847 141.46 200.207 144.17 198.087 150.24C196.057 156.04 197.527 162.75 200.217 168.15C203.857 175.56 210.417 181.48 216.297 187.15C223.085 193.625 230.291 199.648 237.867 205.18C245.435 210.714 253.337 215.777 261.527 220.34C269.734 224.93 278.206 229.031 286.897 232.62C288.917 233.453 290.951 234.26 292.997 235.04Z" fill="#FFA19F"/>
</g>
<g style="mix-blend-mode:multiply" opacity="0.38">
<path d="M614.367 294.84C616.767 303.05 623.157 309.61 630.447 314.09C650.207 326.23 676.127 324.74 695.787 337.09C711.317 346.8 720.857 364.02 725.567 381.72C728.897 394.26 731.057 408.78 741.787 416.06C753.997 424.34 771.537 418.17 781.237 407.06C790.937 395.95 795.237 380.76 794.787 366.06C794.337 351.36 789.447 336.98 782.567 323.93C775.558 310.748 766.479 298.776 755.677 288.47C744.823 278.078 732.46 269.387 719.007 262.69C705.227 255.74 690.617 251.43 675.527 248.72C669.947 247.72 654.457 247.09 641.187 253.17C633.717 256.59 626.567 259.44 621.187 265.94C615.863 272.343 613.073 280.477 613.347 288.8C613.453 290.846 613.795 292.873 614.367 294.84Z" fill="#FFA19F"/>
</g>
<g style="mix-blend-mode:multiply" opacity="0.38">
<path d="M732.577 480.22C730.906 489.643 731.806 499.342 735.183 508.296C738.56 517.25 744.29 525.128 751.767 531.1C758.907 536.65 767.397 540.27 774.477 545.88C784.867 554.1 791.557 565.99 799.887 576.29C808.217 586.59 819.737 595.97 832.977 595.65C841.867 595.44 851.397 588.92 851.177 580.03C850.937 570.35 840.447 564.76 831.637 560.73C820.229 555.51 809.202 549.496 798.637 542.73C789.187 536.67 779.167 528.3 779.107 517.07C779.037 504.89 790.607 496.12 795.377 484.91C798.465 477.699 798.626 469.57 795.827 462.243C793.027 454.915 787.487 448.965 780.377 445.65C775.61 443.585 770.335 442.99 765.227 443.94C759.797 444.94 755.287 446.17 751.077 449.62C746.648 453.248 742.818 457.55 739.727 462.37C736.234 467.813 733.807 473.87 732.577 480.22Z" fill="#FFA19F"/>
</g>
<g style="mix-blend-mode:multiply" opacity="0.38">
<path d="M881.397 464.67C880.807 477.76 883.257 491.98 892.687 501.08C903.747 511.75 922.017 512.2 935.687 505.08C949.357 497.96 958.877 484.85 965.427 470.95C971.707 457.61 975.717 442.84 974.317 428.16C973.237 416.87 968.677 405.65 960.737 397.44C952.527 389.04 941.087 385.04 929.407 385.43C921.587 385.67 915.657 389.29 910.747 395.22C903.793 403.646 897.758 412.791 892.747 422.5C886.766 434.116 883.034 446.758 881.747 459.76C881.601 461.393 881.484 463.03 881.397 464.67Z" fill="#FFA19F"/>
</g>
<g style="mix-blend-mode:multiply" opacity="0.38">
<path d="M870.937 172.86C863.637 196.86 872.057 224.81 891.367 240.77C900.087 247.98 910.927 253.09 917.217 262.49C924.367 273.17 924.097 286.92 925.357 299.71C926.187 308.14 928.797 317.81 936.597 321.11C942.597 323.65 949.597 321.36 955.137 318.01C977.427 304.64 986.527 276.37 986.387 250.37C986.296 236.114 983.965 221.961 979.477 208.43C974.979 194.796 968.481 181.906 960.197 170.18C951.857 158.36 941.657 148.18 930.567 138.91C926.467 135.49 921.837 132.04 916.357 131.48C910.177 130.85 904.187 133.9 899.087 137.05C887.215 144.32 877.958 155.171 872.647 168.04C872.007 169.613 871.437 171.22 870.937 172.86Z" fill="#FFA19F"/>
</g>
<g style="mix-blend-mode:multiply" opacity="0.38">
<path d="M660.797 277.7C655.917 281.77 652.857 288.3 653.927 294.57C655.027 301 660.117 306.1 665.797 309.31C673.687 313.77 683.547 315.31 691.947 311.91C700.347 308.51 706.647 299.61 705.597 290.61C704.837 284.06 700.407 278.28 694.777 274.85C690.336 272.153 685.296 270.597 680.107 270.32C676.227 270.18 672.307 272.05 668.727 273.32C665.843 274.294 663.158 275.778 660.797 277.7V277.7Z" fill="#FE767B"/>
</g>
<g style="mix-blend-mode:multiply" opacity="0.38">
<path d="M760.527 369.19C758.434 369.231 756.418 369.994 754.822 371.35C753.226 372.705 752.147 374.571 751.767 376.63C751.487 378.708 751.861 380.821 752.838 382.676C753.814 384.531 755.345 386.036 757.217 386.98C759.119 387.859 761.228 388.195 763.309 387.949C765.39 387.704 767.362 386.887 769.007 385.59C772.917 382.49 774.437 376.46 771.847 372.21C769.257 367.96 762.497 366.76 759.017 370.33" fill="#FE767B"/>
</g>
<g style="mix-blend-mode:multiply" opacity="0.38">
<path d="M258.797 200.52C265.716 205.798 273.642 209.602 282.087 211.7C286.687 212.84 291.877 213.37 295.887 210.83C299.437 208.58 301.297 204.23 301.347 200.02C301.397 195.81 299.867 191.73 297.857 188.02C291.407 176.19 279.667 167.75 266.657 164.59C262.147 163.5 256.787 162.59 252.727 165.48C247.957 168.84 245.377 176.24 246.097 181.83C247.097 189.61 252.797 195.93 258.797 200.52Z" fill="#FE767B"/>
</g>
<g style="mix-blend-mode:multiply" opacity="0.38">
<path d="M546.757 433.04C546.757 438.6 542.497 444.58 536.957 444.17C532.447 443.84 529.237 439.71 527.097 435.72C524.847 431.52 523.097 426.79 523.777 422.08C524.617 416.59 529.847 411.58 535.607 413.52C540.257 415.09 542.007 418.07 543.677 422.32C545.067 425.87 546.727 429.17 546.757 433.04Z" fill="#E9E2E7"/>
</g>
<g style="mix-blend-mode:multiply" opacity="0.38">
<path d="M426.527 594.44C424.637 602.19 424.707 610.69 428.347 617.78C431.987 624.87 439.707 630.14 447.647 629.4C457.327 628.49 464.177 619.63 468.647 611.02C473.647 601.53 477.367 590.72 475.317 580.2C474.335 575.207 471.88 570.623 468.267 567.04C465.127 563.95 460.207 560.88 455.637 560.86C451.367 560.86 446.917 564.74 443.807 567.29C439.801 570.579 436.309 574.448 433.447 578.77C430.253 583.554 427.912 588.856 426.527 594.44Z" fill="#E9E2E7"/>
</g>
</g>
</svg>
