<svg xmlns="http://www.w3.org/2000/svg" xmlns:xlink="http://www.w3.org/1999/xlink" viewBox="0 0 811.56 566.8"><defs><style>.cls-1,.cls-14,.cls-16,.cls-17,.cls-18,.cls-19,.cls-20,.cls-21{fill:none;}.cls-2{isolation:isolate;}.cls-3{fill:#fff;}.cls-4{clip-path:url(#clip-path);}.cls-5{fill:#137f7c;}.cls-10,.cls-11,.cls-12,.cls-13,.cls-14,.cls-16,.cls-17,.cls-18,.cls-19,.cls-20,.cls-21,.cls-5,.cls-6,.cls-7,.cls-8,.cls-9{stroke:#232322;stroke-miterlimit:10;}.cls-10,.cls-11,.cls-12,.cls-13,.cls-5,.cls-6,.cls-7,.cls-8,.cls-9{stroke-width:5px;}.cls-6{fill:#42ead1;}.cls-7{fill:#efb135;}.cls-8{fill:#ff802b;}.cls-9{fill:#630381;}.cls-10{fill:#a90087;}.cls-11{fill:#ff61a9;}.cls-12{fill:#f7036c;}.cls-13{fill:#d00200;}.cls-14{stroke-width:2px;}.cls-15{fill:#f9f9f7;mix-blend-mode:soft-light;}.cls-16{stroke-width:3px;}.cls-17{stroke-width:1.47px;}.cls-18{stroke-width:1.86px;}.cls-19{stroke-width:1.56px;}.cls-20{stroke-width:2.74px;}.cls-21{stroke-width:4.47px;}</style><clipPath id="clip-path" transform="translate(28.77 25.14)"><rect class="cls-1" width="750" height="500"/></clipPath></defs><title>header</title><g class="cls-2"><g id="BACKGROUND"><rect class="cls-3" x="28.77" y="25.14" width="750" height="500"/></g><g id="OBJECTS"><g class="cls-4"><path class="cls-5" d="M467.72-9.65c-12.5,96.95-27.86,196.77-79.26,279.92-13.82,22.37-30.07,43.17-43.63,65.7-31.62,52.54-47.93,113.21-80.08,165.44-1.43,2.32-2.95,4.68-5.19,6.23-3.45,2.37-7.93,2.38-12.11,2.3q-88.32-1.63-176.59-4.79C115,423.48,185.38,358,264.57,309.5c27.45-16.8,56.73-32,88.54-36.82,32.16-4.92,66.13.79,96.7-10.35,21.18-7.72,38.77-22.9,54.43-39.11a397.86,397.86,0,0,0,108.34-230Z" transform="translate(28.77 25.14)"/><path class="cls-6" d="M490.78-5.25C489.2,45.88,472.69,95.24,455.72,143.5c-10.79,30.68-22,61.57-39.58,88.92-12.11,18.81-27,35.6-40.64,53.37-24.5,32-44.59,67.13-64.6,102.13-22.65,39.61-45.66,80.16-54.22,125q54.39-3.45,108.93-3.46c13.55-63.27,11.39-128.71,16.9-193.18,4.52-52.91,17.31-105.47,19.56-158.45S405.82,51,395.49-1.42q-.46-2.35-1-4.69Z" transform="translate(28.77 25.14)"/><path class="cls-7" d="M393-4.37C403.93,5.33,406.82,21,408.7,35.53a857.21,857.21,0,0,1,6.61,137.55c-.7,21.61-2.29,43.52-9.54,63.9-5.27,14.79-13.38,28.37-20.17,42.52C351.65,350.22,352,432.09,356.41,510.41a1084.53,1084.53,0,0,0,139.54,3c-32-43.64-56.57-92.35-76.26-142.74-9.88-25.29-18.58-51.13-24-77.73-4.94-24.31-7.11-49.1-11.83-73.45-6.1-31.47-16.4-61.95-27-92.2q-23.05-65.84-48.11-131Z" transform="translate(28.77 25.14)"/><path class="cls-8" d="M389.87,231.41c1.88,33.09.85,66.32,3.86,99.33,3.43,37.7,12.3,75.36,30.48,108.56s46.22,61.75,81.15,76.33,76.88,13.91,109.28-5.66c-28.93-22.28-61.8-38.92-91.33-60.41C468.63,409.76,426.69,354,397.54,293c-16.8-35.16-29.53-72.11-44.9-107.92-29.8-69.45-69.4-134.39-113.94-195.45,2.21,3,32.72-.23,37.31-.27,9.89-.07,19.84-.65,29.73-.56C324.4-11,329.1,5.71,336.14,20.6A571.61,571.61,0,0,1,380,153.6,564.91,564.91,0,0,1,389.87,231.41Z" transform="translate(28.77 25.14)"/><path class="cls-9" d="M244.89-7.15a635.34,635.34,0,0,1,141,253.89c9.73,34.43,16.61,69.9,31,102.64,27.46,62.26,81.4,110.77,143.31,139s131.31,37.36,199.29,34.41a353,353,0,0,0,1.2-67.34c-110-32.58-204.3-103-307.48-153.16-20.2-9.82-40.91-19-59.26-31.92-15.46-10.93-28.94-24.37-42.33-37.75C275.46,156.54,198.57,79.6,141-11.46Z" transform="translate(28.77 25.14)"/><path class="cls-10" d="M162.07-16.93c28.07,27.7,56.18,55.45,81.87,85.37,14.78,17.21,28.73,35.11,42.55,53.1,32.42,42.2,64.15,84.94,94,129C406.3,288.75,433,324.84,467,356.71c24.78,23.22,52.08,43.84,81.79,60.35,65.83,36.59,145.13,52.24,218,33.06a616.74,616.74,0,0,0-5.85-91.67C664.1,373.95,567,339.4,475.54,304.28c-56-21.49-112.32-43.69-161.86-77.46-31.4-21.4-59.58-47.14-89.84-70.14-69.76-53-152.16-93-204.37-163.37Z" transform="translate(28.77 25.14)"/><path class="cls-11" d="M176.66,70.77c39.1,29.8,74.23,64.33,108.86,99.11,17.51,17.58,34.92,35.25,52.77,52.49,17,16.41,33.82,34.61,53.82,47.25a152.28,152.28,0,0,0,23.61,12.27c23.4,9.58,48.89,12.66,74.07,14.84a1187.17,1187.17,0,0,0,144.79,3.67c41.06-1.47,82.31-5.11,122-15.93q1.56,35.56,1.75,71.17c0,4.37-.07,9.07-2.67,12.58-2.81,3.81-7.8,5.19-12.42,6.23-63.65,14.34-131.07,9.92-193.17-10.09-32-10.32-60.21-29.29-89-46.52-30.64-18.32-61.08-37.06-92.82-53.44-21.26-11-43.61-19.7-66.22-27.44-8.14-2.79-16.32-5.44-24.53-8-66.21-20.86-133.62-37.68-201-54.49-28.8-7.19-57.91-14.41-87.59-14.78Q-16.74,86-16.54,12.08c0-3.25.16-6.86,2.43-9.18C-12.37,1.13-9.8.52-7.36.07,24.87-5.87,59.76,5.81,89.32,18.43,120.64,31.8,149.63,50.17,176.66,70.77Z" transform="translate(28.77 25.14)"/><path class="cls-12" d="M334.12,248c26.66,12,53.26,24.42,81.08,33.45,39.29,12.75,80.52,18.66,121.74,21.3a793.84,793.84,0,0,0,226.53-18.17q1.28-87.83-3.05-175.62C644.91,186.88,512.3,235.52,378.83,275.5s-269.47,72.1-400,120.75l-4.88-205.32c-.27-11.38-1.13-26.56,5.53-36.56,5.83-8.75,16.57-5.86,25.82-5.21a616,616,0,0,1,82.46,11.67c55,11.47,108.46,29.52,160.58,50.36C277.21,222.75,305.75,235.2,334.12,248Z" transform="translate(28.77 25.14)"/><path class="cls-13" d="M86,343c111.35-36.84,228.46-52.24,342.89-77.94s229.46-63.39,320.44-137.41c4.68-3.81,9.42-7.88,12-13.32,2-4.23,2.6-9,3.06-13.66a418.61,418.61,0,0,0-5.11-118.76A1207.82,1207.82,0,0,1,590.15-9,862.78,862.78,0,0,1,301.23,348.55c-74.09,52.88-157,94.32-222.7,157.35-4.17,4-8.42,8.19-13.82,10.24-5.21,2-11,1.77-16.54,1.54L-5,515.42c-3.8-.16-2-95.31-1.61-104.18.42-10.93.18-20.92,9.26-28.2,9.85-7.89,22.24-14.44,33.44-20.11C52.1,354.81,69,348.64,86,343Z" transform="translate(28.77 25.14)"/><path class="cls-14" d="M-11.11,391.4A317.86,317.86,0,0,1,167,286c74.32-15,151.55-2.89,226.84-11.9" transform="translate(28.77 25.14)"/><path class="cls-14" d="M-6,445.85C29,397.41,88,372.4,145.83,357.38S264,334.81,318.73,310.64c24.56-10.85,47.6-24.91,72.13-35.84" transform="translate(28.77 25.14)"/><path class="cls-14" d="M62.74,516.44c25.94-41.24,61.35-76.17,101.55-103.71s85.11-47.81,131.64-62.23" transform="translate(28.77 25.14)"/><path class="cls-14" d="M401.13,267.1c35.74-20.83,71.58-41.73,104.36-67s62.59-55.06,83.49-90.75S621.47,31.76,616.85-9.34" transform="translate(28.77 25.14)"/><path class="cls-14" d="M756.92-17.21C750.21,71,700,155,625.46,202.64" transform="translate(28.77 25.14)"/><path class="cls-14" d="M400.39,272.45c44.56,4.79,89.58,4.71,134.24,1,58.72-4.93,119.12-17.14,166.51-52.16C725.8,203,746,179.27,763,153.75" transform="translate(28.77 25.14)"/><path class="cls-14" d="M565.49,303.53c40-27.62,90.82-34.58,139.43-33.86,19.28.29,38.62,1.66,57.46,5.8" transform="translate(28.77 25.14)"/><path class="cls-14" d="M387.66,279.37a184.68,184.68,0,0,0,102.75,238" transform="translate(28.77 25.14)"/><path class="cls-14" d="M355.51,420.17a145.13,145.13,0,0,1,28.79,92" transform="translate(28.77 25.14)"/><path class="cls-14" d="M396.49,276.06c8.2,34.07,28.47,64.11,51.76,90.3,37.93,42.65,85.6,77.52,139.77,95.5s115,18.21,167.41-4.46" transform="translate(28.77 25.14)"/><path class="cls-14" d="M491,444a401.79,401.79,0,0,1,176.49,75.66" transform="translate(28.77 25.14)"/><path class="cls-14" d="M-25,253.73a184.69,184.69,0,0,1,62.66-36.92c15.49-5.37,31.64-8.65,47.88-10.95a417.2,417.2,0,0,1,187.18,16.39" transform="translate(28.77 25.14)"/><path class="cls-14" d="M257.21,509.14c-8.81-29.61-9.78-63.34,6.21-89.78,7.17-11.85,17.31-21.57,27.33-31.14l43.37-41.42" transform="translate(28.77 25.14)"/><path class="cls-14" d="M361.05,305.34c-2.76,39.8-10.31,80.41-25.78,117.34-15.12,36.08-39.4,69.28-72.88,89.51" transform="translate(28.77 25.14)"/><path class="cls-14" d="M37.57,2.73C39,25.14,50.81,46,66.75,61.82s35.82,27.1,56.19,36.54c32.89,15.25,70.22,26.32,105.16,16.66" transform="translate(28.77 25.14)"/><path class="cls-14" d="M111.11,166.35c19,2,38.12.47,57.14,2.39a325.32,325.32,0,0,1,154.41,57.59c21,14.85,40.53,32.43,64.43,41.84" transform="translate(28.77 25.14)"/><path class="cls-14" d="M98.32-13.46a600.34,600.34,0,0,1,224.8,222.18" transform="translate(28.77 25.14)"/><path class="cls-14" d="M197-9c9.51,3.63,17.81,9.8,25.69,16.24,38.49,31.46,70,70.83,96.19,113.08S366.18,207.77,386,253.37" transform="translate(28.77 25.14)"/><path class="cls-14" d="M403.18,263a490,490,0,0,0,73.14-97.3c10-17.49,18.93-35.58,28.87-53.1,21.41-37.73,47.3-73.46,78.24-103.77" transform="translate(28.77 25.14)"/><path class="cls-14" d="M437.52-4.51c7.86,19.19,9.36,40.38,9.15,61.12a402,402,0,0,1-35.44,160.66" transform="translate(28.77 25.14)"/><path class="cls-14" d="M473.87,84.64a265.51,265.51,0,0,1-6.32-92.55" transform="translate(28.77 25.14)"/><path class="cls-14" d="M389.81-2.52a770.5,770.5,0,0,1-4.64,178.95" transform="translate(28.77 25.14)"/><path class="cls-14" d="M390.34,254.93c-.09-13.42,1.21-26.94,5.12-39.78s10.52-25,20.08-34.42" transform="translate(28.77 25.14)"/><path class="cls-14" d="M249.48-7.28c28.08,8.72,51.8,27.86,72,49.2,9.05,9.55,17.61,19.69,24.18,31.09,18.83,32.67,19.77,72.32,19.4,110" transform="translate(28.77 25.14)"/><path class="cls-14" d="M447.63,308.19c79.31-.5,151,48.63,229.86,57.48a230.45,230.45,0,0,0,80.71-5.26" transform="translate(28.77 25.14)"/><path class="cls-14" d="M746.47,374.52c-51.91,28.82-114.32,38.74-172.31,26s-110.89-48.36-143.33-98.08c-2.6-4-.44-2.45-3.07-6.43" transform="translate(28.77 25.14)"/><path class="cls-14" d="M-19,389.73C10.76,334.67,63.06,292.6,122.66,273.9c70.34-22.08,152.47-13.2,225-6.74q21.91,2,43.76,4.63" transform="translate(28.77 25.14)"/><path class="cls-14" d="M47,514.81c9.61-48.11,44.63-87.87,85.22-115.43a308,308,0,0,1,93.11-42.6c36.14-9.68,74.75-13,107.32-31.44" transform="translate(28.77 25.14)"/><path class="cls-14" d="M398,269a1133.44,1133.44,0,0,0,141.52-72.2c14.45-8.7,28.72-17.73,42-28.09,56-43.6,93-110.94,99.6-181.64" transform="translate(28.77 25.14)"/><path class="cls-14" d="M713.11,153.08a261.75,261.75,0,0,1,19.06-38c8.68-14.26,19.64-28.4,35.32-34.12" transform="translate(28.77 25.14)"/><path class="cls-14" d="M-6.61,1.4c7,21.12,21.19,39.17,37.28,54.53C83.51,106.41,160,131,232.37,120.74" transform="translate(28.77 25.14)"/><path class="cls-14" d="M393.43,292.73c-2,71,41.39,129.95,97.19,169.9,26.75,19.15,58,32.76,90.78,35.6" transform="translate(28.77 25.14)"/><path class="cls-14" d="M253.75,507.81c-14.87-16.39-17.81-40.44-16.06-62.51.55-7,1.51-13.95,3.92-20.49,5.43-14.73,17.6-25.78,29.34-36.22l87.58-77.84" transform="translate(28.77 25.14)"/><path class="cls-14" d="M407,269.63c65.84.94,132.39-7.33,194-30.69s118-62.41,156.59-115.8" transform="translate(28.77 25.14)"/><path class="cls-12" d="M147.07,422.3c3.06-2.06,7.34-3.89,10.18-1.52,1.91,1.59,2.18,4.36,2.31,6.84l1.51,28.58c.22,4.15.42,8.42-1,12.34-2.58,7.32-10.3,11.84-18,12.84-13.17,1.71-37.73-3.21-30.4-21.52C117.45,445.5,134.57,430.72,147.07,422.3Z" transform="translate(28.77 25.14)"/><path class="cls-14" d="M110.91,462.39c5.17,6.28,14,8.92,22,7.45s15-6.68,19.66-13.37,7-14.73,7.86-22.82" transform="translate(28.77 25.14)"/><path class="cls-14" d="M119.91,478c7.12,1.35,14.57.06,21.29-2.67s12.79-6.84,18.55-11.24" transform="translate(28.77 25.14)"/><path class="cls-11" d="M682.39,63.26c-.65,3.93.11,8-.13,11.94-.57,9.36-6.46,17.39-10.78,25.71-2.39,4.61-4,11.12.15,14.29a9.45,9.45,0,0,0,5.42,1.63c6.93.3,13.6-2.8,19.32-6.73,12.52-8.61,40.82-37.48,32-54.81C720,38.8,685.3,45.6,682.39,63.26Z" transform="translate(28.77 25.14)"/><path class="cls-14" d="M683,75.33a29.73,29.73,0,0,1,10.63-11.13,14.62,14.62,0,0,1,5.45-2.16c4-.56,8,1.48,10.56,4.55a21.74,21.74,0,0,1,4.39,11,36.85,36.85,0,0,1-1.32,16.06" transform="translate(28.77 25.14)"/><path class="cls-14" d="M703.31,48.18a14.29,14.29,0,0,1,11.5,2.16c3.2,2.25,5.32,5.75,6.78,9.38a37.28,37.28,0,0,1,2.19,19.75" transform="translate(28.77 25.14)"/><path class="cls-9" d="M58.59,193.54c-.52,9.73,2.2,20.84,10.74,25.54,3.68,2,8,2.58,12.16,2.86,18,1.23,36.82-1.76,53.66,4.76,4.86,1.88,9.42,4.52,14.35,6.23a41.14,41.14,0,0,0,26.92-.07,16.08,16.08,0,0,0,6.76-4c2.17-2.4,3-5.71,3.32-8.93.94-10.67-3.89-21.22-10.87-29.35s-16-14.23-24.91-20.15a197.58,197.58,0,0,0-34.29-18.68c-7.49-3.08-16.14-7.89-24.53-6.82C71.86,147.48,59.53,176.11,58.59,193.54Z" transform="translate(28.77 25.14)"/><path class="cls-14" d="M86.07,220.86A27.35,27.35,0,0,1,74.2,200.55c-.37-4.85.87-10.23,4.78-13.12,1.75-1.29,3.86-2,5.78-3,5.91-3.14,9.54-9.28,14.71-13.53,7.68-6.32,18.37-8,28.23-6.69s19.13,5.36,28.18,9.48" transform="translate(28.77 25.14)"/><path class="cls-14" d="M103.09,221.24c-.56-7,6.6-12.73,13.63-13.22s13.72,2.76,20,6,12.73,6.76,19.78,6.82a21.35,21.35,0,0,0,19-31.45" transform="translate(28.77 25.14)"/><path class="cls-14" d="M81.43,165a3.22,3.22,0,0,0,.44,2.13,3,3,0,0,0,2.91,1,8,8,0,0,0,2.95-1.34c3.2-2.06,13.93-8.16,6.11-11.15C88.77,153.67,81.88,160,81.43,165Z" transform="translate(28.77 25.14)"/><path class="cls-13" d="M424.77,359.9c6.28,5,13.12,9.95,21.07,11s17.19-3.18,19-11c1.28-5.62-1.64-11.62-6.15-15.21s-10.33-5.14-16.07-5.78-11.53-.47-17.27-1.1c-4.65-.51-19.87-7.4-20.75.8C403.89,345,420.38,356.4,424.77,359.9Z" transform="translate(28.77 25.14)"/><path class="cls-14" d="M456.9,368c-9.26-.55-17.83-5.32-24.82-11.41-2.63-2.29-5.16-4.9-6.33-8.19s-.63-7.4,2.09-9.59" transform="translate(28.77 25.14)"/><path class="cls-14" d="M461.9,364.29a37.49,37.49,0,0,1-13.3-9.59c-3.53-4.23-5.71-9.78-5.13-15.26" transform="translate(28.77 25.14)"/><path class="cls-10" d="M368.65,419.16c3-2.88,6.34-5.54,10.3-6.79s8.64-.84,11.75,1.9c2.58,2.27,3.73,5.72,4.65,9,1.64,5.94,2.86,12.12,2.11,18.24s-3.75,12.2-9,15.45c-9.27,5.75-29.94,4.6-34.51-7.13C349.77,439.13,361.7,425.86,368.65,419.16Z" transform="translate(28.77 25.14)"/><path class="cls-14" d="M361.09,429a42.43,42.43,0,0,0-1.84,9.89,14.27,14.27,0,0,0,2.84,9.45c3.29,4,9,5,14.18,4.74,4.79-.28,9.75-1.62,13.19-5s5-8.42,5.35-13.29-.13-9.76.09-14.64" transform="translate(28.77 25.14)"/><path class="cls-14" d="M376.53,422.59a3.1,3.1,0,0,0,.18,1.44l2.86,9.83a1.82,1.82,0,0,0,.54,1,1.4,1.4,0,0,0,1.1.17,4.61,4.61,0,0,0,2.86-2.36c1.58-2.65,2.4-7.8.08-10.35C382.75,420.79,377.09,419.75,376.53,422.59Z" transform="translate(28.77 25.14)"/><path class="cls-5" d="M336,107.94c-6.55,8.84-8.66,21.8-2.31,30.78a26.51,26.51,0,0,0,12,8.91,17.07,17.07,0,0,0,6.69,1.45c7-.19,12-6.73,15.38-12.92s6.67-13.21,13.18-15.87c4.37-1.79,9.4-1.2,13.84-2.8a15.15,15.15,0,0,0,9.77-13.55,8.61,8.61,0,0,0-.8-4.16,10.91,10.91,0,0,0-3-3.28C378,77.88,352.87,85.22,336,107.94Z" transform="translate(28.77 25.14)"/><path class="cls-14" d="M330.12,128.52c6.51,5.36,16.39,8.36,23.25,3.45,4-2.89,6.08-7.84,9.57-11.39s8.45-5.6,13.17-7.51,9.58-4,13-7.74,5-9.71,2.32-14" transform="translate(28.77 25.14)"/><path class="cls-14" d="M344.59,146.53a21.59,21.59,0,0,1,21.91-9.26" transform="translate(28.77 25.14)"/><path class="cls-6" d="M675.11,355.17c-11.09,3.74-21,10.29-30.74,16.77L615.64,391c-4.12,2.73-8.57,5.92-9.69,10.74-.81,3.45.31,7.08,1.9,10.25,5.66,11.35,17,18.86,28.74,23.65a104,104,0,0,0,46.19,7.47c8.44-.57,17.13-2.32,23.92-7.36,4.89-3.63,8.49-8.78,11.17-14.25,8-16.44,7.57-36.1-.07-52.57C709.51,351.09,693.3,349,675.11,355.17Z" transform="translate(28.77 25.14)"/><path class="cls-14" d="M613.26,394c2.68,11.28,14.25,17.79,24.91,22.36,6.51,2.79,13.21,5.39,20.24,6.16s14.54-.45,20.19-4.71c9.27-7,11.36-19.8,12.69-31.33.71-6.2,1.46-12.56,4.35-18.09s8.45-10.12,14.69-10" transform="translate(28.77 25.14)"/><path class="cls-14" d="M694.46,440.75c0-12.2.34-24.58,3.87-36.26s10.73-22.74,21.55-28.37" transform="translate(28.77 25.14)"/><path class="cls-14" d="M661.45,377.13a4.42,4.42,0,0,0,.67,3.54,4.37,4.37,0,0,0,1.55,1.09,10.31,10.31,0,0,0,9.62-.58c4.81-3,10-11.31,2.53-13.92C669.49,365,662.42,371.1,661.45,377.13Z" transform="translate(28.77 25.14)"/><path class="cls-8" d="M294.33,194.51A15.16,15.16,0,0,0,283,200.6a24,24,0,0,0-4.54,12.34c-.46,4.51.11,9.37,2.9,12.94s7.57,5.35,12.15,6.08,9.28.68,13.8,1.72c8.49,1.94,18.66,9.88,27.56,5.63,6.89-3.29,7.11-8.94,2.89-14.19-5-6.19-13.44-10.06-19.47-15.15C311.47,204.25,304.15,194.34,294.33,194.51Z" transform="translate(28.77 25.14)"/><path class="cls-14" d="M284.81,199.46a20.68,20.68,0,0,0-1.07,12.88c1.57,6.49,7.17,12.35,13.85,12.41,4,0,7.75-1.93,11.59-3.14A32.25,32.25,0,0,1,338,226.66" transform="translate(28.77 25.14)"/><path class="cls-7" d="M95.48,34.94c4.65,8.32,12.92,14.11,21.71,17.79s18.22,5.52,27.48,7.76q12.79,3.1,25.28,7.28c7.39,2.48,14.81,5.26,22.58,5.77s16.16-1.63,21.25-7.54c5.68-6.6,6-16.11,6-24.82,0-14.14-1.12-30.29-12.25-39-5.71-4.48-13.11-6.09-20.26-7.29-23.57-4-52.72-7.56-76.38-2.72C93.52-4.29,87.5,20.68,95.48,34.94Z" transform="translate(28.77 25.14)"/><path class="cls-14" d="M102.61-4.51C96.93,8.83,100.19,26.65,112.69,34c14,8.23,32.35.79,47.88,5.55,8.6,2.63,16.41,9,25.37,8.34,6.18-.45,11.77-4.38,15.19-9.54s4.86-11.43,5.15-17.62C206.7,12,204,2,196.14-1.69" transform="translate(28.77 25.14)"/><path class="cls-14" d="M92.81,19.11C96,35,110.55,48,126.74,49.25c10.86.86,21.93-3,32.54-.52,4.78,1.11,9.18,3.46,13.78,5.17,8.91,3.31,19,4.16,27.9.86s16.36-11.18,17.72-20.58" transform="translate(28.77 25.14)"/><path class="cls-14" d="M175,30.35a3,3,0,0,0,.75,3.47,3.78,3.78,0,0,0,1.93.46c2.92.14,6-.06,8.44-1.73,5.21-3.63,7.73-17.71-.88-18.67a7.08,7.08,0,0,0-6.87,4c-.92,1.81-.35,3.88-.73,5.79C177.11,26.21,175.86,27.94,175,30.35Z" transform="translate(28.77 25.14)"/><circle class="cls-15" cx="107.96" cy="305.88" r="33.25"/><circle class="cls-16" cx="107.96" cy="305.88" r="33.25"/><circle class="cls-15" cx="646.67" cy="194.81" r="16.3"/><circle class="cls-17" cx="646.67" cy="194.81" r="16.3"/><circle class="cls-15" cx="501.66" cy="445.35" r="20.64"/><circle class="cls-18" cx="501.66" cy="445.35" r="20.64"/><circle class="cls-15" cx="582.51" cy="49.1" r="47.6"/><circle class="cls-16" cx="582.51" cy="49.1" r="47.6"/><circle class="cls-15" cx="294.84" cy="347.78" r="17.3"/><circle class="cls-19" cx="294.84" cy="347.78" r="17.3"/><circle class="cls-15" cx="277.76" cy="177.32" r="30.39"/><circle class="cls-20" cx="277.76" cy="177.32" r="30.39"/><circle class="cls-15" cx="759.79" cy="515.03" r="49.53"/><circle class="cls-21" cx="759.79" cy="515.03" r="49.53"/></g></g></g></svg>