<svg width="1440" height="736" viewBox="0 0 1440 736" fill="none" xmlns="http://www.w3.org/2000/svg">
<g clip-path="url(#clip0)">
<rect width="1440" height="736" fill="#314259"/>
<path d="M868.928 335.464L859.072 375H851.232L842.888 344.424L834.544 375H826.704L816.848 335.464H823.848L830.68 367.608L839.36 335.464H846.416L855.096 367.608L861.928 335.464H868.928ZM903.317 358.088C903.317 359.133 903.243 360.048 903.093 360.832H879.349C879.461 364.005 880.339 366.357 881.981 367.888C883.624 369.419 885.659 370.184 888.085 370.184C890.213 370.184 892.005 369.643 893.461 368.56C894.955 367.477 895.869 366.04 896.205 364.248H903.037C902.627 366.413 901.768 368.336 900.461 370.016C899.155 371.696 897.456 373.021 895.365 373.992C893.275 374.925 890.941 375.392 888.365 375.392C885.379 375.392 882.728 374.757 880.413 373.488C878.136 372.219 876.344 370.389 875.037 368C873.731 365.611 873.077 362.792 873.077 359.544C873.077 356.333 873.731 353.533 875.037 351.144C876.344 348.755 878.136 346.925 880.413 345.656C882.728 344.387 885.379 343.752 888.365 343.752C891.389 343.752 894.021 344.387 896.261 345.656C898.539 346.888 900.275 348.605 901.469 350.808C902.701 352.973 903.317 355.4 903.317 358.088ZM896.877 357.92C896.952 355.904 896.597 354.224 895.813 352.88C895.067 351.499 894.021 350.491 892.677 349.856C891.371 349.184 889.933 348.848 888.365 348.848C885.864 348.848 883.773 349.613 882.093 351.144C880.413 352.675 879.499 354.933 879.349 357.92H896.877ZM915.865 333.56V375H909.481V333.56H915.865ZM937.311 343.752C941.305 343.752 944.609 344.816 947.223 346.944C949.836 349.035 951.46 351.891 952.095 355.512H945.319C944.945 353.571 944.031 352.059 942.575 350.976C941.156 349.856 939.364 349.296 937.199 349.296C934.735 349.296 932.681 350.173 931.039 351.928C929.396 353.645 928.575 356.184 928.575 359.544C928.575 362.904 929.396 365.461 931.039 367.216C932.681 368.971 934.735 369.848 937.199 369.848C939.364 369.848 941.156 369.288 942.575 368.168C944.031 367.048 944.945 365.517 945.319 363.576H952.095C951.46 367.197 949.836 370.072 947.223 372.2C944.609 374.328 941.305 375.392 937.311 375.392C934.324 375.392 931.673 374.757 929.359 373.488C927.081 372.219 925.289 370.389 923.983 368C922.676 365.611 922.023 362.792 922.023 359.544C922.023 356.333 922.676 353.533 923.983 351.144C925.289 348.755 927.081 346.925 929.359 345.656C931.673 344.387 934.324 343.752 937.311 343.752ZM972.374 343.752C975.361 343.752 978.049 344.387 980.438 345.656C982.828 346.925 984.694 348.755 986.038 351.144C987.382 353.533 988.054 356.333 988.054 359.544C988.054 362.792 987.382 365.611 986.038 368C984.694 370.389 982.828 372.219 980.438 373.488C978.049 374.757 975.361 375.392 972.374 375.392C969.388 375.392 966.7 374.757 964.31 373.488C961.958 372.219 960.092 370.389 958.71 368C957.366 365.573 956.694 362.755 956.694 359.544C956.694 356.333 957.366 353.533 958.71 351.144C960.092 348.755 961.958 346.925 964.31 345.656C966.7 344.387 969.388 343.752 972.374 343.752ZM972.374 349.296C970.732 349.296 969.22 349.669 967.838 350.416C966.457 351.163 965.337 352.32 964.478 353.888C963.657 355.419 963.246 357.304 963.246 359.544C963.246 361.821 963.657 363.725 964.478 365.256C965.337 366.787 966.457 367.925 967.838 368.672C969.22 369.419 970.732 369.792 972.374 369.792C974.017 369.792 975.529 369.419 976.91 368.672C978.292 367.925 979.393 366.787 980.214 365.256C981.073 363.725 981.502 361.821 981.502 359.544C981.502 357.304 981.073 355.419 980.214 353.888C979.393 352.32 978.292 351.163 976.91 350.416C975.529 349.669 974.017 349.296 972.374 349.296ZM1032.78 343.64C1036.43 343.64 1039.35 344.797 1041.51 347.112C1043.71 349.427 1044.82 352.731 1044.82 357.024V375H1038.43V357.696C1038.43 355.008 1037.76 352.936 1036.42 351.48C1035.07 349.987 1033.22 349.24 1030.87 349.24C1028.37 349.24 1026.37 350.043 1024.88 351.648C1023.42 353.216 1022.7 355.531 1022.7 358.592V375H1016.31V357.696C1016.31 355.008 1015.64 352.936 1014.3 351.48C1012.95 349.987 1011.1 349.24 1008.75 349.24C1006.25 349.24 1004.25 350.043 1002.76 351.648C1001.3 353.216 1000.58 355.531 1000.58 358.592V375H994.192V344.144H1000.58V350.584C1001.36 348.344 1002.67 346.627 1004.5 345.432C1006.33 344.237 1008.47 343.64 1010.94 343.64C1013.51 343.64 1015.73 344.275 1017.6 345.544C1019.5 346.813 1020.89 348.643 1021.74 351.032C1022.64 348.717 1024.08 346.907 1026.06 345.6C1028.03 344.293 1030.27 343.64 1032.78 343.64ZM1080.94 358.088C1080.94 359.133 1080.87 360.048 1080.72 360.832H1056.97C1057.09 364.005 1057.96 366.357 1059.61 367.888C1061.25 369.419 1063.28 370.184 1065.71 370.184C1067.84 370.184 1069.63 369.643 1071.09 368.56C1072.58 367.477 1073.49 366.04 1073.83 364.248H1080.66C1080.25 366.413 1079.39 368.336 1078.09 370.016C1076.78 371.696 1075.08 373.021 1072.99 373.992C1070.9 374.925 1068.57 375.392 1065.99 375.392C1063 375.392 1060.35 374.757 1058.04 373.488C1055.76 372.219 1053.97 370.389 1052.66 368C1051.36 365.611 1050.7 362.792 1050.7 359.544C1050.7 356.333 1051.36 353.533 1052.66 351.144C1053.97 348.755 1055.76 346.925 1058.04 345.656C1060.35 344.387 1063 343.752 1065.99 343.752C1069.01 343.752 1071.65 344.387 1073.89 345.656C1076.16 346.888 1077.9 348.605 1079.09 350.808C1080.33 352.973 1080.94 355.4 1080.94 358.088ZM1074.5 357.92C1074.58 355.904 1074.22 354.224 1073.44 352.88C1072.69 351.499 1071.65 350.491 1070.3 349.856C1069 349.184 1067.56 348.848 1065.99 348.848C1063.49 348.848 1061.4 349.613 1059.72 351.144C1058.04 352.675 1057.12 354.933 1056.97 357.92H1074.5ZM1115.74 369.456V375H1111.82C1108.54 375 1106.04 374.216 1104.32 372.648C1102.64 371.043 1101.8 368.392 1101.8 364.696V349.576H1097.38V344.144H1101.8V336.472H1108.24V344.144H1115.69V349.576H1108.24V364.808C1108.24 366.563 1108.56 367.776 1109.19 368.448C1109.86 369.12 1111.02 369.456 1112.66 369.456H1115.74ZM1135.84 343.752C1138.82 343.752 1141.51 344.387 1143.9 345.656C1146.29 346.925 1148.16 348.755 1149.5 351.144C1150.84 353.533 1151.52 356.333 1151.52 359.544C1151.52 362.792 1150.84 365.611 1149.5 368C1148.16 370.389 1146.29 372.219 1143.9 373.488C1141.51 374.757 1138.82 375.392 1135.84 375.392C1132.85 375.392 1130.16 374.757 1127.77 373.488C1125.42 372.219 1123.55 370.389 1122.17 368C1120.83 365.573 1120.16 362.755 1120.16 359.544C1120.16 356.333 1120.83 353.533 1122.17 351.144C1123.55 348.755 1125.42 346.925 1127.77 345.656C1130.16 344.387 1132.85 343.752 1135.84 343.752ZM1135.84 349.296C1134.19 349.296 1132.68 349.669 1131.3 350.416C1129.92 351.163 1128.8 352.32 1127.94 353.888C1127.12 355.419 1126.71 357.304 1126.71 359.544C1126.71 361.821 1127.12 363.725 1127.94 365.256C1128.8 366.787 1129.92 367.925 1131.3 368.672C1132.68 369.419 1134.19 369.792 1135.84 369.792C1137.48 369.792 1138.99 369.419 1140.37 368.672C1141.75 367.925 1142.85 366.787 1143.68 365.256C1144.53 363.725 1144.96 361.821 1144.96 359.544C1144.96 357.304 1144.53 355.419 1143.68 353.888C1142.85 352.32 1141.75 351.163 1140.37 350.416C1138.99 349.669 1137.48 349.296 1135.84 349.296ZM1209.36 343.64C1213.02 343.64 1215.93 344.797 1218.1 347.112C1220.3 349.427 1221.4 352.731 1221.4 357.024V375H1215.02V357.696C1215.02 355.008 1214.35 352.936 1213 351.48C1211.66 349.987 1209.81 349.24 1207.46 349.24C1204.96 349.24 1202.96 350.043 1201.47 351.648C1200.01 353.216 1199.28 355.531 1199.28 358.592V375H1192.9V357.696C1192.9 355.008 1192.23 352.936 1190.88 351.48C1189.54 349.987 1187.69 349.24 1185.34 349.24C1182.84 349.24 1180.84 350.043 1179.35 351.648C1177.89 353.216 1177.16 355.531 1177.16 358.592V375H1170.78V344.144H1177.16V350.584C1177.95 348.344 1179.25 346.627 1181.08 345.432C1182.91 344.237 1185.06 343.64 1187.52 343.64C1190.1 343.64 1192.32 344.275 1194.19 345.544C1196.09 346.813 1197.47 348.643 1198.33 351.032C1199.23 348.717 1200.66 346.907 1202.64 345.6C1204.62 344.293 1206.86 343.64 1209.36 343.64ZM1232.5 344.144L1241.74 366.824L1250.3 344.144H1257.42L1238.77 389.672H1231.66L1238.32 374.272L1225.33 344.144H1232.5ZM836.56 415.752C839.248 415.752 841.637 416.387 843.728 417.656C845.856 418.925 847.517 420.755 848.712 423.144C849.907 425.533 850.504 428.333 850.504 431.544C850.504 434.792 849.907 437.611 848.712 440C847.517 442.389 845.856 444.219 843.728 445.488C841.637 446.757 839.248 447.392 836.56 447.392C833.76 447.392 831.371 446.701 829.392 445.32C827.413 443.939 826.032 442.109 825.248 439.832V461.672H818.864V416.144H825.248V423.312C826.032 421.035 827.413 419.205 829.392 417.824C831.371 416.443 833.76 415.752 836.56 415.752ZM834.6 421.352C832.808 421.352 831.203 421.781 829.784 422.64C828.365 423.461 827.245 424.656 826.424 426.224C825.603 427.755 825.192 429.528 825.192 431.544C825.192 433.597 825.603 435.389 826.424 436.92C827.245 438.451 828.365 439.645 829.784 440.504C831.203 441.325 832.808 441.736 834.6 441.736C837.437 441.736 839.715 440.84 841.432 439.048C843.149 437.219 844.008 434.717 844.008 431.544C844.008 428.408 843.149 425.925 841.432 424.096C839.715 422.267 837.437 421.352 834.6 421.352ZM870.765 415.752C873.752 415.752 876.44 416.387 878.829 417.656C881.218 418.925 883.085 420.755 884.429 423.144C885.773 425.533 886.445 428.333 886.445 431.544C886.445 434.792 885.773 437.611 884.429 440C883.085 442.389 881.218 444.219 878.829 445.488C876.44 446.757 873.752 447.392 870.765 447.392C867.778 447.392 865.09 446.757 862.701 445.488C860.349 444.219 858.482 442.389 857.101 440C855.757 437.573 855.085 434.755 855.085 431.544C855.085 428.333 855.757 425.533 857.101 423.144C858.482 420.755 860.349 418.925 862.701 417.656C865.09 416.387 867.778 415.752 870.765 415.752ZM870.765 421.296C869.122 421.296 867.61 421.669 866.229 422.416C864.848 423.163 863.728 424.32 862.869 425.888C862.048 427.419 861.637 429.304 861.637 431.544C861.637 433.821 862.048 435.725 862.869 437.256C863.728 438.787 864.848 439.925 866.229 440.672C867.61 441.419 869.122 441.792 870.765 441.792C872.408 441.792 873.92 441.419 875.301 440.672C876.682 439.925 877.784 438.787 878.605 437.256C879.464 435.725 879.893 433.821 879.893 431.544C879.893 429.304 879.464 427.419 878.605 425.888C877.784 424.32 876.682 423.163 875.301 422.416C873.92 421.669 872.408 421.296 870.765 421.296ZM898.967 422.192C900.012 420.176 901.505 418.589 903.447 417.432C905.388 416.237 907.628 415.64 910.167 415.64V422.584H908.263C905.463 422.584 903.204 423.275 901.487 424.656C899.807 426 898.967 428.24 898.967 431.376V447H892.583V416.144H898.967V422.192ZM930.462 441.456V447H926.542C923.257 447 920.755 446.216 919.038 444.648C917.358 443.043 916.518 440.392 916.518 436.696V421.576H912.094V416.144H916.518V408.472H922.958V416.144H930.406V421.576H922.958V436.808C922.958 438.563 923.275 439.776 923.91 440.448C924.582 441.12 925.739 441.456 927.382 441.456H930.462ZM950.834 409.76C948.333 409.648 946.578 410.059 945.57 410.992C944.562 411.888 944.058 413.437 944.058 415.64V416.144H950.834V421.632H944.058V447H937.618V421.632H933.418V416.144H937.618V415.136C937.618 411.365 938.719 408.547 940.922 406.68C943.125 404.776 946.429 403.936 950.834 404.16V409.76ZM970.078 415.752C973.064 415.752 975.752 416.387 978.142 417.656C980.531 418.925 982.398 420.755 983.742 423.144C985.086 425.533 985.758 428.333 985.758 431.544C985.758 434.792 985.086 437.611 983.742 440C982.398 442.389 980.531 444.219 978.142 445.488C975.752 446.757 973.064 447.392 970.078 447.392C967.091 447.392 964.403 446.757 962.014 445.488C959.662 444.219 957.795 442.389 956.414 440C955.07 437.573 954.398 434.755 954.398 431.544C954.398 428.333 955.07 425.533 956.414 423.144C957.795 420.755 959.662 418.925 962.014 417.656C964.403 416.387 967.091 415.752 970.078 415.752ZM970.078 421.296C968.435 421.296 966.923 421.669 965.542 422.416C964.16 423.163 963.04 424.32 962.182 425.888C961.36 427.419 960.95 429.304 960.95 431.544C960.95 433.821 961.36 435.725 962.182 437.256C963.04 438.787 964.16 439.925 965.542 440.672C966.923 441.419 968.435 441.792 970.078 441.792C971.72 441.792 973.232 441.419 974.614 440.672C975.995 439.925 977.096 438.787 977.918 437.256C978.776 435.725 979.206 433.821 979.206 431.544C979.206 429.304 978.776 427.419 977.918 425.888C977.096 424.32 975.995 423.163 974.614 422.416C973.232 421.669 971.72 421.296 970.078 421.296ZM998.279 405.56V447H991.895V405.56H998.279ZM1005.11 407.184C1005.11 406.101 1005.48 405.205 1006.23 404.496C1006.98 403.787 1007.96 403.432 1009.2 403.432C1010.43 403.432 1011.42 403.787 1012.16 404.496C1012.95 405.205 1013.34 406.101 1013.34 407.184C1013.34 408.267 1012.95 409.144 1012.16 409.816C1011.42 410.488 1010.43 410.824 1009.2 410.824C1007.96 410.824 1006.98 410.488 1006.23 409.816C1005.48 409.144 1005.11 408.267 1005.11 407.184ZM1012.39 416.144V447H1006V416.144H1012.39ZM1034.23 415.752C1037.21 415.752 1039.9 416.387 1042.29 417.656C1044.68 418.925 1046.55 420.755 1047.89 423.144C1049.23 425.533 1049.91 428.333 1049.91 431.544C1049.91 434.792 1049.23 437.611 1047.89 440C1046.55 442.389 1044.68 444.219 1042.29 445.488C1039.9 446.757 1037.21 447.392 1034.23 447.392C1031.24 447.392 1028.55 446.757 1026.16 445.488C1023.81 444.219 1021.94 442.389 1020.56 440C1019.22 437.573 1018.55 434.755 1018.55 431.544C1018.55 428.333 1019.22 425.533 1020.56 423.144C1021.94 420.755 1023.81 418.925 1026.16 417.656C1028.55 416.387 1031.24 415.752 1034.23 415.752ZM1034.23 421.296C1032.58 421.296 1031.07 421.669 1029.69 422.416C1028.31 423.163 1027.19 424.32 1026.33 425.888C1025.51 427.419 1025.1 429.304 1025.1 431.544C1025.1 433.821 1025.51 435.725 1026.33 437.256C1027.19 438.787 1028.31 439.925 1029.69 440.672C1031.07 441.419 1032.58 441.792 1034.23 441.792C1035.87 441.792 1037.38 441.419 1038.76 440.672C1040.14 439.925 1041.24 438.787 1042.07 437.256C1042.92 435.725 1043.35 433.821 1043.35 431.544C1043.35 429.304 1042.92 427.419 1042.07 425.888C1041.24 424.32 1040.14 423.163 1038.76 422.416C1037.38 421.669 1035.87 421.296 1034.23 421.296Z" fill="#2B88D9"/>
<path d="M862.824 479.688V519H853.248V494.416L844.736 519H836.448L827.88 494.36V519H818.304V479.688H830.008L840.704 507.072L851.176 479.688H862.824ZM876.661 487.752L884.165 506.904L891.165 487.752H901.749L882.261 533.896H871.733L879.069 517.824L865.965 487.752H876.661ZM935.964 487.416C939.548 487.416 942.385 488.611 944.476 491C946.604 493.389 947.668 496.675 947.668 500.856V519H938.092V501.976C938.092 499.885 937.532 498.261 936.412 497.104C935.329 495.909 933.873 495.312 932.044 495.312C930.103 495.312 928.553 495.928 927.396 497.16C926.276 498.392 925.716 500.147 925.716 502.424V519H916.14V487.752H925.716V493.464C926.612 491.597 927.937 490.123 929.692 489.04C931.484 487.957 933.575 487.416 935.964 487.416ZM965.856 487.36C968.245 487.36 970.298 487.901 972.016 488.984C973.733 490.067 975.002 491.541 975.824 493.408V487.752H985.344V519H975.824V513.344C975.002 515.211 973.733 516.685 972.016 517.768C970.298 518.851 968.245 519.392 965.856 519.392C963.28 519.392 960.965 518.757 958.912 517.488C956.896 516.181 955.29 514.315 954.096 511.888C952.938 509.461 952.36 506.624 952.36 503.376C952.36 500.091 952.938 497.253 954.096 494.864C955.29 492.437 956.896 490.589 958.912 489.32C960.965 488.013 963.28 487.36 965.856 487.36ZM968.936 495.76C966.882 495.76 965.221 496.432 963.952 497.776C962.72 499.12 962.104 500.987 962.104 503.376C962.104 505.765 962.72 507.632 963.952 508.976C965.221 510.32 966.882 510.992 968.936 510.992C970.952 510.992 972.594 510.301 973.864 508.92C975.17 507.539 975.824 505.691 975.824 503.376C975.824 501.024 975.17 499.176 973.864 497.832C972.594 496.451 970.952 495.76 968.936 495.76ZM1032.42 487.416C1036.27 487.416 1039.29 488.611 1041.5 491C1043.7 493.352 1044.8 496.637 1044.8 500.856V519H1035.28V501.976C1035.28 499.997 1034.74 498.467 1033.66 497.384C1032.61 496.264 1031.17 495.704 1029.34 495.704C1027.44 495.704 1025.93 496.301 1024.81 497.496C1023.73 498.653 1023.18 500.296 1023.18 502.424V519H1013.61V501.976C1013.61 499.997 1013.09 498.467 1012.04 497.384C1011 496.264 1009.56 495.704 1007.73 495.704C1005.82 495.704 1004.31 496.283 1003.19 497.44C1002.07 498.597 1001.51 500.259 1001.51 502.424V519H991.937V487.752H1001.51V493.072C1002.33 491.317 1003.58 489.936 1005.26 488.928C1006.98 487.92 1008.98 487.416 1011.26 487.416C1013.65 487.416 1015.76 487.976 1017.58 489.096C1019.41 490.179 1020.8 491.747 1021.73 493.8C1022.81 491.859 1024.29 490.309 1026.15 489.152C1028.06 487.995 1030.15 487.416 1032.42 487.416ZM1080.84 502.536C1080.84 503.32 1080.75 504.179 1080.56 505.112H1058.89C1059 507.464 1059.6 509.163 1060.68 510.208C1061.77 511.216 1063.15 511.72 1064.83 511.72C1066.25 511.72 1067.42 511.365 1068.36 510.656C1069.29 509.947 1069.9 509.032 1070.2 507.912H1080.34C1079.93 510.115 1079.03 512.093 1077.65 513.848C1076.27 515.565 1074.52 516.928 1072.39 517.936C1070.26 518.907 1067.89 519.392 1065.28 519.392C1062.21 519.392 1059.49 518.757 1057.1 517.488C1054.75 516.181 1052.9 514.315 1051.56 511.888C1050.21 509.461 1049.54 506.624 1049.54 503.376C1049.54 500.091 1050.19 497.253 1051.5 494.864C1052.84 492.437 1054.71 490.589 1057.1 489.32C1059.49 488.013 1062.21 487.36 1065.28 487.36C1068.37 487.36 1071.1 487.995 1073.45 489.264C1075.8 490.533 1077.61 492.325 1078.88 494.64C1080.19 496.917 1080.84 499.549 1080.84 502.536ZM1071.16 501.08C1071.19 499.027 1070.63 497.496 1069.48 496.488C1068.36 495.443 1066.96 494.92 1065.28 494.92C1063.52 494.92 1062.06 495.443 1060.91 496.488C1059.75 497.533 1059.1 499.064 1058.95 501.08H1071.16ZM1096.15 478.96C1096.15 477.504 1096.67 476.309 1097.72 475.376C1098.76 474.405 1100.14 473.92 1101.86 473.92C1103.58 473.92 1104.96 474.405 1106.01 475.376C1107.05 476.309 1107.57 477.504 1107.57 478.96C1107.57 480.379 1107.05 481.573 1106.01 482.544C1104.96 483.477 1103.58 483.944 1101.86 483.944C1100.14 483.944 1098.76 483.477 1097.72 482.544C1096.67 481.573 1096.15 480.379 1096.15 478.96ZM1106.62 487.752V519H1097.05V487.752H1106.62ZM1124.6 487.36C1128.56 487.36 1131.71 488.349 1134.07 490.328C1136.46 492.307 1137.95 494.92 1138.55 498.168H1129.59C1129.32 496.899 1128.73 495.909 1127.79 495.2C1126.9 494.453 1125.76 494.08 1124.38 494.08C1123.3 494.08 1122.47 494.323 1121.91 494.808C1121.35 495.256 1121.07 495.909 1121.07 496.768C1121.07 497.739 1121.58 498.467 1122.59 498.952C1123.63 499.437 1125.26 499.923 1127.46 500.408C1129.85 500.968 1131.81 501.547 1133.34 502.144C1134.87 502.704 1136.19 503.637 1137.31 504.944C1138.43 506.251 1138.99 508.005 1138.99 510.208C1138.99 512 1138.51 513.587 1137.54 514.968C1136.57 516.349 1135.17 517.432 1133.34 518.216C1131.51 519 1129.34 519.392 1126.84 519.392C1122.62 519.392 1119.24 518.459 1116.71 516.592C1114.17 514.725 1112.62 512.056 1112.06 508.584H1121.3C1121.45 509.928 1122.01 510.955 1122.98 511.664C1123.99 512.373 1125.27 512.728 1126.84 512.728C1127.92 512.728 1128.75 512.485 1129.31 512C1129.87 511.477 1130.15 510.805 1130.15 509.984C1130.15 508.901 1129.62 508.136 1128.58 507.688C1127.57 507.203 1125.91 506.699 1123.59 506.176C1121.28 505.691 1119.38 505.168 1117.88 504.608C1116.39 504.048 1115.1 503.152 1114.02 501.92C1112.94 500.651 1112.39 498.933 1112.39 496.768C1112.39 493.968 1113.46 491.709 1115.59 489.992C1117.71 488.237 1120.72 487.36 1124.6 487.36ZM1209.32 479.408L1199.86 519H1187.99L1181.66 492.512L1175.28 519H1163.4L1153.94 479.408H1164.36L1169.45 508.08L1176.4 479.408H1186.87L1193.81 508.08L1198.96 479.408H1209.32ZM1226.22 487.36C1228.61 487.36 1230.67 487.901 1232.38 488.984C1234.1 490.067 1235.37 491.541 1236.19 493.408V487.752H1245.71V519H1236.19V513.344C1235.37 515.211 1234.1 516.685 1232.38 517.768C1230.67 518.851 1228.61 519.392 1226.22 519.392C1223.65 519.392 1221.33 518.757 1219.28 517.488C1217.26 516.181 1215.66 514.315 1214.46 511.888C1213.31 509.461 1212.73 506.624 1212.73 503.376C1212.73 500.091 1213.31 497.253 1214.46 494.864C1215.66 492.437 1217.26 490.589 1219.28 489.32C1221.33 488.013 1223.65 487.36 1226.22 487.36ZM1229.3 495.76C1227.25 495.76 1225.59 496.432 1224.32 497.776C1223.09 499.12 1222.47 500.987 1222.47 503.376C1222.47 505.765 1223.09 507.632 1224.32 508.976C1225.59 510.32 1227.25 510.992 1229.3 510.992C1231.32 510.992 1232.96 510.301 1234.23 508.92C1235.54 507.539 1236.19 505.691 1236.19 503.376C1236.19 501.024 1235.54 499.176 1234.23 497.832C1232.96 496.451 1231.32 495.76 1229.3 495.76ZM1261.88 493.632C1263.07 491.728 1264.61 490.216 1266.47 489.096C1268.38 487.976 1270.43 487.416 1272.63 487.416V497.664H1269.89C1267.35 497.664 1265.37 498.205 1263.95 499.288C1262.57 500.371 1261.88 502.2 1261.88 504.776V519H1252.3V487.752H1261.88V493.632ZM1288.51 487.36C1290.9 487.36 1292.95 487.901 1294.67 488.984C1296.39 490.067 1297.64 491.541 1298.42 493.408V477.56H1308V519H1298.42V513.344C1297.64 515.211 1296.39 516.685 1294.67 517.768C1292.95 518.851 1290.9 519.392 1288.51 519.392C1285.94 519.392 1283.62 518.757 1281.57 517.488C1279.55 516.181 1277.95 514.315 1276.75 511.888C1275.59 509.461 1275.02 506.624 1275.02 503.376C1275.02 500.091 1275.59 497.253 1276.75 494.864C1277.95 492.437 1279.55 490.589 1281.57 489.32C1283.62 488.013 1285.94 487.36 1288.51 487.36ZM1291.59 495.76C1289.54 495.76 1287.88 496.432 1286.61 497.776C1285.38 499.12 1284.76 500.987 1284.76 503.376C1284.76 505.765 1285.38 507.632 1286.61 508.976C1287.88 510.32 1289.54 510.992 1291.59 510.992C1293.61 510.992 1295.25 510.301 1296.52 508.92C1297.83 507.539 1298.48 505.691 1298.48 503.376C1298.48 501.024 1297.83 499.176 1296.52 497.832C1295.25 496.451 1293.61 495.76 1291.59 495.76ZM1327.7 477.448L1326.52 504.832H1318.4L1317.23 477.448H1327.7ZM1327.47 509.424V519H1317.51V509.424H1327.47Z" fill="#F5533C" fill-opacity="0.8"/>
<path opacity="0.5" d="M832.056 582.984C832.056 584.093 831.789 585.128 831.256 586.088C830.723 587.027 829.912 587.784 828.824 588.36C827.736 588.936 826.403 589.224 824.824 589.224C823.288 589.224 821.912 588.957 820.696 588.424C819.48 587.869 818.509 587.101 817.784 586.12C817.059 585.139 816.643 584.008 816.536 582.728H820.44C820.547 583.709 820.963 584.552 821.688 585.256C822.435 585.96 823.427 586.312 824.664 586.312C825.773 586.312 826.627 586.013 827.224 585.416C827.843 584.819 828.152 584.051 828.152 583.112C828.152 582.301 827.928 581.64 827.48 581.128C827.032 580.595 826.477 580.179 825.816 579.88C825.155 579.581 824.248 579.24 823.096 578.856C821.688 578.408 820.536 577.96 819.64 577.512C818.765 577.064 818.019 576.413 817.4 575.56C816.781 574.707 816.472 573.587 816.472 572.2C816.472 570.984 816.771 569.917 817.368 569C817.965 568.083 818.819 567.379 819.928 566.888C821.037 566.376 822.317 566.12 823.768 566.12C826.072 566.12 827.896 566.675 829.24 567.784C830.605 568.893 831.384 570.344 831.576 572.136H827.64C827.491 571.283 827.085 570.557 826.424 569.96C825.784 569.341 824.899 569.032 823.768 569.032C822.744 569.032 821.923 569.299 821.304 569.832C820.685 570.344 820.376 571.091 820.376 572.072C820.376 572.84 820.589 573.48 821.016 573.992C821.443 574.483 821.976 574.877 822.616 575.176C823.277 575.453 824.173 575.784 825.304 576.168C826.733 576.616 827.896 577.075 828.792 577.544C829.709 577.992 830.477 578.653 831.096 579.528C831.736 580.403 832.056 581.555 832.056 582.984ZM845.564 571.08C847.612 571.08 849.255 571.741 850.492 573.064C851.729 574.387 852.348 576.275 852.348 578.728V589H848.7V579.112C848.7 577.533 848.295 576.317 847.484 575.464C846.673 574.589 845.564 574.152 844.156 574.152C842.705 574.152 841.543 574.621 840.668 575.56C839.793 576.477 839.356 577.832 839.356 579.624V589H835.708V565.32H839.356V575.24C839.825 573.917 840.615 572.893 841.724 572.168C842.833 571.443 844.113 571.08 845.564 571.08ZM863.686 571.144C865.286 571.144 866.652 571.539 867.782 572.328C868.913 573.117 869.713 574.163 870.182 575.464V571.368H873.83V589H870.182V584.904C869.713 586.205 868.913 587.251 867.782 588.04C866.652 588.829 865.286 589.224 863.686 589.224C862.15 589.224 860.774 588.861 859.558 588.136C858.364 587.411 857.425 586.365 856.742 585C856.06 583.635 855.718 582.024 855.718 580.168C855.718 578.333 856.06 576.733 856.742 575.368C857.425 574.003 858.364 572.957 859.558 572.232C860.774 571.507 862.15 571.144 863.686 571.144ZM864.806 574.344C863.185 574.344 861.884 574.867 860.902 575.912C859.942 576.936 859.462 578.355 859.462 580.168C859.462 581.981 859.942 583.411 860.902 584.456C861.884 585.48 863.185 585.992 864.806 585.992C865.83 585.992 866.748 585.757 867.558 585.288C868.369 584.797 869.009 584.115 869.478 583.24C869.948 582.365 870.182 581.341 870.182 580.168C870.182 579.016 869.948 578.003 869.478 577.128C869.009 576.232 868.369 575.549 867.558 575.08C866.748 574.589 865.83 574.344 864.806 574.344ZM881.856 574.824C882.453 573.672 883.307 572.765 884.416 572.104C885.525 571.421 886.805 571.08 888.256 571.08V575.048H887.168C885.568 575.048 884.277 575.443 883.296 576.232C882.336 577 881.856 578.28 881.856 580.072V589H878.208V571.368H881.856V574.824ZM890.477 566.248C890.477 565.629 890.691 565.117 891.117 564.712C891.544 564.307 892.109 564.104 892.813 564.104C893.517 564.104 894.083 564.307 894.509 564.712C894.957 565.117 895.181 565.629 895.181 566.248C895.181 566.867 894.957 567.368 894.509 567.752C894.083 568.136 893.517 568.328 892.813 568.328C892.109 568.328 891.544 568.136 891.117 567.752C890.691 567.368 890.477 566.867 890.477 566.248ZM894.637 571.368V589H890.989V571.368H894.637ZM908.908 571.08C910.956 571.08 912.598 571.741 913.836 573.064C915.073 574.387 915.692 576.275 915.692 578.728V589H912.044V579.112C912.044 577.533 911.638 576.317 910.828 575.464C910.017 574.589 908.908 574.152 907.5 574.152C906.049 574.152 904.886 574.621 904.012 575.56C903.137 576.477 902.7 577.832 902.7 579.624V589H899.052V571.368H902.7V575.24C903.169 573.917 903.958 572.893 905.068 572.168C906.177 571.443 907.457 571.08 908.908 571.08ZM927.03 571.144C928.63 571.144 929.995 571.539 931.126 572.328C932.257 573.117 933.057 574.163 933.526 575.464V571.368H937.174V589.192C937.174 590.835 936.833 592.285 936.15 593.544C935.489 594.824 934.529 595.827 933.27 596.552C932.011 597.277 930.518 597.64 928.79 597.64C926.315 597.64 924.31 597.053 922.774 595.88C921.259 594.707 920.31 593.117 919.926 591.112H923.542C923.841 592.157 924.417 592.968 925.27 593.544C926.123 594.141 927.211 594.44 928.534 594.44C929.985 594.44 931.179 593.992 932.118 593.096C933.057 592.2 933.526 590.899 933.526 589.192V584.904C933.057 586.205 932.257 587.251 931.126 588.04C929.995 588.829 928.63 589.224 927.03 589.224C925.494 589.224 924.118 588.861 922.902 588.136C921.707 587.411 920.769 586.365 920.086 585C919.403 583.635 919.062 582.024 919.062 580.168C919.062 578.333 919.403 576.733 920.086 575.368C920.769 574.003 921.707 572.957 922.902 572.232C924.118 571.507 925.494 571.144 927.03 571.144ZM928.15 574.344C926.529 574.344 925.227 574.867 924.246 575.912C923.286 576.936 922.806 578.355 922.806 580.168C922.806 581.981 923.286 583.411 924.246 584.456C925.227 585.48 926.529 585.992 928.15 585.992C929.174 585.992 930.091 585.757 930.902 585.288C931.713 584.797 932.353 584.115 932.822 583.24C933.291 582.365 933.526 581.341 933.526 580.168C933.526 579.016 933.291 578.003 932.822 577.128C932.353 576.232 931.713 575.549 930.902 575.08C930.091 574.589 929.174 574.344 928.15 574.344ZM956.124 571.144C957.724 571.144 959.089 571.539 960.22 572.328C961.35 573.117 962.15 574.163 962.62 575.464V571.368H966.268V589H962.62V584.904C962.15 586.205 961.35 587.251 960.22 588.04C959.089 588.829 957.724 589.224 956.124 589.224C954.588 589.224 953.212 588.861 951.996 588.136C950.801 587.411 949.862 586.365 949.18 585C948.497 583.635 948.156 582.024 948.156 580.168C948.156 578.333 948.497 576.733 949.18 575.368C949.862 574.003 950.801 572.957 951.996 572.232C953.212 571.507 954.588 571.144 956.124 571.144ZM957.244 574.344C955.622 574.344 954.321 574.867 953.34 575.912C952.38 576.936 951.9 578.355 951.9 580.168C951.9 581.981 952.38 583.411 953.34 584.456C954.321 585.48 955.622 585.992 957.244 585.992C958.268 585.992 959.185 585.757 959.996 585.288C960.806 584.797 961.446 584.115 961.916 583.24C962.385 582.365 962.62 581.341 962.62 580.168C962.62 579.016 962.385 578.003 961.916 577.128C961.446 576.232 960.806 575.549 959.996 575.08C959.185 574.589 958.268 574.344 957.244 574.344ZM1002.85 571.368L997.954 589H993.922L989.57 575.368L985.154 589H981.154L976.258 571.368H979.938L983.298 585.64L987.714 571.368H991.554L996.034 585.64L999.394 571.368H1002.85ZM1013.4 571.144C1015.1 571.144 1016.64 571.507 1018.01 572.232C1019.37 572.957 1020.44 574.003 1021.2 575.368C1021.97 576.733 1022.36 578.333 1022.36 580.168C1022.36 582.024 1021.97 583.635 1021.2 585C1020.44 586.365 1019.37 587.411 1018.01 588.136C1016.64 588.861 1015.1 589.224 1013.4 589.224C1011.69 589.224 1010.15 588.861 1008.79 588.136C1007.45 587.411 1006.38 586.365 1005.59 585C1004.82 583.613 1004.44 582.003 1004.44 580.168C1004.44 578.333 1004.82 576.733 1005.59 575.368C1006.38 574.003 1007.45 572.957 1008.79 572.232C1010.15 571.507 1011.69 571.144 1013.4 571.144ZM1013.4 574.312C1012.46 574.312 1011.59 574.525 1010.81 574.952C1010.02 575.379 1009.38 576.04 1008.89 576.936C1008.42 577.811 1008.18 578.888 1008.18 580.168C1008.18 581.469 1008.42 582.557 1008.89 583.432C1009.38 584.307 1010.02 584.957 1010.81 585.384C1011.59 585.811 1012.46 586.024 1013.4 586.024C1014.34 586.024 1015.2 585.811 1015.99 585.384C1016.78 584.957 1017.41 584.307 1017.88 583.432C1018.37 582.557 1018.61 581.469 1018.61 580.168C1018.61 578.888 1018.37 577.811 1017.88 576.936C1017.41 576.04 1016.78 575.379 1015.99 574.952C1015.2 574.525 1014.34 574.312 1013.4 574.312ZM1029.51 574.824C1030.11 573.672 1030.96 572.765 1032.07 572.104C1033.18 571.421 1034.46 571.08 1035.91 571.08V575.048H1034.82C1033.22 575.048 1031.93 575.443 1030.95 576.232C1029.99 577 1029.51 578.28 1029.51 580.072V589H1025.86V571.368H1029.51V574.824ZM1048.63 589L1042.29 581.16V589H1038.65V565.32H1042.29V578.888L1048.57 571.368H1052.95L1045.27 580.136L1053.14 589H1048.63ZM1062.51 566.248C1062.51 565.629 1062.72 565.117 1063.15 564.712C1063.58 564.307 1064.14 564.104 1064.84 564.104C1065.55 564.104 1066.11 564.307 1066.54 564.712C1066.99 565.117 1067.21 565.629 1067.21 566.248C1067.21 566.867 1066.99 567.368 1066.54 567.752C1066.11 568.136 1065.55 568.328 1064.84 568.328C1064.14 568.328 1063.58 568.136 1063.15 567.752C1062.72 567.368 1062.51 566.867 1062.51 566.248ZM1066.67 571.368V589H1063.02V571.368H1066.67ZM1076.88 571.144C1078.94 571.144 1080.6 571.677 1081.84 572.744C1083.09 573.789 1083.86 575.197 1084.14 576.968H1080.68C1080.53 576.008 1080.12 575.24 1079.44 574.664C1078.77 574.067 1077.89 573.768 1076.78 573.768C1075.86 573.768 1075.15 573.992 1074.64 574.44C1074.14 574.867 1073.9 575.453 1073.9 576.2C1073.9 576.755 1074.08 577.203 1074.44 577.544C1074.81 577.885 1075.25 578.152 1075.79 578.344C1076.34 578.536 1077.12 578.749 1078.12 578.984C1079.45 579.283 1080.51 579.592 1081.32 579.912C1082.16 580.232 1082.86 580.744 1083.44 581.448C1084.03 582.131 1084.33 583.069 1084.33 584.264C1084.33 585.736 1083.77 586.931 1082.64 587.848C1081.53 588.765 1080.02 589.224 1078.12 589.224C1075.93 589.224 1074.14 588.712 1072.78 587.688C1071.44 586.664 1070.62 585.235 1070.35 583.4H1073.9C1074.01 584.36 1074.43 585.139 1075.18 585.736C1075.93 586.333 1076.91 586.632 1078.12 586.632C1079 586.632 1079.68 586.408 1080.17 585.96C1080.68 585.491 1080.94 584.904 1080.94 584.2C1080.94 583.581 1080.75 583.091 1080.36 582.728C1079.98 582.365 1079.5 582.088 1078.92 581.896C1078.35 581.683 1077.56 581.469 1076.56 581.256C1075.28 580.957 1074.23 580.659 1073.42 580.36C1072.63 580.061 1071.95 579.581 1071.37 578.92C1070.82 578.237 1070.54 577.32 1070.54 576.168C1070.54 574.675 1071.09 573.469 1072.2 572.552C1073.33 571.613 1074.89 571.144 1076.88 571.144ZM1103.55 571.144C1105.26 571.144 1106.8 571.507 1108.16 572.232C1109.53 572.957 1110.59 574.003 1111.36 575.368C1112.13 576.733 1112.51 578.333 1112.51 580.168C1112.51 582.024 1112.13 583.635 1111.36 585C1110.59 586.365 1109.53 587.411 1108.16 588.136C1106.8 588.861 1105.26 589.224 1103.55 589.224C1101.85 589.224 1100.31 588.861 1098.95 588.136C1097.6 587.411 1096.53 586.365 1095.75 585C1094.98 583.613 1094.59 582.003 1094.59 580.168C1094.59 578.333 1094.98 576.733 1095.75 575.368C1096.53 574.003 1097.6 572.957 1098.95 572.232C1100.31 571.507 1101.85 571.144 1103.55 571.144ZM1103.55 574.312C1102.61 574.312 1101.75 574.525 1100.96 574.952C1100.17 575.379 1099.53 576.04 1099.04 576.936C1098.57 577.811 1098.34 578.888 1098.34 580.168C1098.34 581.469 1098.57 582.557 1099.04 583.432C1099.53 584.307 1100.17 584.957 1100.96 585.384C1101.75 585.811 1102.61 586.024 1103.55 586.024C1104.49 586.024 1105.36 585.811 1106.15 585.384C1106.93 584.957 1107.56 584.307 1108.03 583.432C1108.52 582.557 1108.77 581.469 1108.77 580.168C1108.77 578.888 1108.52 577.811 1108.03 576.936C1107.56 576.04 1106.93 575.379 1106.15 574.952C1105.36 574.525 1104.49 574.312 1103.55 574.312ZM1125.88 571.08C1127.92 571.08 1129.57 571.741 1130.8 573.064C1132.04 574.387 1132.66 576.275 1132.66 578.728V589H1129.01V579.112C1129.01 577.533 1128.61 576.317 1127.8 575.464C1126.99 574.589 1125.88 574.152 1124.47 574.152C1123.02 574.152 1121.86 574.621 1120.98 575.56C1120.11 576.477 1119.67 577.832 1119.67 579.624V589H1116.02V571.368H1119.67V575.24C1120.14 573.917 1120.93 572.893 1122.04 572.168C1123.15 571.443 1124.43 571.08 1125.88 571.08ZM1153.31 579.336C1153.31 579.933 1153.27 580.456 1153.18 580.904H1139.61C1139.68 582.717 1140.18 584.061 1141.12 584.936C1142.06 585.811 1143.22 586.248 1144.61 586.248C1145.82 586.248 1146.85 585.939 1147.68 585.32C1148.53 584.701 1149.05 583.88 1149.25 582.856H1153.15C1152.92 584.093 1152.43 585.192 1151.68 586.152C1150.93 587.112 1149.96 587.869 1148.77 588.424C1147.57 588.957 1146.24 589.224 1144.77 589.224C1143.06 589.224 1141.55 588.861 1140.22 588.136C1138.92 587.411 1137.9 586.365 1137.15 585C1136.4 583.635 1136.03 582.024 1136.03 580.168C1136.03 578.333 1136.4 576.733 1137.15 575.368C1137.9 574.003 1138.92 572.957 1140.22 572.232C1141.55 571.507 1143.06 571.144 1144.77 571.144C1146.49 571.144 1148 571.507 1149.28 572.232C1150.58 572.936 1151.57 573.917 1152.25 575.176C1152.96 576.413 1153.31 577.8 1153.31 579.336ZM1149.63 579.24C1149.67 578.088 1149.47 577.128 1149.02 576.36C1148.6 575.571 1148 574.995 1147.23 574.632C1146.48 574.248 1145.66 574.056 1144.77 574.056C1143.34 574.056 1142.14 574.493 1141.18 575.368C1140.22 576.243 1139.7 577.533 1139.61 579.24H1149.63ZM1174.45 571.144C1175.98 571.144 1177.35 571.507 1178.54 572.232C1179.76 572.957 1180.71 574.003 1181.39 575.368C1182.07 576.733 1182.41 578.333 1182.41 580.168C1182.41 582.024 1182.07 583.635 1181.39 585C1180.71 586.365 1179.76 587.411 1178.54 588.136C1177.35 588.861 1175.98 589.224 1174.45 589.224C1172.85 589.224 1171.48 588.829 1170.35 588.04C1169.22 587.251 1168.43 586.205 1167.98 584.904V597.384H1164.33V571.368H1167.98V575.464C1168.43 574.163 1169.22 573.117 1170.35 572.328C1171.48 571.539 1172.85 571.144 1174.45 571.144ZM1173.33 574.344C1172.3 574.344 1171.38 574.589 1170.57 575.08C1169.76 575.549 1169.12 576.232 1168.65 577.128C1168.18 578.003 1167.95 579.016 1167.95 580.168C1167.95 581.341 1168.18 582.365 1168.65 583.24C1169.12 584.115 1169.76 584.797 1170.57 585.288C1171.38 585.757 1172.3 585.992 1173.33 585.992C1174.95 585.992 1176.25 585.48 1177.23 584.456C1178.21 583.411 1178.7 581.981 1178.7 580.168C1178.7 578.376 1178.21 576.957 1177.23 575.912C1176.25 574.867 1174.95 574.344 1173.33 574.344ZM1189.57 574.824C1190.17 573.672 1191.03 572.765 1192.13 572.104C1193.24 571.421 1194.52 571.08 1195.97 571.08V575.048H1194.89C1193.29 575.048 1192 575.443 1191.01 576.232C1190.05 577 1189.57 578.28 1189.57 580.072V589H1185.93V571.368H1189.57V574.824ZM1206.77 571.144C1208.48 571.144 1210.01 571.507 1211.38 572.232C1212.75 572.957 1213.81 574.003 1214.58 575.368C1215.35 576.733 1215.73 578.333 1215.73 580.168C1215.73 582.024 1215.35 583.635 1214.58 585C1213.81 586.365 1212.75 587.411 1211.38 588.136C1210.01 588.861 1208.48 589.224 1206.77 589.224C1205.07 589.224 1203.53 588.861 1202.16 588.136C1200.82 587.411 1199.75 586.365 1198.96 585C1198.2 583.613 1197.81 582.003 1197.81 580.168C1197.81 578.333 1198.2 576.733 1198.96 575.368C1199.75 574.003 1200.82 572.957 1202.16 572.232C1203.53 571.507 1205.07 571.144 1206.77 571.144ZM1206.77 574.312C1205.83 574.312 1204.97 574.525 1204.18 574.952C1203.39 575.379 1202.75 576.04 1202.26 576.936C1201.79 577.811 1201.56 578.888 1201.56 580.168C1201.56 581.469 1201.79 582.557 1202.26 583.432C1202.75 584.307 1203.39 584.957 1204.18 585.384C1204.97 585.811 1205.83 586.024 1206.77 586.024C1207.71 586.024 1208.57 585.811 1209.36 585.384C1210.15 584.957 1210.78 584.307 1211.25 583.432C1211.74 582.557 1211.99 581.469 1211.99 580.168C1211.99 578.888 1211.74 577.811 1211.25 576.936C1210.78 576.04 1210.15 575.379 1209.36 574.952C1208.57 574.525 1207.71 574.312 1206.77 574.312ZM1227.3 571.144C1229.01 571.144 1230.55 571.507 1231.91 572.232C1233.28 572.957 1234.34 574.003 1235.11 575.368C1235.88 576.733 1236.26 578.333 1236.26 580.168C1236.26 582.024 1235.88 583.635 1235.11 585C1234.34 586.365 1233.28 587.411 1231.91 588.136C1230.55 588.861 1229.01 589.224 1227.3 589.224C1225.6 589.224 1224.06 588.861 1222.7 588.136C1221.35 587.411 1220.28 586.365 1219.5 585C1218.73 583.613 1218.34 582.003 1218.34 580.168C1218.34 578.333 1218.73 576.733 1219.5 575.368C1220.28 574.003 1221.35 572.957 1222.7 572.232C1224.06 571.507 1225.6 571.144 1227.3 571.144ZM1227.3 574.312C1226.36 574.312 1225.5 574.525 1224.71 574.952C1223.92 575.379 1223.28 576.04 1222.79 576.936C1222.32 577.811 1222.09 578.888 1222.09 580.168C1222.09 581.469 1222.32 582.557 1222.79 583.432C1223.28 584.307 1223.92 584.957 1224.71 585.384C1225.5 585.811 1226.36 586.024 1227.3 586.024C1228.24 586.024 1229.11 585.811 1229.9 585.384C1230.68 584.957 1231.31 584.307 1231.78 583.432C1232.27 582.557 1232.52 581.469 1232.52 580.168C1232.52 578.888 1232.27 577.811 1231.78 576.936C1231.31 576.04 1230.68 575.379 1229.9 574.952C1229.11 574.525 1228.24 574.312 1227.3 574.312ZM1247.99 567.72C1246.57 567.656 1245.56 567.891 1244.99 568.424C1244.41 568.936 1244.12 569.821 1244.12 571.08V571.368H1247.99V574.504H1244.12V589H1240.44V574.504H1238.04V571.368H1240.44V570.792C1240.44 568.637 1241.07 567.027 1242.33 565.96C1243.59 564.872 1245.48 564.392 1247.99 564.52V567.72ZM1267.29 585.832V589H1265.05C1263.17 589 1261.74 588.552 1260.76 587.656C1259.8 586.739 1259.32 585.224 1259.32 583.112V574.472H1256.79V571.368H1259.32V566.984H1263V571.368H1267.26V574.472H1263V583.176C1263 584.179 1263.18 584.872 1263.55 585.256C1263.93 585.64 1264.59 585.832 1265.53 585.832H1267.29ZM1280.56 571.08C1282.61 571.08 1284.25 571.741 1285.49 573.064C1286.73 574.387 1287.35 576.275 1287.35 578.728V589H1283.7V579.112C1283.7 577.533 1283.29 576.317 1282.48 575.464C1281.67 574.589 1280.56 574.152 1279.16 574.152C1277.71 574.152 1276.54 574.621 1275.67 575.56C1274.79 576.477 1274.36 577.832 1274.36 579.624V589H1270.71V565.32H1274.36V575.24C1274.83 573.917 1275.61 572.893 1276.72 572.168C1277.83 571.443 1279.11 571.08 1280.56 571.08ZM1298.69 571.144C1300.29 571.144 1301.65 571.539 1302.78 572.328C1303.91 573.117 1304.71 574.163 1305.18 575.464V571.368H1308.83V589H1305.18V584.904C1304.71 586.205 1303.91 587.251 1302.78 588.04C1301.65 588.829 1300.29 589.224 1298.69 589.224C1297.15 589.224 1295.77 588.861 1294.56 588.136C1293.36 587.411 1292.42 586.365 1291.74 585C1291.06 583.635 1290.72 582.024 1290.72 580.168C1290.72 578.333 1291.06 576.733 1291.74 575.368C1292.42 574.003 1293.36 572.957 1294.56 572.232C1295.77 571.507 1297.15 571.144 1298.69 571.144ZM1299.81 574.344C1298.18 574.344 1296.88 574.867 1295.9 575.912C1294.94 576.936 1294.46 578.355 1294.46 580.168C1294.46 581.981 1294.94 583.411 1295.9 584.456C1296.88 585.48 1298.18 585.992 1299.81 585.992C1300.83 585.992 1301.75 585.757 1302.56 585.288C1303.37 584.797 1304.01 584.115 1304.48 583.24C1304.95 582.365 1305.18 581.341 1305.18 580.168C1305.18 579.016 1304.95 578.003 1304.48 577.128C1304.01 576.232 1303.37 575.549 1302.56 575.08C1301.75 574.589 1300.83 574.344 1299.81 574.344ZM1322.07 585.832V589H1319.83C1317.95 589 1316.53 588.552 1315.54 587.656C1314.58 586.739 1314.1 585.224 1314.1 583.112V574.472H1311.58V571.368H1314.1V566.984H1317.78V571.368H1322.04V574.472H1317.78V583.176C1317.78 584.179 1317.97 584.872 1318.33 585.256C1318.71 585.64 1319.37 585.832 1320.31 585.832H1322.07ZM819.288 611.368L824.568 624.328L829.464 611.368H833.528L822.872 637.384H818.808L822.616 628.584L815.192 611.368H819.288ZM843.991 611.144C845.697 611.144 847.233 611.507 848.599 612.232C849.964 612.957 851.031 614.003 851.799 615.368C852.567 616.733 852.951 618.333 852.951 620.168C852.951 622.024 852.567 623.635 851.799 625C851.031 626.365 849.964 627.411 848.599 628.136C847.233 628.861 845.697 629.224 843.991 629.224C842.284 629.224 840.748 628.861 839.383 628.136C838.039 627.411 836.972 626.365 836.183 625C835.415 623.613 835.031 622.003 835.031 620.168C835.031 618.333 835.415 616.733 836.183 615.368C836.972 614.003 838.039 612.957 839.383 612.232C840.748 611.507 842.284 611.144 843.991 611.144ZM843.991 614.312C843.052 614.312 842.188 614.525 841.399 614.952C840.609 615.379 839.969 616.04 839.479 616.936C839.009 617.811 838.775 618.888 838.775 620.168C838.775 621.469 839.009 622.557 839.479 623.432C839.969 624.307 840.609 624.957 841.399 625.384C842.188 625.811 843.052 626.024 843.991 626.024C844.929 626.024 845.793 625.811 846.583 625.384C847.372 624.957 848.001 624.307 848.471 623.432C848.961 622.557 849.207 621.469 849.207 620.168C849.207 618.888 848.961 617.811 848.471 616.936C848.001 616.04 847.372 615.379 846.583 614.952C845.793 614.525 844.929 614.312 843.991 614.312ZM872.714 611.368V629H869.034V625.16C868.586 626.461 867.807 627.475 866.698 628.2C865.589 628.904 864.298 629.256 862.826 629.256C860.778 629.256 859.135 628.595 857.898 627.272C856.661 625.949 856.042 624.061 856.042 621.608V611.368H859.69V621.224C859.69 622.824 860.095 624.061 860.906 624.936C861.717 625.789 862.826 626.216 864.234 626.216C865.685 626.216 866.847 625.747 867.722 624.808C868.597 623.869 869.034 622.504 869.034 620.712V611.368H872.714ZM894.439 611.08C896.487 611.08 898.13 611.741 899.367 613.064C900.604 614.387 901.223 616.275 901.223 618.728V629H897.575V619.112C897.575 617.533 897.17 616.317 896.359 615.464C895.548 614.589 894.439 614.152 893.031 614.152C891.58 614.152 890.418 614.621 889.543 615.56C888.668 616.477 888.231 617.832 888.231 619.624V629H884.583V605.32H888.231V615.24C888.7 613.917 889.49 612.893 890.599 612.168C891.708 611.443 892.988 611.08 894.439 611.08ZM912.561 611.144C914.161 611.144 915.527 611.539 916.657 612.328C917.788 613.117 918.588 614.163 919.057 615.464V611.368H922.705V629H919.057V624.904C918.588 626.205 917.788 627.251 916.657 628.04C915.527 628.829 914.161 629.224 912.561 629.224C911.025 629.224 909.649 628.861 908.433 628.136C907.239 627.411 906.3 626.365 905.617 625C904.935 623.635 904.593 622.024 904.593 620.168C904.593 618.333 904.935 616.733 905.617 615.368C906.3 614.003 907.239 612.957 908.433 612.232C909.649 611.507 911.025 611.144 912.561 611.144ZM913.681 614.344C912.06 614.344 910.759 614.867 909.777 615.912C908.817 616.936 908.337 618.355 908.337 620.168C908.337 621.981 908.817 623.411 909.777 624.456C910.759 625.48 912.06 625.992 913.681 625.992C914.705 625.992 915.623 625.757 916.433 625.288C917.244 624.797 917.884 624.115 918.353 623.24C918.823 622.365 919.057 621.341 919.057 620.168C919.057 619.016 918.823 618.003 918.353 617.128C917.884 616.232 917.244 615.549 916.433 615.08C915.623 614.589 914.705 614.344 913.681 614.344ZM934.315 625.224L939.307 611.368H943.211L936.491 629H932.075L925.355 611.368H929.259L934.315 625.224ZM962.28 619.336C962.28 619.933 962.237 620.456 962.152 620.904H948.584C948.648 622.717 949.149 624.061 950.088 624.936C951.026 625.811 952.189 626.248 953.576 626.248C954.792 626.248 955.816 625.939 956.648 625.32C957.501 624.701 958.024 623.88 958.216 622.856H962.12C961.885 624.093 961.394 625.192 960.648 626.152C959.901 627.112 958.93 627.869 957.736 628.424C956.541 628.957 955.208 629.224 953.736 629.224C952.029 629.224 950.514 628.861 949.192 628.136C947.89 627.411 946.866 626.365 946.12 625C945.373 623.635 945 622.024 945 620.168C945 618.333 945.373 616.733 946.12 615.368C946.866 614.003 947.89 612.957 949.192 612.232C950.514 611.507 952.029 611.144 953.736 611.144C955.464 611.144 956.968 611.507 958.248 612.232C959.549 612.936 960.541 613.917 961.224 615.176C961.928 616.413 962.28 617.8 962.28 619.336ZM958.6 619.24C958.642 618.088 958.44 617.128 957.992 616.36C957.565 615.571 956.968 614.995 956.2 614.632C955.453 614.248 954.632 614.056 953.736 614.056C952.306 614.056 951.112 614.493 950.152 615.368C949.192 616.243 948.669 617.533 948.584 619.24H958.6ZM998.006 611.368L993.11 629H989.078L984.726 615.368L980.31 629H976.31L971.414 611.368H975.094L978.454 625.64L982.87 611.368H986.71L991.19 625.64L994.55 611.368H998.006ZM1008.55 611.144C1010.26 611.144 1011.8 611.507 1013.16 612.232C1014.53 612.957 1015.59 614.003 1016.36 615.368C1017.13 616.733 1017.51 618.333 1017.51 620.168C1017.51 622.024 1017.13 623.635 1016.36 625C1015.59 626.365 1014.53 627.411 1013.16 628.136C1011.8 628.861 1010.26 629.224 1008.55 629.224C1006.85 629.224 1005.31 628.861 1003.95 628.136C1002.6 627.411 1001.53 626.365 1000.75 625C999.977 623.613 999.593 622.003 999.593 620.168C999.593 618.333 999.977 616.733 1000.75 615.368C1001.53 614.003 1002.6 612.957 1003.95 612.232C1005.31 611.507 1006.85 611.144 1008.55 611.144ZM1008.55 614.312C1007.61 614.312 1006.75 614.525 1005.96 614.952C1005.17 615.379 1004.53 616.04 1004.04 616.936C1003.57 617.811 1003.34 618.888 1003.34 620.168C1003.34 621.469 1003.57 622.557 1004.04 623.432C1004.53 624.307 1005.17 624.957 1005.96 625.384C1006.75 625.811 1007.61 626.024 1008.55 626.024C1009.49 626.024 1010.36 625.811 1011.15 625.384C1011.93 624.957 1012.56 624.307 1013.03 623.432C1013.52 622.557 1013.77 621.469 1013.77 620.168C1013.77 618.888 1013.52 617.811 1013.03 616.936C1012.56 616.04 1011.93 615.379 1011.15 614.952C1010.36 614.525 1009.49 614.312 1008.55 614.312ZM1024.67 614.824C1025.27 613.672 1026.12 612.765 1027.23 612.104C1028.34 611.421 1029.62 611.08 1031.07 611.08V615.048H1029.98C1028.38 615.048 1027.09 615.443 1026.11 616.232C1025.15 617 1024.67 618.28 1024.67 620.072V629H1021.02V611.368H1024.67V614.824ZM1043.79 629L1037.45 621.16V629H1033.8V605.32H1037.45V618.888L1043.72 611.368H1048.11L1040.43 620.136L1048.3 629H1043.79ZM1067.06 619.336C1067.06 619.933 1067.02 620.456 1066.93 620.904H1053.36C1053.43 622.717 1053.93 624.061 1054.87 624.936C1055.81 625.811 1056.97 626.248 1058.36 626.248C1059.57 626.248 1060.6 625.939 1061.43 625.32C1062.28 624.701 1062.8 623.88 1063 622.856H1066.9C1066.67 624.093 1066.18 625.192 1065.43 626.152C1064.68 627.112 1063.71 627.869 1062.52 628.424C1061.32 628.957 1059.99 629.224 1058.52 629.224C1056.81 629.224 1055.3 628.861 1053.97 628.136C1052.67 627.411 1051.65 626.365 1050.9 625C1050.15 623.635 1049.78 622.024 1049.78 620.168C1049.78 618.333 1050.15 616.733 1050.9 615.368C1051.65 614.003 1052.67 612.957 1053.97 612.232C1055.3 611.507 1056.81 611.144 1058.52 611.144C1060.24 611.144 1061.75 611.507 1063.03 612.232C1064.33 612.936 1065.32 613.917 1066 615.176C1066.71 616.413 1067.06 617.8 1067.06 619.336ZM1063.38 619.24C1063.42 618.088 1063.22 617.128 1062.77 616.36C1062.35 615.571 1061.75 614.995 1060.98 614.632C1060.23 614.248 1059.41 614.056 1058.52 614.056C1057.09 614.056 1055.89 614.493 1054.93 615.368C1053.97 616.243 1053.45 617.533 1053.36 619.24H1063.38ZM1077.66 611.144C1079.26 611.144 1080.62 611.539 1081.75 612.328C1082.88 613.117 1083.67 614.163 1084.12 615.464V605.32H1087.8V629H1084.12V624.904C1083.67 626.205 1082.88 627.251 1081.75 628.04C1080.62 628.829 1079.26 629.224 1077.66 629.224C1076.12 629.224 1074.74 628.861 1073.53 628.136C1072.33 627.411 1071.39 626.365 1070.71 625C1070.03 623.635 1069.69 622.024 1069.69 620.168C1069.69 618.333 1070.03 616.733 1070.71 615.368C1071.39 614.003 1072.33 612.957 1073.53 612.232C1074.74 611.507 1076.12 611.144 1077.66 611.144ZM1078.78 614.344C1077.15 614.344 1075.85 614.867 1074.87 615.912C1073.91 616.936 1073.43 618.355 1073.43 620.168C1073.43 621.981 1073.91 623.411 1074.87 624.456C1075.85 625.48 1077.15 625.992 1078.78 625.992C1079.8 625.992 1080.72 625.757 1081.53 625.288C1082.34 624.797 1082.98 624.115 1083.45 623.24C1083.92 622.365 1084.15 621.341 1084.15 620.168C1084.15 619.016 1083.92 618.003 1083.45 617.128C1082.98 616.232 1082.34 615.549 1081.53 615.08C1080.72 614.589 1079.8 614.344 1078.78 614.344ZM1095.06 624.968V629H1090.93V624.968H1095.06Z" fill="#2B88D9"/>
<path d="M737 245.44L737 0.0143433L491.314 0.0143325L491.314 245.44L737 245.44Z" fill="#2B88D9"/>
<path d="M491.682 245.44L491.682 0.0147095L245.996 0.0146987L245.996 245.44L491.682 245.44Z" fill="#314259"/>
<path d="M246.261 245.425L246.261 -1.52588e-05L0.589172 -2.59974e-05L0.589162 245.425L246.261 245.425Z" fill="#A7F2F9"/>
<path d="M737 736.57L737 491.145L491.314 491.145L491.314 736.57L737 736.57Z" fill="#F5533C"/>
<path d="M491.682 736.57L491.682 491.145L245.996 491.145L245.996 736.57L491.682 736.57Z" fill="#2B88D9"/>
<path d="M246.246 735.996L246.246 491.145L0.574554 491.145L0.574544 735.996L246.246 735.996Z" fill="#A7F2F9"/>
<path d="M737 490.998L737 245.572L491.328 245.572L491.328 490.998L737 490.998Z" fill="#314259"/>
<path d="M491.682 490.998L491.682 245.572L245.996 245.572L245.996 490.998L491.682 490.998Z" fill="#A7F2F9"/>
<path d="M246.261 490.998L246.261 245.572L0.574463 245.572L0.574452 490.998L246.261 490.998Z" fill="#F5533C"/>
<path d="M633.12 490.998L491.328 490.998L491.328 354.75C492.801 354.75 494.274 354.75 495.747 354.75C532.007 354.726 566.804 369.04 592.542 394.566C618.279 420.093 632.867 454.76 633.12 490.998V490.998Z" fill="#4B71A6"/>
<path d="M699.324 121.233L511.565 121.233" stroke="#EAC2B5" stroke-width="4.7" stroke-linecap="round" stroke-linejoin="round"/>
<path d="M605.445 215.014L605.445 27.4526" stroke="#EAC2B5" stroke-width="4.7" stroke-linecap="round" stroke-linejoin="round"/>
<path d="M671.826 187.546L539.064 54.92" stroke="#EAC2B5" stroke-width="4.7" stroke-linecap="round" stroke-linejoin="round"/>
<path d="M539.063 187.546L671.826 54.92" stroke="#EAC2B5" stroke-width="4.7" stroke-linecap="round" stroke-linejoin="round"/>
<path d="M537.208 120.321C537.208 158.05 567.825 188.636 605.592 188.636C643.36 188.636 673.977 158.05 673.977 120.321C673.977 82.5912 643.36 52.0055 605.592 52.0055C567.825 52.0055 537.208 82.5912 537.208 120.321Z" fill="#EAC2B5"/>
<path d="M556.399 120.321C556.399 147.465 578.424 169.47 605.592 169.47C632.761 169.47 654.786 147.465 654.786 120.321C654.786 93.1759 632.761 71.1708 605.592 71.1708C578.424 71.1708 556.399 93.1759 556.399 120.321Z" stroke="#2B88D9" stroke-width="9.4" stroke-miterlimit="10"/>
<path d="M672.916 121.233L537.988 121.233" stroke="#EAC2B5" stroke-width="4.7" stroke-linecap="round" stroke-linejoin="round"/>
<path d="M605.445 188.621L605.445 53.8307" stroke="#EAC2B5" stroke-width="4.7" stroke-linecap="round" stroke-linejoin="round"/>
<path d="M653.151 168.882L557.739 73.5996" stroke="#EAC2B5" stroke-width="4.7" stroke-linecap="round" stroke-linejoin="round"/>
<path d="M557.739 168.882L653.151 73.5996" stroke="#EAC2B5" stroke-width="4.7" stroke-linecap="round" stroke-linejoin="round"/>
<path d="M628.053 319.246C628.053 339.244 644.281 355.457 664.3 355.457C684.319 355.457 700.547 339.244 700.547 319.246C700.547 299.247 684.319 283.035 664.3 283.035C644.281 283.035 628.053 299.247 628.053 319.246Z" stroke="#FDF9F4" stroke-width="4.81" stroke-linecap="round" stroke-linejoin="round"/>
<path d="M713.434 319.246L615.048 319.246" stroke="#FDF9F4" stroke-width="4.81" stroke-linecap="round" stroke-linejoin="round"/>
<path d="M664.3 368.381L664.3 270.096" stroke="#FDF9F4" stroke-width="4.81" stroke-linecap="round" stroke-linejoin="round"/>
<path d="M699.089 353.985L629.482 284.492" stroke="#FDF9F4" stroke-width="4.81" stroke-linecap="round" stroke-linejoin="round"/>
<path d="M629.482 353.985L699.089 284.492" stroke="#FDF9F4" stroke-width="4.81" stroke-linecap="round" stroke-linejoin="round"/>
<path d="M630.807 318.878C630.807 337.072 645.572 351.821 663.785 351.821C681.997 351.821 696.762 337.072 696.762 318.878C696.762 300.684 681.997 285.934 663.785 285.934C645.572 285.934 630.807 300.684 630.807 318.878Z" fill="#314259"/>
<path d="M644.21 318.878C644.21 329.682 652.974 338.44 663.785 338.44C674.595 338.44 683.359 329.682 683.359 318.878C683.359 308.073 674.595 299.315 663.785 299.315C652.974 299.315 644.21 308.073 644.21 318.878Z" stroke="#FDF9F4" stroke-width="3.77" stroke-linecap="round" stroke-linejoin="round"/>
<path d="M535.97 452.755C533.808 450.82 532.501 448.108 532.332 445.212C532.164 442.317 533.149 439.472 535.072 437.299L595.68 369.264C597.619 367.102 600.335 365.795 603.235 365.626C606.134 365.458 608.983 366.443 611.16 368.366V368.366C613.321 370.301 614.629 373.013 614.798 375.909C614.966 378.805 613.981 381.649 612.058 383.822L551.421 451.902C549.477 454.048 546.764 455.342 543.871 455.502C540.978 455.661 538.14 454.675 535.97 452.755Z" fill="#4B71A6"/>
<path d="M551.421 461.381C550.652 458.58 551.024 455.589 552.457 453.062C553.889 450.535 556.266 448.678 559.065 447.898L646.876 423.58C649.685 422.802 652.687 423.17 655.225 424.602C657.763 426.035 659.628 428.415 660.412 431.22V431.22C661.181 434.021 660.808 437.012 659.376 439.539C657.943 442.066 655.567 443.923 652.768 444.703L564.912 469.021C562.11 469.785 559.118 469.411 556.591 467.98C554.063 466.549 552.205 464.177 551.421 461.381V461.381Z" fill="#4B71A6"/>
<path d="M533.172 329.859L533.157 329.859C527.106 329.859 522.199 334.762 522.199 340.81L522.199 431.897C522.199 437.946 527.106 442.849 533.157 442.849L533.172 442.849C539.224 442.849 544.13 437.946 544.13 431.897L544.13 340.81C544.13 334.762 539.224 329.859 533.172 329.859Z" fill="#4B71A6"/>
<path d="M579.405 120.321C579.405 134.767 591.129 146.478 605.592 146.478C620.055 146.478 631.78 134.767 631.78 120.321C631.78 105.874 620.055 94.1633 605.592 94.1633C591.129 94.1633 579.405 105.874 579.405 120.321Z" stroke="#2B88D9" stroke-width="2.35" stroke-linecap="round" stroke-linejoin="round"/>
<path d="M504.996 394.759C500.424 394.762 495.857 395.082 491.328 395.716L491.328 400.971C495.853 400.291 500.421 399.951 504.996 399.955C529.266 399.976 552.553 409.538 569.827 426.576C587.101 443.614 596.974 466.759 597.315 491.012L602.514 491.012C602.173 465.381 591.752 440.914 573.503 422.902C555.254 404.889 530.645 394.78 504.996 394.759V394.759Z" fill="#A7F2F9"/>
<path d="M504.997 428.453C500.4 428.44 495.816 428.933 491.328 429.925L491.328 435.239C499.845 433.204 508.709 433.101 517.27 434.936C525.831 436.772 533.873 440.501 540.804 445.848C547.735 451.196 553.38 458.027 557.325 465.839C561.27 473.652 563.415 482.248 563.601 490.998L568.8 490.998C568.465 474.303 561.597 458.405 549.669 446.712C537.742 435.02 521.704 428.465 504.997 428.453V428.453Z" fill="#A7F2F9"/>
<path d="M692.432 590.99L692.432 490.689L671.664 490.689L671.664 590.99L692.432 590.99Z" fill="#314259"/>
<path d="M642.811 634.797L642.811 534.495L622.044 534.495L622.044 634.797L642.811 634.797Z" fill="#EAC2B5"/>
<path d="M589.715 733.95L589.715 633.648L568.948 633.648L568.948 733.95L589.715 733.95Z" fill="#314259"/>
<path d="M589.715 531.036L589.715 507.984L566.635 507.984L566.635 531.036L589.715 531.036Z" fill="#314259"/>
<path d="M589.715 579.45L589.715 556.398L566.635 556.398L566.635 579.45L589.715 579.45Z" fill="#314259"/>
<path d="M542.407 531.036L542.407 507.984L519.327 507.984L519.327 531.036L542.407 531.036Z" fill="#314259"/>
<path d="M542.407 579.45L542.407 556.398L519.327 556.398L519.327 579.45L542.407 579.45Z" fill="#EAC2B5"/>
<path d="M542.407 631.337L542.407 608.286L519.327 608.286L519.327 631.337L542.407 631.337Z" stroke="#FDF9F4" stroke-width="1.18" stroke-miterlimit="10"/>
<path d="M642.811 679.751L642.811 656.7L619.732 656.7L619.732 679.751L642.811 679.751Z" fill="#EAC2B5"/>
<path d="M692.432 637.093L692.432 614.041L669.352 614.041L669.352 637.093L692.432 637.093Z" fill="#EAC2B5"/>
<path d="M640.499 720.687L640.499 697.636L617.419 697.636L617.419 720.687L640.499 720.687Z" stroke="#FDF9F4" stroke-width="1.18" stroke-miterlimit="10"/>
<path d="M692.432 720.687L692.432 697.636L669.352 697.636L669.352 720.687L692.432 720.687Z" fill="#EAC2B5"/>
<path d="M692.432 676.292L692.432 653.241L669.352 653.241L669.352 676.292L692.432 676.292Z" fill="#314259"/>
<path d="M291.404 62.383L438.541 197.276" stroke="#F5533C" stroke-width="15.28" stroke-linejoin="round"/>
<path d="M426.42 57.2016C426.42 65.7946 433.397 72.7605 442.003 72.7605C450.609 72.7605 457.585 65.7946 457.585 57.2016C457.585 48.6086 450.609 41.6426 442.003 41.6426C433.397 41.6426 426.42 48.6086 426.42 57.2016Z" fill="#EAC2B5"/>
<path d="M334.16 195.127C334.16 203.72 341.137 210.686 349.743 210.686C358.349 210.686 365.326 203.72 365.326 195.127C365.326 186.534 358.349 179.568 349.743 179.568C341.137 179.568 334.16 186.534 334.16 195.127Z" fill="#EAC2B5"/>
<path d="M277.029 192.522C277.029 201.115 284.005 208.081 292.611 208.081C301.217 208.081 308.194 201.115 308.194 192.522C308.194 183.929 301.217 176.963 292.611 176.963C284.005 176.963 277.029 183.929 277.029 192.522Z" fill="#EAC2B5"/>
<path d="M365.311 56.7747C365.311 65.3677 372.288 72.3337 380.894 72.3337C389.5 72.3337 396.477 65.3677 396.477 56.7747C396.477 48.1817 389.5 41.2158 380.894 41.2158C372.288 41.2158 365.311 48.1817 365.311 56.7747Z" stroke="#FDF9F4" stroke-width="1.18" stroke-miterlimit="10"/>
<path d="M168.259 294.119C168.259 294.119 245.819 366.246 165.755 439.964C165.755 439.964 83.0542 373.665 168.259 294.119Z" fill="#EAC2B5"/>
<path d="M137.476 367.321C137.476 382.881 150.104 395.495 165.681 395.495C181.258 395.495 193.886 382.881 193.886 367.321C193.886 351.761 181.258 339.147 165.681 339.147C150.104 339.147 137.476 351.761 137.476 367.321Z" fill="#314259"/>
<path d="M144.737 367.321C144.737 378.881 154.114 388.253 165.681 388.253C177.248 388.253 186.625 378.881 186.625 367.321C186.625 355.761 177.248 346.389 165.681 346.389C154.114 346.389 144.737 355.761 144.737 367.321Z" stroke="#F5533C" stroke-width="2.35" stroke-linejoin="round"/>
<path d="M77.0892 292.926C77.0892 292.926 154.649 365.054 74.5853 438.771C74.5706 438.801 -8.08581 372.517 77.0892 292.926Z" fill="#EAC2B5"/>
<path d="M46.3065 366.173C46.3065 381.733 58.9344 394.347 74.5117 394.347C90.0889 394.347 102.717 381.733 102.717 366.173C102.717 350.613 90.0889 337.999 74.5117 337.999C58.9344 337.999 46.3065 350.613 46.3065 366.173Z" fill="#F5533C"/>
<path d="M64.7908 366.173C64.7908 371.538 69.143 375.888 74.5116 375.888C79.8803 375.888 84.2324 371.538 84.2324 366.173C84.2324 360.807 79.8803 356.458 74.5117 356.458C69.143 356.458 64.7908 360.807 64.7908 366.173Z" fill="#314259"/>
<path d="M213.505 245.366L213.505 -3.05176e-05L171.97 -3.23331e-05L171.97 245.366L213.505 245.366Z" fill="#314259"/>
<path d="M137.093 245.366L137.093 -3.05176e-05L110.788 -3.16674e-05L110.788 245.366L137.093 245.366Z" fill="#314259"/>
<path d="M89.2549 245.366L89.2549 -3.05176e-05L73.0093 -3.12277e-05L73.0093 245.366L89.2549 245.366Z" fill="#314259"/>
<path d="M57.5295 246.235L57.5295 -3.05176e-05L41.2987 -3.12271e-05L41.2987 246.235L57.5295 246.235Z" fill="#314259"/>
<path d="M29.251 245.366L29.251 -3.05176e-05L12.9907 -3.12283e-05L12.9907 245.366L29.251 245.366Z" fill="#314259"/>
<path d="M438.541 656.979L438.542 571.118L364.104 528.18L289.666 571.118L289.666 656.979L364.104 699.917L438.541 656.979Z" fill="#EAC2B5"/>
<path d="M413.886 642.76L413.886 585.338L364.104 556.619L314.321 585.338L314.321 642.76L364.104 671.464L413.886 642.76Z" stroke="#2B88D9" stroke-width="2.13" stroke-linecap="round" stroke-linejoin="round"/>
<path d="M379.51 598.644L348.697 629.438" stroke="#2B88D9" stroke-width="2.13" stroke-linecap="round" stroke-linejoin="round"/>
<path d="M379.51 629.438L348.697 598.644" stroke="#2B88D9" stroke-width="2.13" stroke-linecap="round" stroke-linejoin="round"/>
<path d="M333.571 614.041C333.571 630.886 347.241 644.541 364.104 644.541C380.966 644.541 394.636 630.886 394.636 614.041C394.636 597.197 380.966 583.542 364.104 583.542C347.241 583.542 333.571 597.197 333.571 614.041Z" stroke="#2B88D9" stroke-width="2.13" stroke-linecap="round" stroke-linejoin="round"/>
<path d="M491.608 354.088L491.608 275.042L300.27 275.042L300.27 354.088L491.608 354.088Z" fill="#3C5069"/>
<path d="M442.724 316.169C442.724 324.047 449.121 330.433 457.011 330.433C464.901 330.433 471.298 324.047 471.298 316.169C471.298 308.292 464.901 301.906 457.011 301.906C449.121 301.906 442.724 308.292 442.724 316.169Z" fill="#F5533C"/>
<path d="M439.307 520.658C439.307 528.536 445.704 534.922 453.594 534.922C461.484 534.922 467.881 528.536 467.881 520.658C467.881 512.781 461.484 506.395 453.594 506.395C445.704 506.395 439.307 512.781 439.307 520.658Z" fill="#314259"/>
<path d="M265.349 697.032C265.349 704.91 271.745 711.296 279.636 711.296C287.526 711.296 293.922 704.91 293.922 697.032C293.922 689.155 287.526 682.769 279.636 682.769C271.745 682.769 265.349 689.155 265.349 697.032Z" fill="#314259"/>
<path d="M382.706 315.448C382.706 323.325 389.102 329.711 396.992 329.711C404.883 329.711 411.279 323.325 411.279 315.448C411.279 307.57 404.883 301.184 396.992 301.184C389.102 301.184 382.706 307.57 382.706 315.448Z" stroke="#222840" stroke-width="2.17" stroke-linecap="round" stroke-linejoin="round"/>
<path d="M330.773 313.858C330.773 321.736 337.169 328.122 345.06 328.122C352.95 328.122 359.346 321.736 359.346 313.858C359.346 305.981 352.95 299.594 345.06 299.594C337.169 299.594 330.773 305.981 330.773 313.858Z" stroke="#222840" stroke-width="2.17" stroke-linecap="round" stroke-linejoin="round"/>
<path d="M283.892 320.629L283.892 309.678L245.23 309.678L245.23 320.629L283.892 320.629Z" fill="#314259"/>
<path d="M271.785 315.006L271.785 314.403C271.808 310.139 273.514 306.056 276.53 303.041C279.547 300.026 283.632 298.322 287.898 298.299L349.375 298.299C353.641 298.322 357.726 300.026 360.743 303.041C363.76 306.056 365.465 310.139 365.488 314.403L365.488 315.006C365.465 319.27 363.76 323.353 360.743 326.368C357.726 329.383 353.641 331.087 349.375 331.11L287.898 331.11C283.632 331.087 279.547 329.383 276.53 326.368C273.514 323.353 271.808 319.27 271.785 315.006V315.006Z" fill="white"/>
<path d="M333.807 330.433L333.807 297.004" stroke="#222840" stroke-width="2.17" stroke-linecap="round" stroke-linejoin="round"/>
<path d="M451.017 380.024C451.017 383.3 453.674 385.956 456.952 385.956C460.23 385.956 462.888 383.3 462.888 380.024C462.888 376.748 460.23 374.092 456.952 374.092C453.674 374.092 451.017 376.748 451.017 380.024Z" stroke="#222840" stroke-width="1.18" stroke-miterlimit="10"/>
<path d="M451.017 407.065C451.017 410.341 453.674 412.997 456.952 412.997C460.23 412.997 462.888 410.341 462.888 407.065C462.888 403.788 460.23 401.133 456.952 401.133C453.674 401.133 451.017 403.788 451.017 407.065Z" stroke="#222840" stroke-width="1.18" stroke-miterlimit="10"/>
<path d="M451.017 434.09C451.017 437.367 453.674 440.023 456.952 440.023C460.23 440.023 462.888 437.367 462.888 434.09C462.888 430.814 460.23 428.158 456.952 428.158C453.674 428.158 451.017 430.814 451.017 434.09Z" stroke="#222840" stroke-width="1.18" stroke-miterlimit="10"/>
<path d="M451.017 461.116C451.017 464.392 453.674 467.048 456.952 467.048C460.23 467.048 462.888 464.392 462.888 461.116C462.888 457.84 460.23 455.184 456.952 455.184C453.674 455.184 451.017 457.84 451.017 461.116Z" stroke="#222840" stroke-width="1.18" stroke-miterlimit="10"/>
<path d="M424.299 379.7C424.299 382.977 426.956 385.632 430.235 385.632C433.513 385.632 436.17 382.977 436.17 379.7C436.17 376.424 433.513 373.768 430.235 373.768C426.956 373.768 424.299 376.424 424.299 379.7Z" stroke="#222840" stroke-width="1.18" stroke-miterlimit="10"/>
<path d="M424.299 406.726C424.299 410.002 426.956 412.658 430.235 412.658C433.513 412.658 436.17 410.002 436.17 406.726C436.17 403.45 433.513 400.794 430.235 400.794C426.956 400.794 424.299 403.45 424.299 406.726Z" stroke="#222840" stroke-width="1.18" stroke-miterlimit="10"/>
<path d="M424.299 433.752C424.299 437.028 426.956 439.684 430.235 439.684C433.513 439.684 436.17 437.028 436.17 433.752C436.17 430.476 433.513 427.82 430.235 427.82C426.956 427.82 424.299 430.476 424.299 433.752Z" stroke="#222840" stroke-width="1.18" stroke-miterlimit="10"/>
<path d="M424.299 460.792C424.299 464.069 426.956 466.725 430.235 466.725C433.513 466.725 436.17 464.069 436.17 460.792C436.17 457.516 433.513 454.86 430.235 454.86C426.956 454.86 424.299 457.516 424.299 460.792Z" stroke="#222840" stroke-width="1.18" stroke-miterlimit="10"/>
<path d="M397.567 379.376C397.567 382.653 400.224 385.309 403.502 385.309C406.781 385.309 409.438 382.653 409.438 379.376C409.438 376.1 406.781 373.444 403.502 373.444C400.224 373.444 397.567 376.1 397.567 379.376Z" stroke="#222840" stroke-width="1.18" stroke-miterlimit="10"/>
<path d="M397.567 406.402C397.567 409.678 400.224 412.334 403.502 412.334C406.781 412.334 409.438 409.678 409.438 406.402C409.438 403.126 406.781 400.47 403.502 400.47C400.224 400.47 397.567 403.126 397.567 406.402Z" stroke="#222840" stroke-width="1.18" stroke-miterlimit="10"/>
<path d="M397.567 433.428C397.567 436.704 400.224 439.36 403.502 439.36C406.781 439.36 409.438 436.704 409.438 433.428C409.438 430.152 406.781 427.496 403.502 427.496C400.224 427.496 397.567 430.152 397.567 433.428Z" stroke="#222840" stroke-width="1.18" stroke-miterlimit="10"/>
<path d="M397.567 460.454C397.567 463.73 400.224 466.386 403.502 466.386C406.781 466.386 409.438 463.73 409.438 460.454C409.438 457.178 406.781 454.522 403.502 454.522C400.224 454.522 397.567 457.178 397.567 460.454Z" stroke="#222840" stroke-width="1.18" stroke-miterlimit="10"/>
<path d="M370.834 379.038C370.834 382.314 373.492 384.97 376.77 384.97C380.048 384.97 382.706 382.314 382.706 379.038C382.706 375.762 380.048 373.106 376.77 373.106C373.492 373.106 370.834 375.762 370.834 379.038Z" stroke="#222840" stroke-width="1.18" stroke-miterlimit="10"/>
<path d="M370.834 406.064C370.834 409.34 373.492 411.996 376.77 411.996C380.048 411.996 382.706 409.34 382.706 406.064C382.706 402.787 380.048 400.132 376.77 400.132C373.492 400.132 370.834 402.787 370.834 406.064Z" stroke="#222840" stroke-width="1.18" stroke-miterlimit="10"/>
<path d="M370.834 433.104C370.834 436.38 373.492 439.036 376.77 439.036C380.048 439.036 382.706 436.38 382.706 433.104C382.706 429.828 380.048 427.172 376.77 427.172C373.492 427.172 370.834 429.828 370.834 433.104Z" stroke="#222840" stroke-width="1.18" stroke-miterlimit="10"/>
<path d="M370.834 460.13C370.834 463.406 373.492 466.062 376.77 466.062C380.048 466.062 382.706 463.406 382.706 460.13C382.706 456.854 380.048 454.198 376.77 454.198C373.492 454.198 370.834 456.854 370.834 460.13Z" stroke="#222840" stroke-width="1.18" stroke-miterlimit="10"/>
<path d="M342.733 378.861C342.733 382.138 345.39 384.793 348.668 384.793C351.946 384.793 354.604 382.138 354.604 378.861C354.604 375.585 351.946 372.929 348.668 372.929C345.39 372.929 342.733 375.585 342.733 378.861Z" fill="#314259"/>
<path d="M342.733 405.887C342.733 409.163 345.39 411.819 348.668 411.819C351.946 411.819 354.604 409.163 354.604 405.887C354.604 402.611 351.946 399.955 348.668 399.955C345.39 399.955 342.733 402.611 342.733 405.887Z" fill="#314259"/>
<path d="M342.733 432.913C342.733 436.189 345.39 438.845 348.668 438.845C351.946 438.845 354.604 436.189 354.604 432.913C354.604 429.637 351.946 426.981 348.668 426.981C345.39 426.981 342.733 429.637 342.733 432.913Z" fill="#314259"/>
<path d="M342.733 459.939C342.733 463.215 345.39 465.871 348.668 465.871C351.946 465.871 354.604 463.215 354.604 459.939C354.604 456.662 351.946 454.006 348.668 454.006C345.39 454.006 342.733 456.662 342.733 459.939Z" fill="#314259"/>
<path d="M316 378.523C316 381.799 318.658 384.455 321.936 384.455C325.214 384.455 327.871 381.799 327.871 378.523C327.871 375.246 325.214 372.591 321.936 372.591C318.658 372.591 316 375.246 316 378.523Z" fill="#314259"/>
<path d="M316 405.563C316 408.839 318.658 411.495 321.936 411.495C325.214 411.495 327.871 408.839 327.871 405.563C327.871 402.287 325.214 399.631 321.936 399.631C318.658 399.631 316 402.287 316 405.563Z" fill="#314259"/>
<path d="M316 432.589C316 435.865 318.658 438.521 321.936 438.521C325.214 438.521 327.871 435.865 327.871 432.589C327.871 429.313 325.214 426.657 321.936 426.657C318.658 426.657 316 429.313 316 432.589Z" fill="#314259"/>
<path d="M316 459.615C316 462.891 318.658 465.547 321.936 465.547C325.214 465.547 327.871 462.891 327.871 459.615C327.871 456.338 325.214 453.683 321.936 453.683C318.658 453.683 316 456.338 316 459.615Z" fill="#314259"/>
<path d="M289.283 378.199C289.283 381.475 291.94 384.131 295.218 384.131C298.496 384.131 301.154 381.475 301.154 378.199C301.154 374.923 298.496 372.267 295.218 372.267C291.94 372.267 289.283 374.923 289.283 378.199Z" fill="#314259"/>
<path d="M289.283 405.225C289.283 408.501 291.94 411.157 295.218 411.157C298.496 411.157 301.154 408.501 301.154 405.225C301.154 401.948 298.496 399.293 295.218 399.293C291.94 399.293 289.283 401.948 289.283 405.225Z" fill="#314259"/>
<path d="M289.283 432.25C289.283 435.527 291.94 438.183 295.218 438.183C298.496 438.183 301.154 435.527 301.154 432.25C301.154 428.974 298.496 426.318 295.218 426.318C291.94 426.318 289.283 428.974 289.283 432.25Z" fill="#314259"/>
<path d="M289.283 459.291C289.283 462.567 291.94 465.223 295.218 465.223C298.496 465.223 301.154 462.567 301.154 459.291C301.154 456.015 298.496 453.359 295.218 453.359C291.94 453.359 289.283 456.015 289.283 459.291Z" fill="#314259"/>
<path d="M262.55 377.86C262.55 381.137 265.208 383.792 268.486 383.792C271.764 383.792 274.422 381.137 274.422 377.86C274.422 374.584 271.764 371.928 268.486 371.928C265.208 371.928 262.55 374.584 262.55 377.86Z" fill="#314259"/>
<path d="M262.55 404.901C262.55 408.177 265.208 410.833 268.486 410.833C271.764 410.833 274.422 408.177 274.422 404.901C274.422 401.625 271.764 398.969 268.486 398.969C265.208 398.969 262.55 401.625 262.55 404.901Z" fill="#314259"/>
<path d="M262.55 431.927C262.55 435.203 265.208 437.859 268.486 437.859C271.764 437.859 274.422 435.203 274.422 431.927C274.422 428.65 271.764 425.994 268.486 425.994C265.208 425.994 262.55 428.65 262.55 431.927Z" fill="#314259"/>
<path d="M262.55 458.952C262.55 462.229 265.208 464.884 268.486 464.884C271.764 464.884 274.422 462.229 274.422 458.952C274.422 455.676 271.764 453.02 268.486 453.02C265.208 453.02 262.55 455.676 262.55 458.952Z" fill="#314259"/>
<path d="M119.949 584.219C107.846 584.223 95.8599 581.844 84.6766 577.218C73.4932 572.592 63.3312 565.81 54.7708 557.258C46.2103 548.707 39.4192 538.554 34.7852 527.379C30.1512 516.205 27.7651 504.227 27.7632 492.131L27.7632 491.145L212.12 491.145L212.12 492.131C212.118 504.226 209.732 516.202 205.099 527.376C200.466 538.55 193.676 548.702 185.118 557.253C176.559 565.804 166.398 572.587 155.217 577.214C144.035 581.84 132.051 584.221 119.949 584.219V584.219Z" fill="#314259"/>
<path d="M178.362 690.556L178.362 545.299C178.362 539.568 173.713 534.922 167.979 534.922C162.244 534.922 157.595 539.568 157.595 545.299L157.595 690.556C157.595 696.287 162.244 700.933 167.979 700.933C173.713 700.933 178.362 696.287 178.362 690.556Z" fill="#F5533C"/>
<path d="M131.629 690.556L131.629 545.299C131.629 539.568 126.98 534.922 121.245 534.922C115.51 534.922 110.861 539.568 110.861 545.299L110.861 690.556C110.861 696.287 115.51 700.933 121.245 700.933C126.98 700.933 131.629 696.287 131.629 690.556Z" fill="#F5533C"/>
<path d="M82.303 690.556L82.303 545.299C82.303 539.568 77.6541 534.922 71.9194 534.922C66.1847 534.922 61.5358 539.568 61.5358 545.299L61.5358 690.556C61.5358 696.287 66.1846 700.933 71.9194 700.933C77.6541 700.933 82.303 696.287 82.303 690.556Z" fill="#F5533C"/>
<path d="M226.35 706.11L206.95 686.715L187.545 706.103L206.944 725.498L226.35 706.11Z" fill="white"/>
<path d="M49.8107 524.539L30.4116 505.144L11.0058 524.532L30.4049 543.926L49.8107 524.539Z" fill="white"/>
<path d="M214.727 69.6252L214.727 26.5253L171.587 26.5253L171.587 69.6252L214.727 69.6252Z" fill="#F5533C"/>
<path d="M171.867 97.3134L171.867 70.3759L144.899 70.3759L144.899 97.3134L171.867 97.3134Z" fill="white"/>
<path d="M74.5115 190.932L74.5115 163.995L47.5436 163.995L47.5436 190.932L74.5115 190.932Z" fill="white"/>
<path d="M53.7297 69.0217L53.7297 42.0842L26.7618 42.0842L26.7618 69.0217L53.7297 69.0217Z" fill="white"/>
<g clip-path="url(#clip1)">
<path d="M871.603 83.9992C873 82.5288 874.138 80.841 874.969 79.0046C876.322 76.0402 876.998 72.7712 876.998 69.1976C876.998 65.1633 876.342 61.6238 875.03 58.5789C873.718 55.534 871.786 53.1578 869.234 51.4502C866.68 49.7451 863.523 48.8926 859.763 48.8926C857.805 48.8922 855.875 49.3446 854.129 50.2132C852.284 51.1319 850.65 52.4098 849.325 53.9688C848.311 55.1587 847.463 56.4761 846.804 57.8861C846.188 56.1177 845.272 54.4638 844.095 52.9937C842.781 51.3812 841.092 50.0999 839.17 49.2566C837.151 48.3979 834.969 47.9693 832.768 47.9992C829.012 47.9992 825.809 48.9334 823.158 50.802C820.508 52.6705 818.483 55.2034 817.084 58.4006C815.695 61.5916 815 65.1906 815 69.1976C814.998 71.6975 815.354 74.1853 816.057 76.5882C816.724 78.922 817.795 81.126 819.224 83.1039C819.451 83.4159 819.707 83.7038 819.955 83.9954C819.707 84.2889 819.451 84.5749 819.224 84.887C817.795 86.8666 816.724 89.0725 816.057 91.4083C815.353 93.8118 814.998 96.3002 815 98.8007C815 102.807 815.695 106.407 817.084 109.603C818.473 112.799 820.493 115.331 823.145 117.198C825.797 119.067 829 120.001 832.753 120.001C834.952 120.03 837.133 119.601 839.151 118.742C841.073 117.898 842.762 116.617 844.076 115.005C845.256 113.535 846.175 111.881 846.795 110.112C847.454 111.522 848.301 112.84 849.316 114.029C850.64 115.589 852.275 116.866 854.12 117.785C855.865 118.654 857.795 119.106 859.753 119.106C863.507 119.106 866.664 118.253 869.224 116.548C871.784 114.843 873.717 112.467 875.022 109.421C876.333 106.375 876.989 102.836 876.991 98.8026C876.991 95.229 876.314 91.9599 874.962 88.9955C874.132 87.1591 872.998 85.4706 871.603 83.9992ZM865.955 103.429C865.359 104.516 864.443 105.401 863.326 105.968C862.155 106.538 860.862 106.824 859.556 106.801C857.926 106.801 856.504 106.496 855.29 105.887C854.074 105.275 853.087 104.299 852.474 103.101C851.811 101.855 851.479 100.285 851.479 98.3902V92.0584H841.709V98.394C841.709 100.343 841.419 102.008 840.839 103.388C840.293 104.73 839.31 105.858 838.043 106.596C836.759 107.354 835.068 107.733 832.971 107.733C830.651 107.733 828.753 106.968 827.277 105.439C825.8 103.91 825.062 101.805 825.06 99.1239C825.031 97.644 825.365 96.1788 826.034 94.8519C826.632 93.6619 827.539 92.6468 828.663 91.9079C829.767 91.1905 831.066 90.8158 832.391 90.8325V77.1602C831.066 77.177 829.767 76.8022 828.663 76.0848C827.539 75.346 826.632 74.3308 826.034 73.1408C825.365 71.8139 825.031 70.3488 825.06 68.8688C825.06 66.188 825.799 64.0829 827.277 62.5537C828.754 61.0244 830.653 60.2592 832.974 60.258C835.072 60.258 836.763 60.6369 838.047 61.3947C839.314 62.1328 840.297 63.2604 840.843 64.6024C841.42 65.988 841.709 67.6553 841.709 69.6044V75.9399H851.483V69.6044C851.483 67.7098 851.814 66.1397 852.477 64.894C853.091 63.6957 854.077 62.7199 855.294 62.1079C856.509 61.4987 857.931 61.1941 859.56 61.1941C860.866 61.171 862.159 61.4564 863.329 62.0262C864.446 62.5954 865.361 63.4816 865.955 64.569C866.603 65.7057 866.927 67.1408 866.928 68.8744C866.937 70.1597 866.67 71.4324 866.144 72.6096C865.665 73.7163 864.902 74.6821 863.928 75.4124C862.954 76.1232 861.766 76.4945 860.552 76.4674V91.5309C861.766 91.5038 862.954 91.8751 863.928 92.5859C864.902 93.3162 865.665 94.282 866.144 95.3887C866.671 96.5664 866.939 97.8397 866.93 99.1258C866.934 100.857 866.609 102.291 865.955 103.429Z" fill="url(#paint0_linear)"/>
</g>
</g>
<defs>
<linearGradient id="paint0_linear" x1="876.824" y1="33.4353" x2="829.223" y2="114.656" gradientUnits="userSpaceOnUse">
<stop stop-color="#1D4ED8"/>
<stop offset="1" stop-color="#3B82F6"/>
</linearGradient>
<clipPath id="clip0">
<rect width="1440" height="736" fill="white"/>
</clipPath>
<clipPath id="clip1">
<rect width="62" height="72" fill="white" transform="translate(815 48)"/>
</clipPath>
</defs>
</svg>
