<svg xmlns="http://www.w3.org/2000/svg" xmlns:xlink="http://www.w3.org/1999/xlink" viewBox="0 0 750 500"><defs><style>.cls-1{fill:url(#linear-gradient);}.cls-2{fill:url(#linear-gradient-2);}.cls-3{fill:url(#linear-gradient-3);}.cls-4{fill:url(#linear-gradient-4);}.cls-5{fill:url(#linear-gradient-5);}.cls-6{fill:url(#linear-gradient-6);}.cls-7{fill:url(#linear-gradient-7);}.cls-8{fill:url(#linear-gradient-8);}.cls-9{fill:url(#linear-gradient-9);}.cls-10{fill:url(#linear-gradient-10);}.cls-11{fill:url(#linear-gradient-11);}.cls-12{fill:url(#linear-gradient-12);}.cls-13{fill:url(#linear-gradient-13);}.cls-14{fill:url(#linear-gradient-14);}.cls-15{fill:url(#linear-gradient-15);}.cls-16{fill:url(#linear-gradient-16);}.cls-17{fill:url(#linear-gradient-17);}.cls-18{fill:url(#linear-gradient-18);}.cls-19{fill:url(#linear-gradient-19);}.cls-20{fill:url(#linear-gradient-20);}.cls-21{fill:url(#linear-gradient-21);}.cls-22{fill:url(#linear-gradient-22);}.cls-23{fill:url(#linear-gradient-23);}</style><linearGradient id="linear-gradient" x1="173" y1="-99.88" x2="577" y2="599.88" gradientUnits="userSpaceOnUse"><stop offset="0" stop-color="#fcaa67"/><stop offset="1" stop-color="#d77853"/></linearGradient><linearGradient id="linear-gradient-2" x1="25.61" y1="2.6" x2="35.9" y2="20.42" gradientUnits="userSpaceOnUse"><stop offset="0" stop-color="#dd5646"/><stop offset="0.61" stop-color="#b0413e"/><stop offset="1" stop-color="#9a303e"/></linearGradient><linearGradient id="linear-gradient-3" x1="81.04" y1="18.61" x2="100.23" y2="51.85" gradientUnits="userSpaceOnUse"><stop offset="0" stop-color="#54a29a"/><stop offset="0.48" stop-color="#548687"/><stop offset="1" stop-color="#406376"/></linearGradient><linearGradient id="linear-gradient-4" x1="447.62" y1="-99.97" x2="568.21" y2="108.91" xlink:href="#linear-gradient-3"/><linearGradient id="linear-gradient-5" x1="446.73" y1="-72.92" x2="530.93" y2="72.92" xlink:href="#linear-gradient-2"/><linearGradient id="linear-gradient-6" x1="297.21" y1="-64.51" x2="457.14" y2="212.5" gradientUnits="userSpaceOnUse"><stop offset="0.38" stop-color="#ffffc7"/><stop offset="0.53" stop-color="#f9f8c2"/><stop offset="0.75" stop-color="#eae6b2"/><stop offset="1" stop-color="#d0c799"/><stop offset="1" stop-color="#d0c799"/></linearGradient><linearGradient id="linear-gradient-7" x1="297.18" y1="-32.78" x2="482.12" y2="287.55" xlink:href="#linear-gradient-2"/><linearGradient id="linear-gradient-8" x1="283.9" y1="1.64" x2="485.23" y2="350.36" xlink:href="#linear-gradient-3"/><linearGradient id="linear-gradient-9" x1="269.98" y1="33.84" x2="480.43" y2="398.36" xlink:href="#linear-gradient-6"/><linearGradient id="linear-gradient-10" x1="265.3" y1="56.35" x2="475.85" y2="421.04" xlink:href="#linear-gradient-2"/><linearGradient id="linear-gradient-11" x1="265.66" y1="80.36" x2="470.89" y2="435.83" xlink:href="#linear-gradient-3"/><linearGradient id="linear-gradient-12" x1="273.59" y1="113.07" x2="466.96" y2="447.99" xlink:href="#linear-gradient-6"/><linearGradient id="linear-gradient-13" x1="89.48" y1="258.99" x2="243.04" y2="524.96" xlink:href="#linear-gradient-2"/><linearGradient id="linear-gradient-14" x1="546.94" y1="365.83" x2="585.55" y2="432.7" xlink:href="#linear-gradient-2"/><linearGradient id="linear-gradient-15" x1="572.07" y1="376.21" x2="636.04" y2="487.02" xlink:href="#linear-gradient-3"/><linearGradient id="linear-gradient-16" x1="76.71" y1="292.26" x2="212.47" y2="527.39" xlink:href="#linear-gradient-3"/><linearGradient id="linear-gradient-17" x1="683.44" y1="374.56" x2="741.17" y2="474.55" xlink:href="#linear-gradient-6"/><linearGradient id="linear-gradient-18" x1="63.49" y1="336.34" x2="179.3" y2="536.93" xlink:href="#linear-gradient-6"/><linearGradient id="linear-gradient-19" x1="724.24" y1="448.7" x2="749.33" y2="492.16" xlink:href="#linear-gradient-2"/><linearGradient id="linear-gradient-20" x1="510.04" y1="444.26" x2="564.26" y2="538.17" xlink:href="#linear-gradient-6"/><linearGradient id="linear-gradient-21" x1="0.63" y1="442.59" x2="39.47" y2="509.87" xlink:href="#linear-gradient-2"/><linearGradient id="linear-gradient-22" x1="512.01" y1="477.78" x2="535.4" y2="518.29" xlink:href="#linear-gradient-2"/><linearGradient id="linear-gradient-23" x1="166.96" y1="481.6" x2="188.21" y2="518.4" xlink:href="#linear-gradient-2"/></defs><title>service</title><g id="BACKGROUND"><rect class="cls-1" width="750" height="500"/></g><g id="OBJECTS"><path class="cls-2" d="M35.26,0H71.08C50,10.15,31.1,24.23,10.26,34.85A94.71,94.71,0,0,1,0,39.6V17.39A76.7,76.7,0,0,0,10.07,13C18.61,9,26.86,4.33,35.26,0Z"/><path class="cls-3" d="M129,0H190a21.45,21.45,0,0,0-4.29,1.29c-27.92,11.32-55.58,23.29-82.82,36.17-14,6.62-27.62,14-41.34,21.17C41.72,69,21.73,79.67,0,85.67V65.4c14.78-5.25,28.6-12.83,42.11-20.73,18-10.6,35.54-21.87,54.15-31.32A199.4,199.4,0,0,1,129,0Z"/><path class="cls-4" d="M274.48,0h22.95a61.8,61.8,0,0,1,6,7.08,229.34,229.34,0,0,1,15.46,23,176.51,176.51,0,0,1,11.94,25.69c3.8,9.89,6.91,20,11,29.8,3.25,7.52,7.09,15.18,13.52,20.49a26.31,26.31,0,0,0,13.12,5.5c10.28.88,20.49-1.23,30.46-3.53,10.75-2.56,21.5-5.25,31.82-9.23,17.44-6.61,32.38-18,47.81-28.22C489.69,63.18,501.35,56.31,514,51.9a88.59,88.59,0,0,1,29-5.29c9.53-.18,19,1.17,28.45,2.19a66.18,66.18,0,0,0,19-.13c9.93-1.57,19.3-5.51,28.18-10.09,17-8.86,32.52-20.25,49.7-28.77A182.5,182.5,0,0,1,691.83,0H750V4a134.17,134.17,0,0,0-45.95,4.56A163.26,163.26,0,0,0,660.49,28c-16.77,10.33-32.11,23-50,31.53a74.35,74.35,0,0,1-34,7.6c-6.15-.26-12.29-.93-18.46-.79a93.8,93.8,0,0,0-40.46,9.39c-13.74,6.55-26.12,15.53-38.2,24.7s-24,19-37.49,26.07c-10.95,5.61-22.83,9.19-34.84,11.68-9.19,1.84-18.44,3.4-27.77,4.38-9.09.8-18.42,1.28-27.35-1a27.15,27.15,0,0,1-15.18-10.34c-5.3-7.12-8.08-15.72-10.41-24.19-5.23-19.72-7.86-40.28-16.24-59-6.75-15-15.31-29.37-26.89-41.13C280.57,4.25,277.85,1.62,274.48,0Z"/><path class="cls-5" d="M320.43,0H351a31.27,31.27,0,0,1,5.84,3.2,139.37,139.37,0,0,0,16.26,9.7c1.28.58,2.57,1.17,3.88,1.72l2.53,1c2.31.77,4.66,1.4,7,2,2.13.34,4.26.7,6.42.91a68.58,68.58,0,0,0,11.2.16c2.47-.48,5-.58,7.49-1s5-1,7.46-1.56c.66-.18,1.34-.31,2-.45s1.31-.38,2-.55c2.84-.79,5.68-1.6,8.5-2.49,1-.34,2-.66,3-1l1.49-.53,1.5-.46c9.94-3.41,19.84-7,30-9.72A32.26,32.26,0,0,1,473.11,0h60.73c13,2.79,25.46,7.79,38.62,9.91a68.93,68.93,0,0,0,26,.13C608.92,8,618.93,4.21,628.67,0h28.56c-13.54,6.82-26.65,14.54-40.61,20.53-10,4.24-20.55,7.79-31.52,8.07a100.16,100.16,0,0,1-19.29-2.11c-14.36-2.58-28.62-6.66-43.33-6.34-16.92,0-33.38,5.15-48.59,12.24-10.88,5.06-21.23,11.16-32,16.48-2.13,1-4.26,2.08-6.44,3-1.16.51-2.32,1-3.49,1.51-.83.32-1.67.66-2.5,1-1.63.61-3.27,1.2-4.9,1.81l-.65.12a43.89,43.89,0,0,1-5,1.57l-2.41.71c-.68.13-1.34.26-2,.45s-1.37.34-2,.54c-.83.15-1.65.3-2.47.5s-1.68.3-2.51.5c-1.7.25-3.38.56-5.07.84-1.91.46-3.91.2-5.8.75a114.79,114.79,0,0,1-12.31,0,17.48,17.48,0,0,0-3-.52c-.8-.21-1.61-.39-2.41-.55-.51-.18-1-.34-1.54-.47-1.37-.54-2.76-1-4.12-1.53l-.06-.46-.91.17-.09-.45a30,30,0,0,1-5.34-3.24c-7.75-5.84-13.31-13.93-18.79-21.79-6.26-9.25-12.46-18.63-20.31-26.63A52.23,52.23,0,0,0,320.43,0Z"/><path class="cls-6" d="M713.38,21.48A111.42,111.42,0,0,1,750,17.77V31.36a96.77,96.77,0,0,0-29.7,3.83,115.4,115.4,0,0,0-28.67,13.35,203.92,203.92,0,0,0-23,16.6c-13.18,10.94-25.45,23.42-41,31-9.59,4.7-20.1,7.2-30.65,8.53a166.77,166.77,0,0,1-24.46,1.42A78.8,78.8,0,0,0,514,127c-9.33,8.6-16.15,19.51-21.82,30.76-4.54,8.91-8.37,18.16-12.66,27.19-3,6.25-6.26,12.47-10.68,17.87a36,36,0,0,1-14.92,11.11,39.39,39.39,0,0,1-18.87,2c-7.21-.69-14.21-2.73-21-5.06-10.34-3.53-20.32-8-30.57-11.82A335.07,335.07,0,0,0,348,188c-8.5-2.34-17.24-4.2-25.15-8.21a39.4,39.4,0,0,1-15.92-14.68c-4.8-7.81-7.4-16.72-9.46-25.58-3-13.09-4.66-26.51-8.62-39.38a57.68,57.68,0,0,0-10.38-20A83.23,83.23,0,0,0,259.93,63a50,50,0,0,0-15.39-6.56c-6.63-1.57-13.49-1.41-20.25-1a430.8,430.8,0,0,0-47.85,8c-19.58,4.63-39.16,9.41-58.23,15.88-20,6.77-39.66,14.6-59.11,22.87-10.48,4.41-20.88,9-31.52,13.06A126,126,0,0,1,0,122.7V107.09c16.18-2.78,31.52-8.94,46.47-15.55,20.29-9,40.47-18.18,61-26.54,19.75-8.23,39.84-15.58,59.86-23.08s39.8-16.22,61-19.94c9.76-1.62,20.13-2.47,29.6,1.05s16.7,10.54,23.13,17.9a83.81,83.81,0,0,1,15.27,23.78c7.44,18.06,9.3,37.69,12.91,56.73,2,10.09,4.31,20.35,9.44,29.37a33.53,33.53,0,0,0,15,14.09c8.1,3.76,17.08,4.87,25.83,6.12,12.49,1.53,25,2.84,37.49,4.33,11.43,1.19,23.15,2.54,34.49-.08a56.61,56.61,0,0,0,26.35-14.52c10.56-10,18.76-22.15,28.7-32.75,11.4-12.37,24.8-23.1,40-30.42,14-6.61,29.5-10.52,45-9.48,19.36,1.14,38.75-4.66,55-15.05,15.65-9.94,29.31-22.68,45-32.61A156.23,156.23,0,0,1,713.38,21.48Z"/><path class="cls-7" d="M720.8,63.22A73.18,73.18,0,0,1,750,52.86V82.21a4.24,4.24,0,0,1-1.08.72c-7.34,4-13.74,9.5-19.63,15.38-8.21,8.56-15.33,18.06-23.1,27a108.33,108.33,0,0,1-24,20.81,83.23,83.23,0,0,1-10.65,6c-.37.16-.74.34-1.09.51q-2.46,1-5,2l-1.5.53-1.08.27a56.27,56.27,0,0,1-17.44,2.47c-11.17.31-22.16-2.19-32.95-4.82-12.08-3-24.18-6.3-36.62-7.32-6.69-.52-13.56-.26-20,1.92a41.5,41.5,0,0,0-19.08,14.22c-6.85,9-10.79,19.81-13.56,30.68-3.78,15-5.39,30.38-8.54,45.47-2.18,10.34-5,20.73-10.34,29.94-4.22,7.26-10.41,13.63-18.24,16.91-7.12,3.13-15.12,3.5-22.76,2.68-13.42-1.79-26-7.44-37.73-13.87-23.55-13-44.58-29.89-67.3-44.19A223.09,223.09,0,0,0,328.9,214c-8.43-3.67-17.19-6.53-25.54-10.39A68.78,68.78,0,0,1,283.2,189.3c-6-5.93-10.88-12.86-16.14-19.44a61.9,61.9,0,0,0-7.43-8c-3.79-3.4-8-6.28-11.68-9.84-7.78-7.16-14-15.78-20.87-23.74-8.59-9.93-18.94-18.66-31.09-23.86-14.08-6.11-29.79-7.71-45-6.44-20.45,1.72-40.29,7.57-59.52,14.51a545.68,545.68,0,0,0-53.62,23.38C25.56,141.75,13.32,148.06,0,151.17V138.79c8.44-1.33,16.53-4.23,24.44-7.38,11.84-4.8,23.37-10.29,35.11-15.3,24.27-10.37,49-20,74.86-25.76C154.88,85.9,176.14,84,197,87.14c13.42,1.92,26.66,6,38.21,13.25,8.9,5.49,16.44,12.81,24.31,19.62a101.41,101.41,0,0,1,10.25,9.79A49.45,49.45,0,0,1,277,142.49c3.84,9.21,6.72,18.84,11.43,27.67a55,55,0,0,0,15.06,18.41c6.44,5,14.16,7.93,21.78,10.59a303.19,303.19,0,0,1,29.89,11.76c17.89,8.22,34.17,19.4,51.11,29.33C418,247.09,430,253.69,443,257.79c8.34,2.54,17.31,4.09,26,2.19a31.14,31.14,0,0,0,17.88-11.07c5.27-6.5,8.35-14.41,10.8-22.32,5.79-19.56,8.29-40.07,15.92-59.08,4.57-11.56,11.28-22.63,21.27-30.26a45.6,45.6,0,0,1,20.65-9c7.93-1.36,16-.69,24-.46,8.52.34,17,1.09,25.54,1.55,11,.69,22.29.84,33.06-2A65,65,0,0,0,660.63,116c8.68-6.46,16.25-14.23,24.26-21.47C696.44,83.67,707.13,71.57,720.8,63.22Z"/><path class="cls-8" d="M134,110c9.89-1.69,20-2.71,30-1.5a67.28,67.28,0,0,1,26.36,8.67,68.3,68.3,0,0,1,16.75,14.24c12.35,13.85,19.08,31.69,31.53,45.44,5.11,5.81,11.36,10.44,17.67,14.86,8.46,5.92,16.92,11.9,26,16.9A226.35,226.35,0,0,0,307.13,220a233.52,233.52,0,0,1,25.24,11.67,239.24,239.24,0,0,1,22.15,13.85c15.28,10.65,30,22.1,45.28,32.73,12.39,8.58,25.15,16.75,38.89,23,12.44,5.59,26,9.75,39.78,8.91a45.44,45.44,0,0,0,29.8-13.35c6.5-6.49,11.12-14.62,14.56-23.08,4.17-10.35,6.63-21.29,8.66-32.24,2.12-11.36,3.65-22.85,6.71-34,2.3-8.34,5.54-16.58,10.75-23.56,4.3-5.77,10.09-10.63,17-13,5.64-2,11.77-2,17.63-1.14a89.57,89.57,0,0,1,17,4.45c10.73,3.79,21.17,8.38,32,12a134.39,134.39,0,0,0,30,7,85.87,85.87,0,0,0,34-3.18c.51-.16,1-.31,1.56-.45,2.17-.77,4.34-1.54,6.45-2.47,8.55-3.89,15.89-10,22.11-17,7.24-8,13.51-16.8,20-25.43,1-1.37,1.92-2.94,3.39-3.92V189c-5.52,6.59-11.15,13.23-18.1,18.38A55,55,0,0,1,703,218.72c-21.47,1.85-42.94-3-63.05-10.16-11.7-4.15-23.07-9.16-34.75-13.37-8.81-3.1-18.19-5.91-27.62-4.55a27.08,27.08,0,0,0-15.65,8.26c-6.41,6.32-10.25,14.72-12.93,23.19-3.48,11.12-5.5,22.61-8.4,33.88-4,15.86-9.65,31.72-19.72,44.83-5.87,7.67-13.38,14.27-22.27,18.21-10.8,4.81-23,5.77-34.63,3.82-15.33-2.52-29.65-9.09-43.07-16.72-27.46-15.75-51.58-36.45-77.64-54.28A204.18,204.18,0,0,0,320,237.92c-10.34-5.31-21.24-9.41-31.9-14-8-3.43-15.91-6.95-23.72-10.74-8.37-4.11-16.68-8.66-23.51-15.1-11.31-10.51-18.25-24.53-25.52-37.91-5.77-10.75-12.41-21.29-21.58-29.5a59.84,59.84,0,0,0-35.78-15c-12.12-.86-24.22,1.2-36,4.05A268.4,268.4,0,0,0,69.49,139.5c-14.39,7-27.91,15.63-41.55,24-9,5.37-18.17,10.67-27.93,14.63V165.56c12.58-4,24.12-10.58,35.64-16.92A423.16,423.16,0,0,1,78,127.55C96,119.94,114.67,113.53,134,110Z"/><path class="cls-9" d="M94.38,137.41C110.53,130.68,127.49,125.3,145,124c12.53-1,25.53,1.51,36.21,8.31,11.53,7.25,19.68,18.65,26.09,30.44,7.88,14.55,14.31,30.11,25.07,42.89a71,71,0,0,0,20.73,17.17c7.23,3.89,14.89,6.89,22.46,10,11.21,4.63,22.58,8.91,33.51,14.19a199.55,199.55,0,0,1,22.89,13c27.44,18,52.46,39.5,80.73,56.26,13,7.64,26.75,14.38,41.5,17.88,13.84,3.31,28.67,3.33,42.22-1.31,15.51-5.33,27.9-17.2,36.93-30.59C542.95,288.21,548.78,272,554,256c3.09-9,6-18.27,11-26.45,4-6.48,10-12,17.27-14.36,5.77-1.91,12-1.56,17.9-.5a154.86,154.86,0,0,1,21.53,6.06c19.46,6.69,38.77,14.13,59,18.13,10.59,2,21.38,3.85,32.2,3.09a53.79,53.79,0,0,0,28.84-10.58c2.95-2.06,5.44-4.68,8.21-7v17.14c-5.69,4.59-11.9,8.65-18.86,11-10.6,3.85-22.16,4.19-33.22,2.53-20.85-3.17-41-9.73-61-16.19-10-3.12-20.06-6.37-30.46-7.86-6.9-.92-14.36-1-20.66,2.36A43.48,43.48,0,0,0,570,249c-4.92,7.94-8.41,16.63-12.3,25.09-6.79,15.23-14.77,30.15-25.85,42.73a91.69,91.69,0,0,1-23.41,19.6A70.73,70.73,0,0,1,482.52,345a91.66,91.66,0,0,1-37.12-2.86c-14.24-4-27.53-10.68-40.13-18.29C377.78,307.11,353.17,286.2,326,269a215.21,215.21,0,0,0-22.26-12.41c-10.41-5-21.29-8.91-32-13.31-8.47-3.52-17.12-6.94-24.54-12.45-12.81-9.46-22.69-22.37-30.36-36.23-8-14.16-13.78-29.67-24.07-42.42-5.9-7.43-13.4-13.76-22.25-17.34-11.43-4.84-24.25-4.82-36.3-2.7-19.16,3.38-37.35,10.95-54.34,20.26-15.1,8.23-28.76,18.75-42.57,28.91-8.58,6.28-17.17,12.55-26,18.52-3.74,2.48-7.44,5-11.37,7.22V193.76c17.15-9.06,32.87-20.5,48.91-31.34A258,258,0,0,1,94.38,137.41Z"/><path class="cls-10" d="M125.09,143.1c9.7-2.56,19.85-4.16,29.88-2.88a47.78,47.78,0,0,1,25.29,11c8.07,6.87,14,15.86,19,25.08,4.53,8.3,8.6,16.84,13.31,25a202.47,202.47,0,0,0,17.82,26.22c5.49,6.81,11.35,13.41,18.34,18.74A67.14,67.14,0,0,0,264.44,255c11,4.51,22.13,8.64,32.94,13.57a224.26,224.26,0,0,1,22.55,11.95C347,296.85,371,317.58,398,334c13.27,8,27.4,14.85,42.49,18.64,20.31,5.13,42.38,4.37,61.82-3.74a92.94,92.94,0,0,0,24.81-16.19c12.4-11,22.35-24.41,31.07-38.42,5.62-8.88,10.69-18.13,16.91-26.62,4.24-5.67,9-11.12,14.76-15.24,5.23-3.74,11.81-5,18.13-4.91,8.26.1,16.4,1.82,24.42,3.73,19.94,4.92,39.41,11.74,59.65,15.47,12.52,2.32,25.7,2.41,37.9-1.61a71.49,71.49,0,0,0,20-10.31v7.8a83.15,83.15,0,0,1-20.41,10c-12.5,4-25.92,4.45-38.85,2.56-21.16-3.19-41.37-10.79-62.51-14-8.46-1.22-17.29-1.94-25.62.47-7.2,2.08-13.09,7-18.32,12.21-7.26,7.36-13.27,15.81-19.4,24.1-9.83,13.45-20.1,26.75-32.47,38-11.58,10.62-25.1,19.58-40.37,23.78a116,116,0,0,1-70.26-1.94c-15.14-5.21-29.07-13.32-42.34-22.18-25.13-16.84-48.32-36.69-75.16-50.9-10.08-5.36-20.72-9.57-31.38-13.58-7.3-2.81-14.93-5.1-21.46-9.52-7.6-5.12-13.65-12.15-19.19-19.36a384.57,384.57,0,0,1-25.06-38.39c-5.69-9.83-10.69-20.08-17-29.54-5.66-8.46-12.65-16.44-21.9-21-10.13-5.18-22-5.91-33.05-3.88C119.88,152.2,105.4,158.6,92,166.53c-14.47,8.56-27.34,19.44-40.27,30.1S26.28,218,13.25,228.28c-4.34,3.33-8.6,6.78-13.25,9.66V223.41a14.81,14.81,0,0,0,2.53-1.47C15,213.2,26.82,203.67,38.78,194.3,52.7,183.47,66.24,172,81.26,162.71,94.91,154.29,109.58,147.32,125.09,143.1Z"/><path class="cls-11" d="M126.5,164c8-2.41,16.44-4,24.79-2.94a41.88,41.88,0,0,1,22.53,10.07c8,6.89,13.84,15.78,19.36,24.65,9.71,16.05,18.95,32.38,28.6,48.47,4.91,8.06,9.93,16.15,16.21,23.23A49.34,49.34,0,0,0,254,280c4.79,2.24,10,3.49,14.95,5.18a208.2,208.2,0,0,1,25.63,10.31,191.35,191.35,0,0,1,25.82,15.64c15.17,10.68,29.36,22.64,44.19,33.76,10.67,8,21.72,15.67,34,21A113.73,113.73,0,0,0,436,374.65a151.42,151.42,0,0,0,63.47-9.2A111.41,111.41,0,0,0,526,350c13.44-10.27,25-22.7,36.09-35.44,6.13-7,12.12-14.19,18.78-20.7,5.73-5.58,12-10.79,19.18-14.32a50.41,50.41,0,0,1,22.45-5.15c12.52-.14,24.84,2.54,37,5.12,11.5,2.59,23.15,4.75,35,5a107.75,107.75,0,0,0,35.41-5.06,90.82,90.82,0,0,0,20.1-9.78v4.95a98.5,98.5,0,0,1-26.29,11.68,154.77,154.77,0,0,1-61.29,4.28c-11.92-1.61-23.9-3.73-36-2.93A79.46,79.46,0,0,0,599.57,294c-7.69,3.31-14.5,8.3-20.81,13.72C566.34,318.46,555.63,331,543.52,342c-13.45,12.42-28.27,23.88-45.44,30.65-18.78,7.24-38.7,11.2-58.68,13.26a236.22,236.22,0,0,1-34.92,1.23,65.89,65.89,0,0,1-24.08-5.71c-11.11-5.15-19.77-14.08-28-22.87-11.45-12.22-23.37-24.07-36.61-34.36-13.86-10.87-29.32-20.05-46.33-25-6.42-2-13.13-3.12-19.23-6-7.71-3.57-14-9.55-19.16-16.23-9.84-12.94-16.74-27.74-24.54-41.91-5.41-10-11.15-19.76-17.37-29.25-4.87-7.29-10.07-14.47-16.56-20.42-6.78-6.37-15.66-10.67-25-11-10.85-.4-21.48,2.93-31.25,7.39-13.58,6.31-25.57,15.46-37,25-10.35,8.61-20.38,17.59-30.37,26.61C33.76,247,18.32,260.69,0,269.84V255.39A13.88,13.88,0,0,0,2.5,254c15.77-10.43,29.74-23.27,44-35.6,12.25-10.6,24.36-21.4,37.18-31.31S110.88,168.82,126.5,164Z"/><path class="cls-12" d="M128.35,199.15c8.62-2.67,18.11-3.53,26.78-.62,7.72,2.53,14.19,7.8,19.63,13.71a125.84,125.84,0,0,1,15.44,21.54c9.16,15.55,16.27,32.19,25.27,47.82,5.08,8.7,11.05,17.14,19.15,23.28a50.77,50.77,0,0,0,21,9.32c8.22,1.68,16.5,3.5,24.16,7a88.11,88.11,0,0,1,25.17,17.89c11.34,11.23,18.76,25.82,23.37,41,3.9,12.05,5.76,24.72,10.62,36.46,1.82,4.08,4.1,8.2,7.78,10.88l.09.19a11.12,11.12,0,0,0,3.43,1.78l0,.26c.56.13,1.13.29,1.69.47s1.1.34,1.65.55a49.48,49.48,0,0,0,9,0c.82-.21,1.67-.38,2.51-.52.66-.2,1.32-.38,2-.54,1.66-.48,3.31-1,5-1.5l1.9-.69c8.6-3.21,17-7,25.5-10.44,10.47-4.27,21-8.32,31.57-12.43,20.3-7.86,41.45-13.29,61.65-21.41,15.66-5.89,29.78-15.19,42.69-25.71,12.49-10,23.73-21.45,36.56-31,7.89-5.84,16.38-11.09,25.82-14A134.72,134.72,0,0,1,628.49,307c11.47-.87,23,.23,34.46-.77,12.21-1.16,24.1-4.36,36-7.34,10.16-2.61,20.35-5.2,30.21-8.82A120.92,120.92,0,0,0,750,280v4.51a148.34,148.34,0,0,1-21.75,10.63c-10.86,4.34-22,8-32.57,13-8.2,3.81-15.9,8.64-24.12,12.41a67.45,67.45,0,0,1-27,6.36c-10.82.38-21.68-.19-32.49.61-10.51.6-21.14,2-31,6a114,114,0,0,0-25,14.49c-13.51,10.15-26.26,21.37-40.61,30.39a171.86,171.86,0,0,1-21.82,11.74c-17.25,8-34.88,15.3-51,25.45a288.47,288.47,0,0,0-26.43,18c-13.72,10.5-25.76,23-39.57,33.4-8.29,6.26-17,12-26.56,16.25a56.94,56.94,0,0,1-14.54,4.37c-4.54.31-9.28.52-13.57-1.27a22.15,22.15,0,0,1-11.41-11.18c-3.27-6.64-4.19-14.11-4.72-21.4-.94-21.13,3-42.24.81-63.36-1.12-10.58-3.68-21.15-8.69-30.6a52.28,52.28,0,0,0-40.47-28.24c-5.38-.72-10.82-1.24-16.05-2.77a52.39,52.39,0,0,1-21.33-12c-7.45-6.81-13-15.4-17.83-24.18-8.66-15.81-15.66-32.61-26.18-47.33-5.75-8-12.75-15.53-21.9-19.56-7.72-3.49-16.69-3.47-24.71-1-9.38,2.85-17.71,8.28-25.42,14.22-15,11.64-28.29,25.31-43.95,36.06a110.53,110.53,0,0,1-28.6,14.18A313.14,313.14,0,0,1,0,297.39v-11.9a150.73,150.73,0,0,0,29.78-13.62,161,161,0,0,0,20.06-14.58c15.56-13.05,29.8-27.63,46-40C105.68,209.73,116.38,202.87,128.35,199.15Z"/><path class="cls-13" d="M106.26,291.36c8.72-4.73,17.43-10.05,27.33-11.8a27,27,0,0,1,20.3,4.66c7.53,5.25,13.13,12.69,18.37,20.1,6.15,8.76,11.81,17.91,18.81,26,5.47,6.31,11.78,12,19.24,15.87,9,4.72,19.16,6.57,29.2,7,6.27.34,12.63-.25,18.81,1.07A31.71,31.71,0,0,1,276.52,366c5.82,7.26,8.75,16.41,10,25.54,1.6,12.13.48,24.41-.76,36.52-1.94,18.58-5,37.28-3.13,56,.69,5.4,1.42,10.95,3.68,16H271.5c-3.29-15.28-2.2-31.07-.92-46.52,1.13-12.81,2.76-25.62,2.91-38.5,0-9.12-.67-18.55-4.57-26.93-2.64-5.7-7.22-10.84-13.35-12.78-7.47-2.48-15.43-1-23.08-.41-13.56,1.21-27.39,3.06-40.87.19-16.15-3.19-30-12.63-45.06-18.67-1.53-.62-3.06-1.22-4.61-1.79-10.59-4-21.86-5.6-32.92-7.79a261.17,261.17,0,0,1-30.58-7.89c-18.83-6-37.54-12.88-57.19-15.78A121.81,121.81,0,0,0,0,321.86V310.65c14.46-1.59,29-1.48,43.52-1.94,12.83-.5,25.78-1.82,38-5.9C90.2,300,98.32,295.77,106.26,291.36Z"/><path class="cls-14" d="M704.6,315.12c14-10.21,30.7-15.72,45.4-24.79v5.72c-3.87,2-7.51,4.45-11.34,6.56-8.87,5.08-17.82,10.25-25.36,17.23-11,10.29-19.12,23.19-27,35.94-5.3,8.57-10.58,17.21-17.12,24.89-4.55,5.21-9.79,10.06-16.21,12.84A31.62,31.62,0,0,1,633,395c-19.73-4.77-37.39-15.89-57.46-19.53-9.45-1.64-19.46-1.41-28.45,2.21-9.23,3.67-17.48,9.31-25.78,14.67-13.7,9.24-28,17.61-40.71,28.28-14.53,12.08-27.45,25.95-39.89,40.14-11.95,13.73-24.32,27.16-38,39.24h-25a55.69,55.69,0,0,0,5.24-3.93c8-6.44,15.63-13.43,23-20.62,12.87-12.62,24.56-26.38,37.83-38.59a246.12,246.12,0,0,1,40.56-31c8.83-5.42,18.05-10.2,26.82-15.75,9.25-5.79,18.07-12.19,27-18.42,7.33-5.06,14.84-10,23.18-13.27A69.7,69.7,0,0,1,588,353.63c12.26.15,24.36,2.44,36.46,4.25,6.3.91,12.67,1.94,19.06,1.38a45.25,45.25,0,0,0,21.06-7.66c6.8-4.56,12.5-10.5,18.21-16.33C689.74,328.23,696.55,320.94,704.6,315.12Z"/><path class="cls-15" d="M729.21,320.17A129,129,0,0,1,750,304.26v9.94c-2.91,1.33-5.07,3.78-7.29,6-7.26,7.45-12.64,16.5-17,25.87-8.33,17.85-13.76,36.85-20.38,55.36-6.05,17-12.49,34-22.14,49.29-4.48,7-9.79,13.57-16.56,18.45a33.43,33.43,0,0,1-14.52,6c-9,1.36-18.1-1.29-26.31-4.85-16.79-7.56-30.9-19.66-45.21-31-7.39-5.86-14.84-11.7-23-16.51a58.21,58.21,0,0,0-14.33-6.44,27.79,27.79,0,0,0-16.52.88c-7.28,2.56-13.86,6.77-20,11.4-12.94,10-23.62,22.47-34.38,34.67-10.85,12.54-21.82,25-33.66,36.64H424.06c6.89-6.58,13.49-13.47,19.87-20.55,13.46-15,26-30.91,40.38-45.14a183.2,183.2,0,0,1,39.41-30.17c7.12-4,15-7.54,23.33-7.19,9.12.54,17.71,4.18,25.68,8.43,17.76,9.7,33.15,23.3,51.5,32,6.38,2.94,13.21,5.37,20.31,5.44,6.46.11,12.65-2.65,17.62-6.64,6.94-5.68,12.14-13.12,16.68-20.78,10.11-17.32,17-36.21,25.06-54.53C710.37,346.26,717.7,331.53,729.21,320.17Z"/><path class="cls-16" d="M0,336.55c6.92.12,13.65,2.09,20.14,4.35A114.59,114.59,0,0,1,47.7,355.84c13.46,9.66,25.24,21.37,37.09,32.88,8.1,7.64,16.24,15.41,25.84,21.15,7,4.13,14.85,7.31,23,8l.31.24a134.7,134.7,0,0,0,13.56.1c10.1-1,20.19-2.3,30.14-4.25,11.24-2.18,22.22-5.41,33.28-8.31,7.51-1.93,15-4.16,22.68-5.23,5.56-.66,11.73-.54,16.46,2.88s6.61,9.29,7.66,14.75c2,11.2,1.24,22.63.85,33.94-.57,16-1.48,32.16,1.32,48H252c-3-16.5-2.47-33.36-3.79-50-.62-6.51-1.32-13.3-4.6-19.09A14.48,14.48,0,0,0,232.93,424c-7.14-1.11-14.31.58-21.18,2.41-11.14,3.06-22.2,6.4-33.14,10.1-9.3,3.13-18.64,6.19-28.11,8.8-8.32,2.29-16.81,4.53-25.5,4.59a50.7,50.7,0,0,1-31.08-9.72c-6.92-5-12.49-11.65-17.64-18.44C65.83,407.81,56.51,393,44.83,380.09a112.86,112.86,0,0,0-24.45-21c-6.3-3.65-13-7.42-20.38-8Z"/><path class="cls-17" d="M745,341.53c1.1-2.05,2.26-4.76,5-4.91V375.8l-1.12,0c-2.48,2.26-3.1,5.72-4.12,8.76-6.49,22.45-12.25,45.15-20.55,67-6,15.7-13.16,31.25-23.66,44.51A33,33,0,0,1,697.1,500H667.39c4-1.27,7.57-3.69,10.92-6.17,10-7.75,17.15-18.49,23-29.54a231.62,231.62,0,0,0,12.5-29.09c7.44-20.56,12.9-41.75,19.42-62.61C736.61,362,740.19,351.5,745,341.53Z"/><path class="cls-18" d="M0,373c4.95.56,8.9,3.9,12.66,6.88,12.81,10.81,21.6,25.36,29.6,39.86,4.68,8.45,9.09,17.09,14.36,25.2,5.85,8.92,13.27,17,22.57,22.43,8.53,5.05,18.44,7.38,28.28,7.85,15.06.7,29.67-3.86,43.82-8.5C168,461,184.69,454.87,202,451.28c8.33-1.61,17.54-2.17,25.25,2,4.88,2.52,7.41,7.76,8.93,12.78,3.29,11.11,4.37,22.72,7,34h-8.1c-2.5-6.93-4.46-14.24-8.8-20.3-3.37-4.76-8.85-7.5-14.34-9-8.33-2.3-17.12-1.37-25.47.34-16.18,3.4-31.71,9.19-47.6,13.63-9.81,2.77-19.79,5.12-30,5.89-16.45,1.26-33.81-1.13-47.93-10.19a74.17,74.17,0,0,1-21.77-21.62c-5.41-7.91-9.45-16.62-13.78-25.15-5.6-11-11.42-22.1-19.74-31.33A17.82,17.82,0,0,0,0,397.67Z"/><path class="cls-19" d="M746.35,440.91c1-2.46,1.63-5.23,3.65-7.09v41.12c-2.37,2.85-3.55,6.43-5.32,9.63A137.8,137.8,0,0,1,735.75,500H719.51a84.15,84.15,0,0,0,4.82-7.57C733.67,476.19,740.31,458.59,746.35,440.91Z"/><path class="cls-20" d="M526.05,437.6c5.59-.94,11.3.55,16.25,3.15,6.49,3.41,12.37,7.85,18.16,12.3,16,12.51,30.92,26.53,48.41,37,6.8,4,13.88,7.7,21.49,9.93H594.54c-15.73-10.52-29.76-23.31-45-34.45-4.86-3.46-9.77-7-15.47-9a23.74,23.74,0,0,0-15.35-.2c-7.65,2.47-14.13,7.5-20.11,12.73-11,10-21.17,20.69-31.88,30.9H454.08c10.57-10.4,20.63-21.32,30.71-32.19,6-6.34,11.94-12.75,18.64-18.36C510,444,517.44,438.93,526.05,437.6Z"/><path class="cls-21" d="M0,443c2.09,1.31,3.17,3.59,4.41,5.62,5.26,9,10.55,18.13,17.27,26.19A82.59,82.59,0,0,0,56.56,500H22.77A100.49,100.49,0,0,1,5.45,486C3.65,484.33,2.08,482.37,0,481Z"/><path class="cls-22" d="M515.78,476.7a26.28,26.28,0,0,1,16.2.24,45.89,45.89,0,0,1,11,5.67c8.27,5.47,16.16,11.5,24.13,17.39H544.33a67.8,67.8,0,0,0-10.92-5.86,28.8,28.8,0,0,0-14.45-2c-6.95.81-13.31,4.08-19.09,7.86H482.61c5.77-5.06,11.56-10.12,17.69-14.77C505,481.7,510.09,478.44,515.78,476.7Z"/><path class="cls-23" d="M176,490c8.2-1.4,16.73-1.93,24.88.05A45,45,0,0,1,220.09,500h-85c5.11-1.53,10.34-2.65,15.48-4.05C159,493.78,167.42,491.5,176,490Z"/></g></svg>