<svg width="737" height="737" viewBox="0 0 737 737" fill="none" xmlns="http://www.w3.org/2000/svg">
<path d="M737 245.44L737 0.0143433L491.314 0.0143325L491.314 245.44L737 245.44Z" fill="#2B88D9"/>
<path d="M491.682 245.44L491.682 0.0147095L245.996 0.0146987L245.996 245.44L491.682 245.44Z" fill="#314259"/>
<path d="M246.261 245.425L246.261 0L0.589172 -1.07386e-05L0.589162 245.425L246.261 245.425Z" fill="#A7F2F9"/>
<path d="M737 736.57L737 491.145L491.314 491.145L491.314 736.57L737 736.57Z" fill="#F5533C"/>
<path d="M491.682 736.57L491.682 491.145L245.996 491.145L245.996 736.57L491.682 736.57Z" fill="#2B88D9"/>
<path d="M246.246 735.996L246.246 491.145L0.574554 491.145L0.574544 735.996L246.246 735.996Z" fill="#A7F2F9"/>
<path d="M737 490.998L737 245.572L491.328 245.572L491.328 490.998L737 490.998Z" fill="#314259"/>
<path d="M491.682 490.998L491.682 245.572L245.996 245.572L245.996 490.998L491.682 490.998Z" fill="#A7F2F9"/>
<path d="M246.261 490.998L246.261 245.572L0.574463 245.572L0.574452 490.998L246.261 490.998Z" fill="#F5533C"/>
<path d="M633.12 490.998L491.328 490.998L491.328 354.75C492.801 354.75 494.274 354.75 495.747 354.75C532.007 354.726 566.804 369.04 592.542 394.566C618.279 420.093 632.867 454.76 633.12 490.998Z" fill="#4B71A6"/>
<path d="M699.324 121.233L511.565 121.233" stroke="#EAC2B5" stroke-width="4.7" stroke-linecap="round" stroke-linejoin="round"/>
<path d="M605.445 215.014L605.445 27.4526" stroke="#EAC2B5" stroke-width="4.7" stroke-linecap="round" stroke-linejoin="round"/>
<path d="M671.826 187.546L539.064 54.92" stroke="#EAC2B5" stroke-width="4.7" stroke-linecap="round" stroke-linejoin="round"/>
<path d="M539.063 187.546L671.826 54.92" stroke="#EAC2B5" stroke-width="4.7" stroke-linecap="round" stroke-linejoin="round"/>
<path d="M537.208 120.321C537.208 158.05 567.825 188.636 605.592 188.636C643.36 188.636 673.977 158.05 673.977 120.321C673.977 82.5912 643.36 52.0055 605.592 52.0055C567.825 52.0055 537.208 82.5912 537.208 120.321Z" fill="#EAC2B5"/>
<path d="M556.399 120.321C556.399 147.465 578.424 169.47 605.592 169.47C632.761 169.47 654.786 147.465 654.786 120.321C654.786 93.1759 632.761 71.1708 605.592 71.1708C578.424 71.1708 556.399 93.1759 556.399 120.321Z" stroke="#2B88D9" stroke-width="9.4" stroke-miterlimit="10"/>
<path d="M672.916 121.233L537.988 121.233" stroke="#EAC2B5" stroke-width="4.7" stroke-linecap="round" stroke-linejoin="round"/>
<path d="M605.445 188.621L605.445 53.8307" stroke="#EAC2B5" stroke-width="4.7" stroke-linecap="round" stroke-linejoin="round"/>
<path d="M653.151 168.882L557.739 73.5996" stroke="#EAC2B5" stroke-width="4.7" stroke-linecap="round" stroke-linejoin="round"/>
<path d="M557.739 168.882L653.151 73.5996" stroke="#EAC2B5" stroke-width="4.7" stroke-linecap="round" stroke-linejoin="round"/>
<path d="M628.053 319.246C628.053 339.244 644.281 355.457 664.3 355.457C684.319 355.457 700.547 339.244 700.547 319.246C700.547 299.247 684.319 283.035 664.3 283.035C644.281 283.035 628.053 299.247 628.053 319.246Z" stroke="#FDF9F4" stroke-width="4.81" stroke-linecap="round" stroke-linejoin="round"/>
<path d="M713.434 319.246L615.048 319.246" stroke="#FDF9F4" stroke-width="4.81" stroke-linecap="round" stroke-linejoin="round"/>
<path d="M664.3 368.381L664.3 270.096" stroke="#FDF9F4" stroke-width="4.81" stroke-linecap="round" stroke-linejoin="round"/>
<path d="M699.089 353.985L629.482 284.492" stroke="#FDF9F4" stroke-width="4.81" stroke-linecap="round" stroke-linejoin="round"/>
<path d="M629.482 353.985L699.089 284.492" stroke="#FDF9F4" stroke-width="4.81" stroke-linecap="round" stroke-linejoin="round"/>
<path d="M630.807 318.878C630.807 337.072 645.572 351.821 663.785 351.821C681.997 351.821 696.762 337.072 696.762 318.878C696.762 300.684 681.997 285.934 663.785 285.934C645.572 285.934 630.807 300.684 630.807 318.878Z" fill="#314259"/>
<path d="M644.21 318.878C644.21 329.682 652.974 338.44 663.785 338.44C674.595 338.44 683.359 329.682 683.359 318.878C683.359 308.073 674.595 299.315 663.785 299.315C652.974 299.315 644.21 308.073 644.21 318.878Z" stroke="#FDF9F4" stroke-width="3.77" stroke-linecap="round" stroke-linejoin="round"/>
<path d="M535.97 452.755C533.808 450.82 532.501 448.108 532.332 445.212C532.164 442.317 533.149 439.472 535.072 437.299L595.68 369.264C597.619 367.102 600.335 365.795 603.235 365.626C606.134 365.458 608.983 366.443 611.16 368.366C613.321 370.301 614.629 373.013 614.798 375.909C614.966 378.805 613.981 381.649 612.058 383.822L551.421 451.902C549.477 454.048 546.764 455.342 543.871 455.502C540.978 455.661 538.14 454.675 535.97 452.755Z" fill="#4B71A6"/>
<path d="M551.421 461.381C550.652 458.58 551.024 455.589 552.457 453.062C553.889 450.535 556.266 448.678 559.065 447.898L646.876 423.58C649.685 422.802 652.687 423.17 655.225 424.602C657.763 426.035 659.628 428.415 660.412 431.22C661.181 434.021 660.808 437.012 659.376 439.539C657.943 442.066 655.567 443.923 652.768 444.703L564.912 469.021C562.11 469.785 559.118 469.411 556.591 467.98C554.063 466.549 552.205 464.177 551.421 461.381Z" fill="#4B71A6"/>
<path d="M533.172 329.859L533.157 329.859C527.106 329.859 522.199 334.762 522.199 340.81L522.199 431.897C522.199 437.946 527.106 442.849 533.157 442.849L533.172 442.849C539.224 442.849 544.13 437.946 544.13 431.897L544.13 340.81C544.13 334.762 539.224 329.859 533.172 329.859Z" fill="#4B71A6"/>
<path d="M579.405 120.321C579.405 134.767 591.129 146.478 605.592 146.478C620.055 146.478 631.78 134.767 631.78 120.321C631.78 105.874 620.055 94.1633 605.592 94.1633C591.129 94.1633 579.405 105.874 579.405 120.321Z" stroke="#2B88D9" stroke-width="2.35" stroke-linecap="round" stroke-linejoin="round"/>
<path d="M504.996 394.759C500.424 394.762 495.857 395.082 491.328 395.716L491.328 400.971C495.853 400.291 500.421 399.951 504.996 399.955C529.266 399.976 552.553 409.538 569.827 426.576C587.101 443.614 596.974 466.759 597.315 491.012L602.514 491.012C602.173 465.381 591.752 440.914 573.503 422.902C555.254 404.889 530.645 394.78 504.996 394.759Z" fill="#A7F2F9"/>
<path d="M504.997 428.453C500.4 428.439 495.816 428.933 491.328 429.925L491.328 435.239C499.845 433.204 508.709 433.101 517.27 434.936C525.831 436.772 533.873 440.501 540.804 445.848C547.735 451.196 553.38 458.027 557.325 465.839C561.27 473.652 563.415 482.248 563.601 490.998L568.8 490.998C568.465 474.303 561.597 458.405 549.669 446.712C537.742 435.02 521.704 428.465 504.997 428.453Z" fill="#A7F2F9"/>
<path d="M692.432 590.99L692.432 490.689L671.664 490.689L671.664 590.99L692.432 590.99Z" fill="#314259"/>
<path d="M642.811 634.797L642.811 534.495L622.044 534.495L622.044 634.797L642.811 634.797Z" fill="#EAC2B5"/>
<path d="M589.715 733.95L589.715 633.648L568.948 633.648L568.948 733.95L589.715 733.95Z" fill="#314259"/>
<path d="M589.715 531.036L589.715 507.984L566.635 507.984L566.635 531.036L589.715 531.036Z" fill="#314259"/>
<path d="M589.715 579.45L589.715 556.398L566.635 556.398L566.635 579.45L589.715 579.45Z" fill="#314259"/>
<path d="M542.407 531.036L542.407 507.984L519.327 507.984L519.327 531.036L542.407 531.036Z" fill="#314259"/>
<path d="M542.407 579.45L542.407 556.398L519.327 556.398L519.327 579.45L542.407 579.45Z" fill="#EAC2B5"/>
<path d="M542.407 631.337L542.407 608.286L519.327 608.286L519.327 631.337L542.407 631.337Z" stroke="#FDF9F4" stroke-width="1.18" stroke-miterlimit="10"/>
<path d="M642.811 679.751L642.811 656.7L619.732 656.7L619.732 679.751L642.811 679.751Z" fill="#EAC2B5"/>
<path d="M692.432 637.093L692.432 614.041L669.352 614.041L669.352 637.093L692.432 637.093Z" fill="#EAC2B5"/>
<path d="M640.499 720.687L640.499 697.636L617.419 697.636L617.419 720.687L640.499 720.687Z" stroke="#FDF9F4" stroke-width="1.18" stroke-miterlimit="10"/>
<path d="M692.432 720.687L692.432 697.636L669.352 697.636L669.352 720.687L692.432 720.687Z" fill="#EAC2B5"/>
<path d="M692.432 676.292L692.432 653.241L669.352 653.241L669.352 676.292L692.432 676.292Z" fill="#314259"/>
<path d="M291.404 62.383L438.541 197.276" stroke="#F5533C" stroke-width="15.28" stroke-linejoin="round"/>
<path d="M426.42 57.2016C426.42 65.7946 433.397 72.7606 442.003 72.7606C450.609 72.7606 457.585 65.7946 457.585 57.2016C457.585 48.6086 450.609 41.6426 442.003 41.6426C433.397 41.6426 426.42 48.6086 426.42 57.2016Z" fill="#EAC2B5"/>
<path d="M334.161 195.127C334.161 203.72 341.137 210.686 349.743 210.686C358.349 210.686 365.326 203.72 365.326 195.127C365.326 186.534 358.349 179.568 349.743 179.568C341.137 179.568 334.161 186.534 334.161 195.127Z" fill="#EAC2B5"/>
<path d="M277.029 192.522C277.029 201.115 284.005 208.081 292.611 208.081C301.217 208.081 308.194 201.115 308.194 192.522C308.194 183.929 301.217 176.963 292.611 176.963C284.005 176.963 277.029 183.929 277.029 192.522Z" fill="#EAC2B5"/>
<path d="M365.311 56.7747C365.311 65.3677 372.288 72.3337 380.894 72.3337C389.5 72.3337 396.477 65.3677 396.477 56.7747C396.477 48.1817 389.5 41.2158 380.894 41.2158C372.288 41.2158 365.311 48.1817 365.311 56.7747Z" stroke="#FDF9F4" stroke-width="1.18" stroke-miterlimit="10"/>
<path d="M168.259 294.119C168.259 294.119 245.819 366.246 165.755 439.964C165.755 439.964 83.0542 373.665 168.259 294.119Z" fill="#EAC2B5"/>
<path d="M137.476 367.321C137.476 382.881 150.104 395.495 165.681 395.495C181.258 395.495 193.886 382.881 193.886 367.321C193.886 351.761 181.258 339.147 165.681 339.147C150.104 339.147 137.476 351.761 137.476 367.321Z" fill="#314259"/>
<path d="M144.737 367.321C144.737 378.881 154.114 388.253 165.681 388.253C177.248 388.253 186.625 378.881 186.625 367.321C186.625 355.761 177.248 346.389 165.681 346.389C154.114 346.389 144.737 355.761 144.737 367.321Z" stroke="#F5533C" stroke-width="2.35" stroke-linejoin="round"/>
<path d="M77.0892 292.926C77.0892 292.926 154.649 365.054 74.5853 438.771C74.5706 438.801 -8.08581 372.517 77.0892 292.926Z" fill="#EAC2B5"/>
<path d="M46.3065 366.173C46.3065 381.733 58.9344 394.347 74.5117 394.347C90.0889 394.347 102.717 381.733 102.717 366.173C102.717 350.613 90.0889 337.999 74.5117 337.999C58.9344 337.999 46.3065 350.613 46.3065 366.173Z" fill="#F5533C"/>
<path d="M64.7908 366.173C64.7908 371.538 69.143 375.888 74.5116 375.888C79.8803 375.888 84.2324 371.538 84.2324 366.173C84.2324 360.807 79.8803 356.458 74.5117 356.458C69.143 356.458 64.7908 360.807 64.7908 366.173Z" fill="#314259"/>
<path d="M213.505 245.366L213.505 -3.05176e-05L171.97 -3.23331e-05L171.97 245.366L213.505 245.366Z" fill="#314259"/>
<path d="M137.093 245.366L137.093 -3.05176e-05L110.788 -3.16674e-05L110.788 245.366L137.093 245.366Z" fill="#314259"/>
<path d="M89.2549 245.366L89.2549 -3.05176e-05L73.0093 -3.12277e-05L73.0093 245.366L89.2549 245.366Z" fill="#314259"/>
<path d="M57.5295 246.235L57.5295 -3.05176e-05L41.2987 -3.12271e-05L41.2987 246.235L57.5295 246.235Z" fill="#314259"/>
<path d="M29.251 245.366L29.251 -3.05176e-05L12.9907 -3.12283e-05L12.9907 245.366L29.251 245.366Z" fill="#314259"/>
<path d="M438.541 656.979L438.542 571.118L364.104 528.18L289.666 571.118L289.666 656.979L364.104 699.917L438.541 656.979Z" fill="#EAC2B5"/>
<path d="M413.886 642.76L413.886 585.338L364.104 556.619L314.321 585.338L314.321 642.76L364.104 671.464L413.886 642.76Z" stroke="#2B88D9" stroke-width="2.13" stroke-linecap="round" stroke-linejoin="round"/>
<path d="M379.51 598.644L348.698 629.438" stroke="#2B88D9" stroke-width="2.13" stroke-linecap="round" stroke-linejoin="round"/>
<path d="M379.51 629.438L348.698 598.644" stroke="#2B88D9" stroke-width="2.13" stroke-linecap="round" stroke-linejoin="round"/>
<path d="M333.571 614.041C333.571 630.886 347.241 644.541 364.104 644.541C380.966 644.541 394.636 630.886 394.636 614.041C394.636 597.197 380.966 583.542 364.104 583.542C347.241 583.542 333.571 597.197 333.571 614.041Z" stroke="#2B88D9" stroke-width="2.13" stroke-linecap="round" stroke-linejoin="round"/>
<path d="M491.608 354.088L491.608 275.042L300.27 275.042L300.27 354.088L491.608 354.088Z" fill="#3C5069"/>
<path d="M442.724 316.169C442.724 324.047 449.121 330.433 457.011 330.433C464.901 330.433 471.298 324.047 471.298 316.169C471.298 308.292 464.901 301.906 457.011 301.906C449.121 301.906 442.724 308.292 442.724 316.169Z" fill="#F5533C"/>
<path d="M439.307 520.658C439.307 528.536 445.704 534.922 453.594 534.922C461.484 534.922 467.881 528.536 467.881 520.658C467.881 512.781 461.484 506.395 453.594 506.395C445.704 506.395 439.307 512.781 439.307 520.658Z" fill="#314259"/>
<path d="M265.349 697.032C265.349 704.91 271.745 711.296 279.636 711.296C287.526 711.296 293.922 704.91 293.922 697.032C293.922 689.155 287.526 682.769 279.636 682.769C271.745 682.769 265.349 689.155 265.349 697.032Z" fill="#314259"/>
<path d="M382.706 315.448C382.706 323.325 389.102 329.711 396.992 329.711C404.883 329.711 411.279 323.325 411.279 315.448C411.279 307.57 404.883 301.184 396.992 301.184C389.102 301.184 382.706 307.57 382.706 315.448Z" stroke="#222840" stroke-width="2.17" stroke-linecap="round" stroke-linejoin="round"/>
<path d="M330.773 313.858C330.773 321.736 337.169 328.122 345.06 328.122C352.95 328.122 359.346 321.736 359.346 313.858C359.346 305.981 352.95 299.594 345.06 299.594C337.169 299.594 330.773 305.981 330.773 313.858Z" stroke="#222840" stroke-width="2.17" stroke-linecap="round" stroke-linejoin="round"/>
<path d="M283.892 320.629L283.892 309.678L245.23 309.678L245.23 320.629L283.892 320.629Z" fill="#314259"/>
<path d="M271.785 315.006L271.785 314.403C271.808 310.139 273.514 306.056 276.53 303.041C279.547 300.026 283.632 298.322 287.898 298.299L349.375 298.299C353.641 298.322 357.726 300.026 360.743 303.041C363.76 306.056 365.465 310.139 365.488 314.403L365.488 315.006C365.465 319.27 363.76 323.353 360.743 326.368C357.726 329.383 353.641 331.087 349.375 331.11L287.898 331.11C283.632 331.087 279.547 329.383 276.53 326.368C273.514 323.353 271.808 319.27 271.785 315.006Z" fill="white"/>
<path d="M333.807 330.433L333.807 297.004" stroke="#222840" stroke-width="2.17" stroke-linecap="round" stroke-linejoin="round"/>
<path d="M451.017 380.024C451.017 383.3 453.674 385.956 456.952 385.956C460.23 385.956 462.888 383.3 462.888 380.024C462.888 376.748 460.23 374.092 456.952 374.092C453.674 374.092 451.017 376.748 451.017 380.024Z" stroke="#222840" stroke-width="1.18" stroke-miterlimit="10"/>
<path d="M451.017 407.065C451.017 410.341 453.674 412.997 456.952 412.997C460.23 412.997 462.888 410.341 462.888 407.065C462.888 403.788 460.23 401.133 456.952 401.133C453.674 401.133 451.017 403.788 451.017 407.065Z" stroke="#222840" stroke-width="1.18" stroke-miterlimit="10"/>
<path d="M451.017 434.09C451.017 437.367 453.674 440.023 456.952 440.023C460.23 440.023 462.888 437.367 462.888 434.09C462.888 430.814 460.23 428.158 456.952 428.158C453.674 428.158 451.017 430.814 451.017 434.09Z" stroke="#222840" stroke-width="1.18" stroke-miterlimit="10"/>
<path d="M451.017 461.116C451.017 464.392 453.674 467.048 456.952 467.048C460.23 467.048 462.888 464.392 462.888 461.116C462.888 457.84 460.23 455.184 456.952 455.184C453.674 455.184 451.017 457.84 451.017 461.116Z" stroke="#222840" stroke-width="1.18" stroke-miterlimit="10"/>
<path d="M424.299 379.7C424.299 382.977 426.956 385.632 430.235 385.632C433.513 385.632 436.17 382.977 436.17 379.7C436.17 376.424 433.513 373.768 430.235 373.768C426.956 373.768 424.299 376.424 424.299 379.7Z" stroke="#222840" stroke-width="1.18" stroke-miterlimit="10"/>
<path d="M424.299 406.726C424.299 410.002 426.956 412.658 430.235 412.658C433.513 412.658 436.17 410.002 436.17 406.726C436.17 403.45 433.513 400.794 430.235 400.794C426.956 400.794 424.299 403.45 424.299 406.726Z" stroke="#222840" stroke-width="1.18" stroke-miterlimit="10"/>
<path d="M424.299 433.752C424.299 437.028 426.956 439.684 430.235 439.684C433.513 439.684 436.17 437.028 436.17 433.752C436.17 430.476 433.513 427.82 430.235 427.82C426.956 427.82 424.299 430.476 424.299 433.752Z" stroke="#222840" stroke-width="1.18" stroke-miterlimit="10"/>
<path d="M424.299 460.792C424.299 464.069 426.956 466.725 430.235 466.725C433.513 466.725 436.17 464.069 436.17 460.792C436.17 457.516 433.513 454.86 430.235 454.86C426.956 454.86 424.299 457.516 424.299 460.792Z" stroke="#222840" stroke-width="1.18" stroke-miterlimit="10"/>
<path d="M397.567 379.376C397.567 382.653 400.224 385.309 403.502 385.309C406.78 385.309 409.438 382.653 409.438 379.376C409.438 376.1 406.78 373.444 403.502 373.444C400.224 373.444 397.567 376.1 397.567 379.376Z" stroke="#222840" stroke-width="1.18" stroke-miterlimit="10"/>
<path d="M397.567 406.402C397.567 409.678 400.224 412.334 403.502 412.334C406.78 412.334 409.438 409.678 409.438 406.402C409.438 403.126 406.78 400.47 403.502 400.47C400.224 400.47 397.567 403.126 397.567 406.402Z" stroke="#222840" stroke-width="1.18" stroke-miterlimit="10"/>
<path d="M397.567 433.428C397.567 436.704 400.224 439.36 403.502 439.36C406.78 439.36 409.438 436.704 409.438 433.428C409.438 430.152 406.78 427.496 403.502 427.496C400.224 427.496 397.567 430.152 397.567 433.428Z" stroke="#222840" stroke-width="1.18" stroke-miterlimit="10"/>
<path d="M397.567 460.454C397.567 463.73 400.224 466.386 403.502 466.386C406.78 466.386 409.438 463.73 409.438 460.454C409.438 457.178 406.78 454.522 403.502 454.522C400.224 454.522 397.567 457.178 397.567 460.454Z" stroke="#222840" stroke-width="1.18" stroke-miterlimit="10"/>
<path d="M370.835 379.038C370.835 382.314 373.492 384.97 376.77 384.97C380.048 384.97 382.706 382.314 382.706 379.038C382.706 375.762 380.048 373.106 376.77 373.106C373.492 373.106 370.835 375.762 370.835 379.038Z" stroke="#222840" stroke-width="1.18" stroke-miterlimit="10"/>
<path d="M370.835 406.064C370.835 409.34 373.492 411.996 376.77 411.996C380.048 411.996 382.706 409.34 382.706 406.064C382.706 402.787 380.048 400.132 376.77 400.132C373.492 400.132 370.835 402.787 370.835 406.064Z" stroke="#222840" stroke-width="1.18" stroke-miterlimit="10"/>
<path d="M370.835 433.104C370.835 436.38 373.492 439.036 376.77 439.036C380.048 439.036 382.706 436.38 382.706 433.104C382.706 429.828 380.048 427.172 376.77 427.172C373.492 427.172 370.835 429.828 370.835 433.104Z" stroke="#222840" stroke-width="1.18" stroke-miterlimit="10"/>
<path d="M370.835 460.13C370.835 463.406 373.492 466.062 376.77 466.062C380.048 466.062 382.706 463.406 382.706 460.13C382.706 456.854 380.048 454.198 376.77 454.198C373.492 454.198 370.835 456.854 370.835 460.13Z" stroke="#222840" stroke-width="1.18" stroke-miterlimit="10"/>
<path d="M342.732 378.861C342.732 382.138 345.39 384.793 348.668 384.793C351.946 384.793 354.604 382.138 354.604 378.861C354.604 375.585 351.946 372.929 348.668 372.929C345.39 372.929 342.732 375.585 342.732 378.861Z" fill="#314259"/>
<path d="M342.732 405.887C342.732 409.163 345.39 411.819 348.668 411.819C351.946 411.819 354.604 409.163 354.604 405.887C354.604 402.611 351.946 399.955 348.668 399.955C345.39 399.955 342.732 402.611 342.732 405.887Z" fill="#314259"/>
<path d="M342.732 432.913C342.732 436.189 345.39 438.845 348.668 438.845C351.946 438.845 354.604 436.189 354.604 432.913C354.604 429.637 351.946 426.981 348.668 426.981C345.39 426.981 342.732 429.637 342.732 432.913Z" fill="#314259"/>
<path d="M342.732 459.939C342.732 463.215 345.39 465.871 348.668 465.871C351.946 465.871 354.604 463.215 354.604 459.939C354.604 456.662 351.946 454.006 348.668 454.006C345.39 454.006 342.732 456.662 342.732 459.939Z" fill="#314259"/>
<path d="M316 378.523C316 381.799 318.658 384.455 321.936 384.455C325.214 384.455 327.871 381.799 327.871 378.523C327.871 375.246 325.214 372.591 321.936 372.591C318.658 372.591 316 375.246 316 378.523Z" fill="#314259"/>
<path d="M316 405.563C316 408.839 318.658 411.495 321.936 411.495C325.214 411.495 327.871 408.839 327.871 405.563C327.871 402.287 325.214 399.631 321.936 399.631C318.658 399.631 316 402.287 316 405.563Z" fill="#314259"/>
<path d="M316 432.589C316 435.865 318.658 438.521 321.936 438.521C325.214 438.521 327.871 435.865 327.871 432.589C327.871 429.313 325.214 426.657 321.936 426.657C318.658 426.657 316 429.313 316 432.589Z" fill="#314259"/>
<path d="M316 459.615C316 462.891 318.658 465.547 321.936 465.547C325.214 465.547 327.871 462.891 327.871 459.615C327.871 456.339 325.214 453.683 321.936 453.683C318.658 453.683 316 456.339 316 459.615Z" fill="#314259"/>
<path d="M289.283 378.199C289.283 381.475 291.94 384.131 295.218 384.131C298.496 384.131 301.154 381.475 301.154 378.199C301.154 374.923 298.496 372.267 295.218 372.267C291.94 372.267 289.283 374.923 289.283 378.199Z" fill="#314259"/>
<path d="M289.283 405.225C289.283 408.501 291.94 411.157 295.218 411.157C298.496 411.157 301.154 408.501 301.154 405.225C301.154 401.948 298.496 399.293 295.218 399.293C291.94 399.293 289.283 401.948 289.283 405.225Z" fill="#314259"/>
<path d="M289.283 432.25C289.283 435.527 291.94 438.183 295.218 438.183C298.496 438.183 301.154 435.527 301.154 432.25C301.154 428.974 298.496 426.318 295.218 426.318C291.94 426.318 289.283 428.974 289.283 432.25Z" fill="#314259"/>
<path d="M289.283 459.291C289.283 462.567 291.94 465.223 295.218 465.223C298.496 465.223 301.154 462.567 301.154 459.291C301.154 456.015 298.496 453.359 295.218 453.359C291.94 453.359 289.283 456.015 289.283 459.291Z" fill="#314259"/>
<path d="M262.55 377.86C262.55 381.137 265.208 383.792 268.486 383.792C271.764 383.792 274.422 381.137 274.422 377.86C274.422 374.584 271.764 371.928 268.486 371.928C265.208 371.928 262.55 374.584 262.55 377.86Z" fill="#314259"/>
<path d="M262.55 404.901C262.55 408.177 265.208 410.833 268.486 410.833C271.764 410.833 274.422 408.177 274.422 404.901C274.422 401.625 271.764 398.969 268.486 398.969C265.208 398.969 262.55 401.625 262.55 404.901Z" fill="#314259"/>
<path d="M262.55 431.927C262.55 435.203 265.208 437.859 268.486 437.859C271.764 437.859 274.422 435.203 274.422 431.927C274.422 428.65 271.764 425.994 268.486 425.994C265.208 425.994 262.55 428.65 262.55 431.927Z" fill="#314259"/>
<path d="M262.55 458.952C262.55 462.229 265.208 464.885 268.486 464.885C271.764 464.885 274.422 462.229 274.422 458.952C274.422 455.676 271.764 453.02 268.486 453.02C265.208 453.02 262.55 455.676 262.55 458.952Z" fill="#314259"/>
<path d="M119.949 584.219C107.846 584.223 95.86 581.844 84.6767 577.218C73.4933 572.592 63.3313 565.81 54.7709 557.258C46.2104 548.707 39.4193 538.554 34.7853 527.379C30.1513 516.205 27.7652 504.227 27.7633 492.131L27.7633 491.145L212.12 491.145L212.12 492.131C212.118 504.226 209.732 516.202 205.099 527.376C200.466 538.55 193.676 548.702 185.118 557.253C176.559 565.804 166.398 572.587 155.217 577.214C144.035 581.84 132.051 584.221 119.949 584.219Z" fill="#314259"/>
<path d="M178.362 690.556L178.362 545.299C178.362 539.568 173.713 534.922 167.979 534.922C162.244 534.922 157.595 539.568 157.595 545.299L157.595 690.556C157.595 696.287 162.244 700.933 167.979 700.933C173.713 700.933 178.362 696.287 178.362 690.556Z" fill="#F5533C"/>
<path d="M131.629 690.556L131.629 545.299C131.629 539.568 126.98 534.922 121.245 534.922C115.51 534.922 110.861 539.568 110.861 545.299L110.861 690.556C110.861 696.287 115.51 700.933 121.245 700.933C126.98 700.933 131.629 696.287 131.629 690.556Z" fill="#F5533C"/>
<path d="M82.303 690.556L82.303 545.299C82.303 539.568 77.6541 534.922 71.9194 534.922C66.1847 534.922 61.5358 539.568 61.5358 545.299L61.5358 690.556C61.5358 696.287 66.1846 700.933 71.9194 700.933C77.6541 700.933 82.303 696.287 82.303 690.556Z" fill="#F5533C"/>
<path d="M226.35 706.11L206.95 686.715L187.545 706.103L206.944 725.498L226.35 706.11Z" fill="white"/>
<path d="M49.8107 524.539L30.4116 505.144L11.0058 524.532L30.4049 543.926L49.8107 524.539Z" fill="white"/>
<path d="M214.727 69.6252L214.727 26.5253L171.587 26.5253L171.587 69.6252L214.727 69.6252Z" fill="#F5533C"/>
<path d="M171.867 97.3134L171.867 70.3759L144.899 70.3759L144.899 97.3134L171.867 97.3134Z" fill="white"/>
<path d="M74.5115 190.932L74.5115 163.995L47.5436 163.995L47.5436 190.932L74.5115 190.932Z" fill="white"/>
<path d="M53.7297 69.0217L53.7297 42.0842L26.7618 42.0842L26.7618 69.0217L53.7297 69.0217Z" fill="white"/>
</svg>
