<svg width="116" height="107" viewBox="0 0 116 107" fill="none" xmlns="http://www.w3.org/2000/svg">
<rect x="116" y="107" width="116" height="107" rx="16" transform="rotate(-180 116 107)" fill="url(#paint0_linear)"/>
<path fill-rule="evenodd" clip-rule="evenodd" d="M66.1 69.9977C62.8208 71.2473 59.266 71.7191 55.7479 71.3716C52.2299 71.0242 48.8563 69.8683 45.9235 68.0053C42.9906 66.1423 40.5884 63.6294 38.9279 60.6872C37.2673 57.7451 36.3993 54.4638 36.4 51.1317C36.4 50.5321 36.6528 49.9571 37.1029 49.5331C37.553 49.1092 38.1635 48.871 38.8 48.871C39.4365 48.871 40.047 49.1092 40.497 49.5331C40.9471 49.9571 41.2 50.5321 41.2 51.1317C41.1989 53.7236 41.8736 56.2761 43.1649 58.5649C44.4562 60.8537 46.3245 62.8086 48.6057 64.258C50.8868 65.7073 53.511 66.6067 56.2475 66.8771C58.9841 67.1474 61.7492 66.7805 64.3 65.8085C64.5941 65.6862 64.9112 65.6208 65.2327 65.6162C65.5541 65.6116 65.8733 65.6678 66.1712 65.7816C66.4691 65.8954 66.7397 66.0644 66.967 66.2786C67.1942 66.4928 67.3734 66.7478 67.4941 67.0285C67.6147 67.3092 67.6742 67.6099 67.6691 67.9126C67.664 68.2154 67.5943 68.5142 67.4643 68.7911C67.3343 69.068 67.1465 69.3176 66.9121 69.5248C66.6778 69.7321 66.4016 69.8929 66.1 69.9977ZM70.8112 64.7889C70.3343 64.3922 70.0442 63.8333 70.0046 63.2352C69.965 62.637 70.1791 62.0485 70.6 61.599C73.3123 58.7115 74.8066 54.9874 74.8 51.1317C74.8 50.5321 75.0528 49.9571 75.5029 49.5331C75.953 49.1092 76.5635 48.871 77.2 48.871C77.8365 48.871 78.447 49.1092 78.897 49.5331C79.3471 49.9571 79.6 50.5321 79.6 51.1317C79.6067 56.0887 77.6857 60.8764 74.2 64.59C73.9914 64.8128 73.7383 64.9946 73.4551 65.1252C73.1718 65.2558 72.8641 65.3325 72.5494 65.3509C72.2346 65.3694 71.9191 65.3293 71.6209 65.2329C71.3227 65.1364 71.0475 64.9856 70.8112 64.7889Z" fill="#F8F9FA"/>
<path fill-rule="evenodd" clip-rule="evenodd" d="M70 51.1317C70 54.1296 68.7357 57.0048 66.4853 59.1246C64.2348 61.2445 61.1826 62.4354 58 62.4354C54.8174 62.4354 51.7652 61.2445 49.5147 59.1246C47.2643 57.0048 46 54.1296 46 51.1317C46 50.5321 46.2528 49.957 46.7029 49.5331C47.153 49.1091 47.7635 48.8709 48.4 48.8709C49.0365 48.8709 49.647 49.1091 50.097 49.5331C50.5471 49.957 50.8 50.5321 50.8 51.1317C50.8 52.9304 51.5586 54.6555 52.9088 55.9274C54.2591 57.1994 56.0904 57.9139 58 57.9139C59.9096 57.9139 61.7409 57.1994 63.0912 55.9274C64.4414 54.6555 65.2 52.9304 65.2 51.1317C65.2 47.3404 66.028 43.7254 67.5232 40.4405C67.7743 39.8895 68.2475 39.455 68.8387 39.2327C69.4299 39.0103 70.0906 39.0182 70.6756 39.2548C71.2606 39.4913 71.7218 39.9371 71.9579 40.494C72.194 41.0508 72.1855 41.6733 71.9344 42.2243C70.6536 45.0387 69.9954 48.0695 70 51.1317ZM48.5896 46.583C48.2782 46.5365 47.9795 46.4327 47.7107 46.2774C47.4419 46.1221 47.2082 45.9184 47.0229 45.678C46.8377 45.4376 46.7046 45.1652 46.6312 44.8763C46.5578 44.5875 46.5456 44.2878 46.5952 43.9945C46.9082 42.1347 47.345 40.2953 47.9032 38.4873C47.9852 38.1959 48.1282 37.923 48.3238 37.6845C48.5194 37.446 48.7637 37.2468 49.0422 37.0985C49.3208 36.9502 49.628 36.8559 49.9458 36.8211C50.2636 36.7862 50.5856 36.8116 50.8928 36.8957C51.2001 36.9799 51.4863 37.121 51.7348 37.3108C51.9833 37.5007 52.189 37.7354 52.3398 38.0012C52.4906 38.267 52.5834 38.5586 52.6129 38.8587C52.6423 39.1588 52.6077 39.4614 52.5112 39.7488C52.0144 41.3607 51.6208 43.0155 51.3352 44.7043C51.2349 45.296 50.8894 45.8259 50.3746 46.1777C49.8598 46.5296 49.2178 46.6745 48.5896 46.5808V46.583Z" fill="#F8F9FA"/>
<path fill-rule="evenodd" clip-rule="evenodd" d="M58 53.3925C57.3635 53.3925 56.753 53.1543 56.303 52.7303C55.8529 52.3063 55.6 51.7313 55.6 51.1317C55.6 46.0767 56.704 41.2567 58.696 36.8799C58.8204 36.6071 59.0005 36.36 59.2262 36.1527C59.4519 35.9455 59.7188 35.7821 60.0115 35.672C60.3042 35.5619 60.6171 35.5072 60.9323 35.511C61.2475 35.5148 61.5588 35.577 61.8484 35.6941C62.1381 35.8113 62.4004 35.981 62.6204 36.1936C62.8404 36.4062 63.0138 36.6576 63.1307 36.9333C63.2476 37.209 63.3057 37.5038 63.3017 37.8007C63.2976 38.0976 63.2316 38.3908 63.1072 38.6636C61.3149 42.6032 60.3938 46.8456 60.4 51.1317C60.4 51.7313 60.1472 52.3063 59.6971 52.7303C59.247 53.1543 58.6365 53.3925 58 53.3925Z" fill="#F8F9FA"/>
<defs>
<linearGradient id="paint0_linear" x1="116" y1="110.084" x2="248.141" y2="134.378" gradientUnits="userSpaceOnUse">
<stop stop-color="#1D4ED8"/>
<stop offset="1" stop-color="#3B82F6"/>
</linearGradient>
</defs>
</svg>
